M48
INCH
T1C0.0157
T2C0.0433
T3C0.1260
%
G90
G05
T1
X4.2323Y-2.9921
X4.2323Y-3.0906
X4.2323Y-3.189
X4.2323Y-3.2874
X4.2323Y-3.878
X4.2323Y-3.9764
X4.2323Y-4.0748
X4.2323Y-4.1732
X4.2323Y-4.2717
X4.3307Y-2.8937
X4.3701Y-3.2382
X4.3799Y-4.0846
X4.4291Y-2.8937
X4.498Y-2.9724
X4.498Y-3.1697
X4.5276Y-2.8937
X4.5561Y-4.0758
X4.5669Y-3.75
X4.5768Y-3.0413
X4.5896Y-4.0423
X4.5906Y-4.0787
X4.626Y-2.8937
X4.685Y-3.1697
X4.7244Y-2.8937
X4.7343Y-3.1697
X4.7736Y-3.0417
X4.7736Y-3.0909
X4.7736Y-3.7008
X4.8031Y-4.0846
X4.8228Y-2.8937
X4.872Y-3.4941
X4.872Y-3.5827
X4.9016Y-3.1598
X4.9016Y-3.1992
X4.9213Y-2.8937
X4.9902Y-3.4941
X4.9902Y-3.5827
X5.0098Y-4.1732
X5.0197Y-2.8937
X5.0591Y-3.7402
X5.1181Y-2.8937
X5.1969Y-3.189
X5.2067Y-3.3563
X5.2165Y-2.8937
X5.2559Y-3.2776
X5.315Y-3.9173
X5.3248Y-3.4547
X5.3543Y-4.1142
X5.374Y-3.0315
X5.3762Y-3.4016
X5.4134Y-3.7795
X5.4232Y-3.9862
X5.4823Y-3.5469
X5.5217Y-3.2776
X5.5512Y-3.9272
X5.561Y-3.3366
X5.5807Y-3.2382
X5.625Y-3.5876
X5.6398Y-3.4843
X5.6594Y-3.0512
X5.6791Y-2.9429
X5.6791Y-3.3661
X5.689Y-3.5024
X5.689Y-4.124
X5.7283Y-3.622
X5.7382Y-3.3661
X5.7382Y-3.435
X5.7579Y-2.9823
X5.7972Y-3.9173
X5.8071Y-3.6024
X5.8169Y-3.1201
X5.8476Y-3.7118
X5.8563Y-3.6614
X5.8563Y-3.9862
X5.9547Y-3.4055
X5.9646Y-4.0453
X5.9941Y-3.7697
X6.0138Y-3.622
X6.0433Y-4.0256
X6.0543Y-3.2787
X6.063Y-3.5827
X6.0925Y-3.4843
X6.1122Y-3.8189
X6.1376Y-3.9116
X6.1417Y-3.435
X6.1417Y-3.5236
X6.1417Y-3.7402
X6.1496Y-3.5984
X6.1577Y-3.9837
X6.1713Y-3.8287
X6.1902Y-4.0059
X6.25Y-3.9862
X6.2734Y-3.3502
X6.2783Y-3.5126
X6.2923Y-3.6154
X6.3366Y-3.3287
X6.3386Y-3.8484
X6.3583Y-3.1398
X6.3583Y-3.7293
X6.3681Y-3.4744
X6.378Y-2.8346
X6.378Y-4.0846
X6.3878Y-3.2776
X6.3976Y-3.3858
X6.4168Y-3.8194
X6.437Y-3.7303
X6.4469Y-3.8583
X6.4862Y-2.9724
X6.4961Y-4.3701
X6.5059Y-2.8346
X6.5157Y-3.7106
X6.5157Y-4.0157
X6.5453Y-3.2087
X6.5472Y-3.2874
X6.5642Y-3.5728
X6.5906Y-3.1575
X6.5906Y-3.3372
X6.5945Y-4.3701
X6.6043Y-3.6122
X6.6337Y-3.1579
X6.6339Y-3.7106
X6.6437Y-2.8346
X6.6634Y-2.9626
X6.6732Y-3.7795
X6.6732Y-4.1634
X6.7421Y-3.4252
X6.752Y-3.8189
X6.7815Y-2.8346
X6.8504Y-3.2677
X6.8504Y-3.376
X6.8553Y-3.0659
X6.8602Y-3.7205
X6.8701Y-3.5827
X6.9882Y-3.7992
X7.0374Y-3.8449
X7.0591Y-3.1614
X7.0866Y-4.0354
X7.0984Y-3.0433
X7.1477Y-3.7598
X7.1654Y-3.3307
X7.1811Y-3.2283
X7.185Y-4.252
X7.185Y-4.3701
X7.2146Y-3.0906
X7.2362Y-4.1102
X7.2835Y-4.3701
X7.3031Y-3.2972
X7.3327Y-3.6319
X7.372Y-3.189
X7.4173Y-4.1102
X7.5787Y-2.8937
X7.5787Y-4.3701
X7.6772Y-2.8937
X7.6772Y-4.3701
X7.7756Y-2.8937
X7.7756Y-4.3701
X7.874Y-2.8937
X7.874Y-4.3701
X7.9724Y-2.9921
X7.9724Y-3.0906
X7.9724Y-3.189
X7.9724Y-3.2874
X7.9724Y-3.3858
X7.9724Y-3.4843
X7.9724Y-3.5827
X7.9724Y-3.6811
X7.9724Y-3.7795
X7.9724Y-3.878
X7.9724Y-3.9764
X7.9724Y-4.0748
X7.9724Y-4.1732
T2
X7.6606Y-3.4136
X7.6606Y-3.5226
X7.6606Y-3.6317
X7.6606Y-3.7407
X7.6606Y-3.8498
X7.7606Y-3.4681
X7.7606Y-3.5772
X7.7606Y-3.6862
X7.7606Y-3.7953
T3
X7.7106Y-3.1398
X7.7106Y-4.1236
T0
M30
