%TF.GenerationSoftware,KiCad,Pcbnew,7.0.2*%
%TF.CreationDate,2023-06-17T11:36:00+01:00*%
%TF.ProjectId,serial_snooper,73657269-616c-45f7-936e-6f6f7065722e,rev?*%
%TF.SameCoordinates,Original*%
%TF.FileFunction,Copper,L2,Bot*%
%TF.FilePolarity,Positive*%
%FSLAX46Y46*%
G04 Gerber Fmt 4.6, Leading zero omitted, Abs format (unit mm)*
G04 Created by KiCad (PCBNEW 7.0.2) date 2023-06-17 11:36:00*
%MOMM*%
%LPD*%
G01*
G04 APERTURE LIST*
%TA.AperFunction,ComponentPad*%
%ADD10C,1.650000*%
%TD*%
%TA.AperFunction,ComponentPad*%
%ADD11C,4.800000*%
%TD*%
%TA.AperFunction,WasherPad*%
%ADD12C,1.000000*%
%TD*%
%TA.AperFunction,WasherPad*%
%ADD13C,1.300000*%
%TD*%
%TA.AperFunction,SMDPad,CuDef*%
%ADD14C,1.000000*%
%TD*%
%TA.AperFunction,ViaPad*%
%ADD15C,0.800000*%
%TD*%
%TA.AperFunction,Conductor*%
%ADD16C,0.500000*%
%TD*%
%TA.AperFunction,Conductor*%
%ADD17C,0.300000*%
%TD*%
G04 APERTURE END LIST*
D10*
%TO.P,J5,1,1*%
%TO.N,Net-(J5-Pad1)*%
X194580000Y-97785000D03*
%TO.P,J5,2,2*%
%TO.N,/RS232-UART/DB9_RXD*%
X194580000Y-95015000D03*
%TO.P,J5,3,3*%
%TO.N,/RS232-UART/DB9_TXD*%
X194580000Y-92245000D03*
%TO.P,J5,4,4*%
%TO.N,Net-(J5-Pad1)*%
X194580000Y-89475000D03*
%TO.P,J5,5,5*%
%TO.N,GND*%
X194580000Y-86705000D03*
%TO.P,J5,6,6*%
%TO.N,Net-(J5-Pad1)*%
X197120000Y-96400000D03*
%TO.P,J5,7,7*%
%TO.N,unconnected-(J5-Pad7)*%
X197120000Y-93630000D03*
%TO.P,J5,8,8*%
%TO.N,GND*%
X197120000Y-90860000D03*
%TO.P,J5,9,9*%
%TO.N,unconnected-(J5-Pad9)*%
X197120000Y-88090000D03*
D11*
%TO.P,J5,MH1,MH1*%
%TO.N,GND*%
X195850000Y-104740000D03*
%TO.P,J5,MH2,MH2*%
X195850000Y-79750000D03*
%TD*%
D12*
%TO.P,J8,*%
%TO.N,*%
X109285000Y-88550000D03*
X109285000Y-92950000D03*
%TD*%
D13*
%TO.P,H4,*%
%TO.N,*%
X106000000Y-73250000D03*
%TD*%
%TO.P,H1,*%
%TO.N,*%
X205000000Y-111500000D03*
%TD*%
%TO.P,H3,*%
%TO.N,*%
X106000000Y-111500000D03*
%TD*%
%TO.P,H2,*%
%TO.N,*%
X205000000Y-73250000D03*
%TD*%
D14*
%TO.P,TP6,1,1*%
%TO.N,/SPI1_MISO*%
X161750000Y-88250000D03*
%TD*%
%TO.P,TP9,1,1*%
%TO.N,/SPI1_MOSI*%
X160900000Y-84700000D03*
%TD*%
%TO.P,TP30,1,1*%
%TO.N,/I2C1_SDA*%
X145000000Y-91750000D03*
%TD*%
%TO.P,TP3,1,1*%
%TO.N,/SD-card-adapter/SD_CLK*%
X183000000Y-78500000D03*
%TD*%
%TO.P,TP22,1,1*%
%TO.N,/HSE_OUT*%
X156000000Y-99250000D03*
%TD*%
%TO.P,TP8,1,1*%
%TO.N,/SPI1_CLK*%
X166300000Y-83500000D03*
%TD*%
%TO.P,TP10,1,1*%
%TO.N,/SPI1_CS*%
X166900000Y-79900000D03*
%TD*%
%TO.P,TP27,1,1*%
%TO.N,/HSE_IN*%
X151500000Y-102750000D03*
%TD*%
%TO.P,TP29,1,1*%
%TO.N,/I2C1_SCL*%
X142900000Y-91000000D03*
%TD*%
%TO.P,TP5,1,1*%
%TO.N,/SD-card-adapter/SD_CS*%
X180100000Y-77300000D03*
%TD*%
%TO.P,TP2,1,1*%
%TO.N,/SD-card-adapter/SD_DO*%
X182500000Y-82100000D03*
%TD*%
%TO.P,TP4,1,1*%
%TO.N,/SD-card-adapter/SD_DI*%
X179250000Y-80250000D03*
%TD*%
%TO.P,TP33,1,1*%
%TO.N,/RealtimeClock/RTC_Vdd*%
X139250000Y-90250000D03*
%TD*%
D15*
%TO.N,GND*%
X161000000Y-97750000D03*
X172250000Y-72000000D03*
X136555000Y-86400500D03*
X127500000Y-73500000D03*
X141000000Y-99750000D03*
X126750000Y-88750000D03*
X117500000Y-73500000D03*
X136500000Y-77000000D03*
X154000000Y-91000000D03*
X116000000Y-95250000D03*
X165500000Y-102000000D03*
X202500000Y-91000000D03*
X125000000Y-73500000D03*
X107500000Y-78500000D03*
X167500000Y-111000000D03*
X123750000Y-88750000D03*
X114250000Y-75500000D03*
X121250000Y-94000000D03*
X186250000Y-92250000D03*
X107500000Y-76000000D03*
X122500000Y-73500000D03*
X162000000Y-103750000D03*
X202500000Y-76000000D03*
X111000000Y-82250000D03*
X202500000Y-106000000D03*
X185000000Y-111000000D03*
X188400000Y-104400000D03*
X182500000Y-108000000D03*
X169500000Y-105750000D03*
X171500000Y-97000000D03*
X132500000Y-73500000D03*
X144500000Y-104750000D03*
X164750000Y-75500000D03*
X155250000Y-97000000D03*
X121250000Y-78510000D03*
X202500000Y-103500000D03*
X112500000Y-73500000D03*
X137750000Y-101250000D03*
X107500000Y-98500000D03*
X197500000Y-73500000D03*
X111250000Y-103750000D03*
X165250000Y-72000000D03*
X200000000Y-73500000D03*
X147750000Y-79250000D03*
X171250000Y-87000000D03*
X146250000Y-75750000D03*
X185500000Y-83750000D03*
X130000000Y-73500000D03*
X122000000Y-103750000D03*
X202500000Y-86000000D03*
X202500000Y-98500000D03*
X202500000Y-93500000D03*
X107500000Y-81000000D03*
X183800000Y-104400000D03*
X192500000Y-111000000D03*
X115000000Y-73500000D03*
X107500000Y-108500000D03*
X135000000Y-99500000D03*
X182000000Y-84600000D03*
X152250000Y-95750000D03*
X168750000Y-72000000D03*
X162000000Y-72000000D03*
X114250000Y-80510000D03*
X133500000Y-83250000D03*
X107500000Y-103500000D03*
X202500000Y-81000000D03*
X147250000Y-99500000D03*
X148750000Y-101250000D03*
X119000000Y-80510000D03*
X136000000Y-104500000D03*
X120000000Y-73500000D03*
X126750000Y-91000000D03*
X137500000Y-96000000D03*
X165000000Y-111000000D03*
X169250000Y-75250000D03*
X161500000Y-79750000D03*
X195000000Y-73500000D03*
X174250000Y-94500000D03*
X181550500Y-95500000D03*
X120250000Y-80510000D03*
X182500000Y-111000000D03*
X107500000Y-83500000D03*
X202500000Y-83500000D03*
X197500000Y-111000000D03*
X110000000Y-73500000D03*
X132000000Y-81000000D03*
X202500000Y-96000000D03*
X159345023Y-85095023D03*
X168500000Y-94250000D03*
X187250000Y-81000000D03*
X195000000Y-111000000D03*
X153500000Y-102250000D03*
X107500000Y-106000000D03*
X202500000Y-101000000D03*
X192500000Y-73500000D03*
X202500000Y-78500000D03*
X123750000Y-91000000D03*
X124500000Y-81260000D03*
X107500000Y-101000000D03*
X121250000Y-77260000D03*
X202500000Y-88500000D03*
X200000000Y-111000000D03*
X124500000Y-80260000D03*
X116250000Y-77250000D03*
%TO.N,+3.3V*%
X148529977Y-94279977D03*
X135250000Y-87750000D03*
X143750000Y-77500000D03*
X180000000Y-102500000D03*
X145750000Y-87250000D03*
X174000000Y-83000000D03*
X141750000Y-82250000D03*
X116600000Y-103600000D03*
X144250000Y-74750000D03*
X128500000Y-95000000D03*
X147500000Y-91500000D03*
X144250000Y-85499500D03*
X163750000Y-98000000D03*
X161500000Y-94724500D03*
X116575000Y-102675000D03*
X127250000Y-106000000D03*
X167750000Y-91750000D03*
X174000000Y-85750000D03*
X115725000Y-103525000D03*
X132250000Y-85250000D03*
X174500000Y-91000000D03*
X163500000Y-94750000D03*
X169500000Y-96000000D03*
X174125000Y-77875000D03*
%TO.N,/RS232-UART/VS+*%
X178750000Y-97659500D03*
X177500000Y-96500000D03*
%TO.N,/NRST*%
X148750000Y-93000000D03*
X152750000Y-92000000D03*
%TO.N,/HSE_IN*%
X151500000Y-102750000D03*
%TO.N,/HSE_OUT*%
X155895023Y-99354977D03*
%TO.N,/RealtimeClock/RTC_Vdd*%
X139250000Y-90090000D03*
%TO.N,/SD-card-adapter/SD_CS*%
X158750000Y-101250000D03*
X157230500Y-101750000D03*
X180300000Y-77300000D03*
X168497215Y-80210500D03*
X165500000Y-94250000D03*
X166730822Y-90749500D03*
X162987701Y-97012299D03*
%TO.N,/SD-card-adapter/SD_CLK*%
X183250000Y-78500000D03*
%TO.N,/SPI1_CLK*%
X166300000Y-83500000D03*
%TO.N,/SD-card-adapter/SD_DI*%
X179300000Y-80300000D03*
%TO.N,/SPI1_MOSI*%
X160950000Y-84550000D03*
X162250000Y-83250000D03*
X166250000Y-81500000D03*
%TO.N,/SPI1_CS*%
X167400000Y-84765000D03*
X167400000Y-80200000D03*
%TO.N,Net-(IC1-6Y)*%
X162500000Y-86000000D03*
X156405700Y-101185455D03*
%TO.N,/TIM2_CH2*%
X156000000Y-95000000D03*
X156750000Y-97250000D03*
%TO.N,/SD-card-adapter/SD_DO*%
X182400000Y-82000000D03*
%TO.N,/DIPSWITCH_3*%
X156000000Y-89500000D03*
X144500000Y-88960500D03*
%TO.N,/DIPSWITCH_2*%
X145750000Y-85500000D03*
X156000000Y-87250000D03*
%TO.N,/COMMS_LED*%
X140250000Y-83250000D03*
X153779977Y-83279977D03*
%TO.N,/STATUS_LED*%
X141250000Y-84750000D03*
X151250000Y-86500000D03*
%TO.N,/I2C1_SCL*%
X142875000Y-91125000D03*
%TO.N,/I2C1_SDA*%
X145500000Y-92000000D03*
%TO.N,/SPI1_MISO*%
X159470023Y-89220023D03*
X161750000Y-88250000D03*
%TO.N,/CARD_DETECT*%
X159824612Y-91830081D03*
X156200000Y-91400000D03*
%TO.N,/RTC_IRQ*%
X154750000Y-88500000D03*
X143250000Y-88500000D03*
%TD*%
D16*
%TO.N,+3.3V*%
X116525000Y-103525000D02*
X116600000Y-103600000D01*
X144000000Y-87250000D02*
X143250000Y-87250000D01*
X161500000Y-96726680D02*
X161500000Y-94724500D01*
X175250000Y-102500000D02*
X180000000Y-102500000D01*
X145750000Y-87250000D02*
X144000000Y-87250000D01*
X174000000Y-85750000D02*
X174000000Y-83000000D01*
X140700000Y-90850610D02*
X140700000Y-89800000D01*
X119000000Y-106000000D02*
X127250000Y-106000000D01*
X134750000Y-87750000D02*
X135250000Y-87750000D01*
X174000000Y-78000000D02*
X174125000Y-77875000D01*
X141750000Y-82250000D02*
X141750000Y-79500000D01*
X116300000Y-102950000D02*
X116300000Y-103525000D01*
X144250000Y-85499500D02*
X144250000Y-86250000D01*
X162773320Y-98000000D02*
X161500000Y-96726680D01*
X116575000Y-102675000D02*
X116300000Y-102950000D01*
X143750000Y-86750000D02*
X143250000Y-87250000D01*
X174000000Y-83000000D02*
X174000000Y-78000000D01*
X135250000Y-87750000D02*
X142750000Y-87750000D01*
X143750000Y-75250000D02*
X144250000Y-74750000D01*
X161500000Y-94724500D02*
X163474500Y-94724500D01*
X140550000Y-91000610D02*
X140700000Y-90850610D01*
X134750000Y-95000000D02*
X135750000Y-94000000D01*
X174500000Y-91000000D02*
X174000000Y-90500000D01*
X115725000Y-103525000D02*
X116300000Y-103525000D01*
X140550000Y-92100610D02*
X140550000Y-91000610D01*
X147500000Y-91500000D02*
X147500000Y-93250000D01*
X135750000Y-94000000D02*
X138650610Y-94000000D01*
X144250000Y-86250000D02*
X143750000Y-86750000D01*
X163474500Y-94724500D02*
X163500000Y-94750000D01*
X138650610Y-94000000D02*
X140550000Y-92100610D01*
X132250000Y-85250000D02*
X134750000Y-87750000D01*
X128500000Y-95000000D02*
X134750000Y-95000000D01*
X116600000Y-103600000D02*
X119000000Y-106000000D01*
X163750000Y-98000000D02*
X162773320Y-98000000D01*
X166500000Y-91750000D02*
X163500000Y-94750000D01*
X116300000Y-103525000D02*
X116525000Y-103525000D01*
X147500000Y-93250000D02*
X141699390Y-93250000D01*
X147500000Y-93250000D02*
X148529977Y-94279977D01*
X141750000Y-79500000D02*
X143750000Y-77500000D01*
X142750000Y-87750000D02*
X143250000Y-87250000D01*
X140700000Y-89800000D02*
X143250000Y-87250000D01*
X174000000Y-90500000D02*
X174000000Y-85750000D01*
X167750000Y-91750000D02*
X166500000Y-91750000D01*
X141699390Y-93250000D02*
X140550000Y-92100610D01*
X169500000Y-96750000D02*
X175250000Y-102500000D01*
X169500000Y-96000000D02*
X169500000Y-96750000D01*
X143750000Y-77500000D02*
X143750000Y-75250000D01*
D17*
%TO.N,/RS232-UART/VS+*%
X178659500Y-97659500D02*
X178750000Y-97659500D01*
X177500000Y-96500000D02*
X178659500Y-97659500D01*
%TO.N,/NRST*%
X152750000Y-92000000D02*
X152000000Y-91250000D01*
X150500000Y-91250000D02*
X148750000Y-93000000D01*
X152000000Y-91250000D02*
X150500000Y-91250000D01*
%TO.N,/SD-card-adapter/SD_CS*%
X158250000Y-101750000D02*
X158750000Y-101250000D01*
X168497215Y-88983107D02*
X168497215Y-80210500D01*
X166730822Y-90749500D02*
X168497215Y-88983107D01*
X157230500Y-101750000D02*
X158250000Y-101750000D01*
X165500000Y-94500000D02*
X165500000Y-94250000D01*
X162987701Y-97012299D02*
X165500000Y-94500000D01*
%TO.N,/SPI1_MOSI*%
X166250000Y-81500000D02*
X164000000Y-81500000D01*
X164000000Y-81500000D02*
X162250000Y-83250000D01*
%TO.N,/SPI1_CS*%
X167900000Y-84265000D02*
X167400000Y-84765000D01*
X167400000Y-80200000D02*
X167900000Y-80700000D01*
X167900000Y-80700000D02*
X167900000Y-84265000D01*
%TO.N,Net-(IC1-6Y)*%
X162400000Y-86100000D02*
X162500000Y-86000000D01*
X162400000Y-86900000D02*
X162400000Y-86100000D01*
X156405700Y-101185455D02*
X157350000Y-100241155D01*
X163100000Y-87600000D02*
X162400000Y-86900000D01*
X161000000Y-93000000D02*
X163100000Y-90900000D01*
X160750000Y-94413839D02*
X161000000Y-94163839D01*
X157350000Y-100241155D02*
X157350000Y-99400000D01*
X160750000Y-96000000D02*
X160750000Y-94413839D01*
X161000000Y-94163839D02*
X161000000Y-93000000D01*
X163100000Y-90900000D02*
X163100000Y-87600000D01*
X157350000Y-99400000D02*
X160750000Y-96000000D01*
%TO.N,/TIM2_CH2*%
X156750000Y-97250000D02*
X156500000Y-97000000D01*
X156500000Y-97000000D02*
X156500000Y-95500000D01*
X156500000Y-95500000D02*
X156000000Y-95000000D01*
%TO.N,/DIPSWITCH_3*%
X155750000Y-89750000D02*
X156000000Y-89500000D01*
X145289500Y-89750000D02*
X155750000Y-89750000D01*
X144500000Y-88960500D02*
X145289500Y-89750000D01*
%TO.N,/DIPSWITCH_2*%
X147500000Y-87250000D02*
X156000000Y-87250000D01*
X145750000Y-85500000D02*
X147500000Y-87250000D01*
%TO.N,/COMMS_LED*%
X153750000Y-83250000D02*
X140250000Y-83250000D01*
X153779977Y-83279977D02*
X153750000Y-83250000D01*
%TO.N,/STATUS_LED*%
X141250000Y-84750000D02*
X149500000Y-84750000D01*
X149500000Y-84750000D02*
X151250000Y-86500000D01*
%TO.N,/SPI1_MISO*%
X160779977Y-89220023D02*
X161750000Y-88250000D01*
X159470023Y-89220023D02*
X160779977Y-89220023D01*
%TO.N,/CARD_DETECT*%
X156630081Y-91830081D02*
X159824612Y-91830081D01*
X156200000Y-91400000D02*
X156630081Y-91830081D01*
%TO.N,/RTC_IRQ*%
X154500000Y-88250000D02*
X144850161Y-88250000D01*
X144149839Y-88250000D02*
X143500000Y-88250000D01*
X143500000Y-88250000D02*
X143250000Y-88500000D01*
X144189339Y-88210500D02*
X144149839Y-88250000D01*
X144850161Y-88250000D02*
X144810661Y-88210500D01*
X144810661Y-88210500D02*
X144189339Y-88210500D01*
X154750000Y-88500000D02*
X154500000Y-88250000D01*
%TD*%
%TA.AperFunction,Conductor*%
%TO.N,GND*%
G36*
X205003736Y-70750726D02*
G01*
X205098917Y-70756483D01*
X205298071Y-70769536D01*
X205302804Y-70769847D01*
X205317030Y-70771610D01*
X205449215Y-70795834D01*
X205612445Y-70828302D01*
X205625107Y-70831525D01*
X205759678Y-70873459D01*
X205762645Y-70874425D01*
X205912220Y-70925199D01*
X205923244Y-70929538D01*
X206054556Y-70988637D01*
X206058416Y-70990457D01*
X206197458Y-71059025D01*
X206206762Y-71064119D01*
X206263529Y-71098436D01*
X206331185Y-71139335D01*
X206335926Y-71142350D01*
X206463643Y-71227689D01*
X206471225Y-71233180D01*
X206586211Y-71323265D01*
X206591487Y-71327640D01*
X206706550Y-71428547D01*
X206712472Y-71434094D01*
X206815904Y-71537526D01*
X206821451Y-71543448D01*
X206922358Y-71658511D01*
X206926741Y-71663797D01*
X207016818Y-71778773D01*
X207022309Y-71786355D01*
X207107648Y-71914072D01*
X207110663Y-71918813D01*
X207185878Y-72043234D01*
X207190973Y-72052540D01*
X207259519Y-72191536D01*
X207261383Y-72195489D01*
X207320458Y-72326750D01*
X207324801Y-72337783D01*
X207375573Y-72487353D01*
X207376539Y-72490320D01*
X207418470Y-72624878D01*
X207421702Y-72637578D01*
X207454167Y-72800790D01*
X207478388Y-72932959D01*
X207480152Y-72947188D01*
X207493517Y-73151100D01*
X207499274Y-73246265D01*
X207499500Y-73253751D01*
X207499500Y-111496247D01*
X207499274Y-111503735D01*
X207493517Y-111598899D01*
X207480151Y-111802804D01*
X207478386Y-111817044D01*
X207454167Y-111949208D01*
X207421701Y-112112425D01*
X207418471Y-112125115D01*
X207376539Y-112259678D01*
X207375573Y-112262645D01*
X207324801Y-112412215D01*
X207320458Y-112423248D01*
X207261383Y-112554509D01*
X207259519Y-112558462D01*
X207190973Y-112697458D01*
X207185878Y-112706764D01*
X207110663Y-112831185D01*
X207107648Y-112835926D01*
X207022309Y-112963643D01*
X207016818Y-112971225D01*
X206926741Y-113086201D01*
X206922358Y-113091487D01*
X206821451Y-113206550D01*
X206815904Y-113212472D01*
X206712472Y-113315904D01*
X206706550Y-113321451D01*
X206591487Y-113422358D01*
X206586201Y-113426741D01*
X206471225Y-113516818D01*
X206463643Y-113522309D01*
X206335926Y-113607648D01*
X206331185Y-113610663D01*
X206206764Y-113685878D01*
X206197458Y-113690973D01*
X206058462Y-113759519D01*
X206054509Y-113761383D01*
X205923248Y-113820458D01*
X205912215Y-113824801D01*
X205762645Y-113875573D01*
X205759678Y-113876539D01*
X205625120Y-113918470D01*
X205612420Y-113921702D01*
X205449209Y-113954167D01*
X205317038Y-113978388D01*
X205302810Y-113980152D01*
X205098899Y-113993517D01*
X205003735Y-113999274D01*
X204996249Y-113999500D01*
X106003749Y-113999500D01*
X105996263Y-113999274D01*
X105901007Y-113993513D01*
X105697300Y-113980166D01*
X105683063Y-113978401D01*
X105550894Y-113954188D01*
X105387758Y-113921749D01*
X105375073Y-113918521D01*
X105240549Y-113876616D01*
X105237596Y-113875655D01*
X105088038Y-113824905D01*
X105077021Y-113820568D01*
X104945827Y-113761543D01*
X104941875Y-113759681D01*
X104802875Y-113691158D01*
X104793572Y-113686066D01*
X104669199Y-113610910D01*
X104664458Y-113607897D01*
X104664085Y-113607648D01*
X104627366Y-113583122D01*
X104536768Y-113522611D01*
X104529187Y-113517123D01*
X104414187Y-113427065D01*
X104408903Y-113422685D01*
X104293902Y-113321879D01*
X104287979Y-113316335D01*
X104184515Y-113212922D01*
X104178969Y-113207003D01*
X104078095Y-113092040D01*
X104073713Y-113086758D01*
X103983612Y-112971822D01*
X103978126Y-112964253D01*
X103892750Y-112836564D01*
X103889763Y-112831869D01*
X103814525Y-112707500D01*
X103809428Y-112698199D01*
X103809062Y-112697458D01*
X103740855Y-112559269D01*
X103738991Y-112555319D01*
X103679891Y-112424133D01*
X103675544Y-112413105D01*
X103624693Y-112263494D01*
X103623771Y-112260665D01*
X103581785Y-112126116D01*
X103578555Y-112113449D01*
X103546040Y-111950357D01*
X103521752Y-111818151D01*
X103519984Y-111803939D01*
X103519909Y-111802804D01*
X103506537Y-111600275D01*
X103500729Y-111504996D01*
X103500577Y-111500000D01*
X104844571Y-111500000D01*
X104864243Y-111712310D01*
X104922595Y-111917390D01*
X105017631Y-112108252D01*
X105134866Y-112263494D01*
X105146128Y-112278407D01*
X105303698Y-112422052D01*
X105484981Y-112534298D01*
X105683802Y-112611321D01*
X105893390Y-112650500D01*
X105893392Y-112650500D01*
X106106608Y-112650500D01*
X106106610Y-112650500D01*
X106316198Y-112611321D01*
X106515019Y-112534298D01*
X106696302Y-112422052D01*
X106853872Y-112278407D01*
X106982366Y-112108255D01*
X106982366Y-112108253D01*
X106982368Y-112108252D01*
X107030080Y-112012430D01*
X107077405Y-111917389D01*
X107135756Y-111712310D01*
X107155429Y-111500000D01*
X203844571Y-111500000D01*
X203864243Y-111712310D01*
X203922595Y-111917390D01*
X204017631Y-112108252D01*
X204134866Y-112263494D01*
X204146128Y-112278407D01*
X204303698Y-112422052D01*
X204484981Y-112534298D01*
X204683802Y-112611321D01*
X204893390Y-112650500D01*
X204893392Y-112650500D01*
X205106608Y-112650500D01*
X205106610Y-112650500D01*
X205316198Y-112611321D01*
X205515019Y-112534298D01*
X205696302Y-112422052D01*
X205853872Y-112278407D01*
X205982366Y-112108255D01*
X205982366Y-112108253D01*
X205982368Y-112108252D01*
X206030080Y-112012430D01*
X206077405Y-111917389D01*
X206135756Y-111712310D01*
X206155429Y-111500000D01*
X206135756Y-111287690D01*
X206077405Y-111082611D01*
X206077014Y-111081827D01*
X205982368Y-110891747D01*
X205853873Y-110721594D01*
X205696301Y-110577947D01*
X205515017Y-110465701D01*
X205316198Y-110388679D01*
X205316197Y-110388678D01*
X205106610Y-110349500D01*
X204893390Y-110349500D01*
X204753664Y-110375619D01*
X204683801Y-110388679D01*
X204484982Y-110465701D01*
X204303698Y-110577947D01*
X204146126Y-110721594D01*
X204017631Y-110891747D01*
X203922595Y-111082609D01*
X203864243Y-111287689D01*
X203844571Y-111500000D01*
X107155429Y-111500000D01*
X107135756Y-111287690D01*
X107077405Y-111082611D01*
X107077014Y-111081827D01*
X106982368Y-110891747D01*
X106853873Y-110721594D01*
X106696301Y-110577947D01*
X106515017Y-110465701D01*
X106316198Y-110388679D01*
X106316197Y-110388679D01*
X106106610Y-110349500D01*
X105893390Y-110349500D01*
X105753664Y-110375619D01*
X105683801Y-110388679D01*
X105484982Y-110465701D01*
X105303698Y-110577947D01*
X105146126Y-110721594D01*
X105017631Y-110891747D01*
X104922595Y-111082609D01*
X104864243Y-111287689D01*
X104844571Y-111500000D01*
X103500577Y-111500000D01*
X103500500Y-111497479D01*
X103502828Y-103525000D01*
X114819540Y-103525000D01*
X114839326Y-103713257D01*
X114897820Y-103893284D01*
X114992466Y-104057216D01*
X115119129Y-104197889D01*
X115272269Y-104309151D01*
X115445197Y-104386144D01*
X115630352Y-104425500D01*
X115630354Y-104425500D01*
X115819648Y-104425500D01*
X116004801Y-104386145D01*
X116021183Y-104378851D01*
X116029432Y-104375177D01*
X116098682Y-104365891D01*
X116134562Y-104380652D01*
X116135364Y-104378851D01*
X116320193Y-104461143D01*
X116320196Y-104461143D01*
X116320197Y-104461144D01*
X116385329Y-104474987D01*
X116446808Y-104508178D01*
X116447228Y-104508596D01*
X118424267Y-106485634D01*
X118436048Y-106499266D01*
X118450389Y-106518529D01*
X118488339Y-106550373D01*
X118496314Y-106557681D01*
X118500224Y-106561591D01*
X118503056Y-106563830D01*
X118524541Y-106580818D01*
X118527304Y-106583069D01*
X118584786Y-106631302D01*
X118584788Y-106631303D01*
X118585750Y-106632110D01*
X118602180Y-106642578D01*
X118603322Y-106643110D01*
X118603323Y-106643111D01*
X118671350Y-106674832D01*
X118674527Y-106676371D01*
X118741567Y-106710040D01*
X118742702Y-106710610D01*
X118761085Y-106716999D01*
X118762322Y-106717254D01*
X118762328Y-106717257D01*
X118835852Y-106732437D01*
X118839286Y-106733199D01*
X118885566Y-106744168D01*
X118913506Y-106750791D01*
X118932879Y-106752770D01*
X118934141Y-106752733D01*
X118934145Y-106752734D01*
X119006534Y-106750627D01*
X119009132Y-106750552D01*
X119012738Y-106750500D01*
X126710663Y-106750500D01*
X126777702Y-106770185D01*
X126783550Y-106774183D01*
X126797271Y-106784152D01*
X126970197Y-106861144D01*
X127155352Y-106900500D01*
X127155354Y-106900500D01*
X127344648Y-106900500D01*
X127468084Y-106874262D01*
X127529803Y-106861144D01*
X127702730Y-106784151D01*
X127721953Y-106770185D01*
X127855870Y-106672889D01*
X127936719Y-106583098D01*
X127982533Y-106532216D01*
X128077179Y-106368284D01*
X128135674Y-106188256D01*
X128155460Y-106000000D01*
X128135674Y-105811744D01*
X128077179Y-105631716D01*
X128077179Y-105631715D01*
X127982533Y-105467783D01*
X127855870Y-105327110D01*
X127702730Y-105215848D01*
X127529802Y-105138855D01*
X127344648Y-105099500D01*
X127344646Y-105099500D01*
X127155354Y-105099500D01*
X127155352Y-105099500D01*
X126970197Y-105138855D01*
X126797271Y-105215847D01*
X126783550Y-105225817D01*
X126717744Y-105249298D01*
X126710663Y-105249500D01*
X119362229Y-105249500D01*
X119295190Y-105229815D01*
X119274548Y-105213181D01*
X118804972Y-104743605D01*
X192945295Y-104743605D01*
X192964516Y-105073626D01*
X192965355Y-105080805D01*
X193022759Y-105406362D01*
X193024421Y-105413375D01*
X193119241Y-105730093D01*
X193121698Y-105736842D01*
X193252644Y-106040412D01*
X193255877Y-106046848D01*
X193421170Y-106333145D01*
X193425137Y-106339177D01*
X193622545Y-106604340D01*
X193626907Y-106609538D01*
X194552265Y-105684179D01*
X194715130Y-105874870D01*
X194905819Y-106037733D01*
X193983799Y-106959753D01*
X194112556Y-107067793D01*
X194118309Y-107072076D01*
X194394525Y-107253745D01*
X194400774Y-107257353D01*
X194696184Y-107405714D01*
X194702823Y-107408577D01*
X195013471Y-107521644D01*
X195020368Y-107523709D01*
X195342066Y-107599953D01*
X195349140Y-107601200D01*
X195677523Y-107639582D01*
X195684693Y-107640000D01*
X196015307Y-107640000D01*
X196022476Y-107639582D01*
X196350859Y-107601200D01*
X196357933Y-107599953D01*
X196679631Y-107523709D01*
X196686528Y-107521644D01*
X196997176Y-107408577D01*
X197003815Y-107405714D01*
X197299225Y-107257353D01*
X197305474Y-107253745D01*
X197581692Y-107072074D01*
X197587451Y-107067787D01*
X197716199Y-106959754D01*
X197716200Y-106959753D01*
X196794180Y-106037733D01*
X196984870Y-105874870D01*
X197147733Y-105684180D01*
X198073090Y-106609537D01*
X198077460Y-106604333D01*
X198274862Y-106339177D01*
X198278829Y-106333145D01*
X198444122Y-106046848D01*
X198447355Y-106040412D01*
X198578301Y-105736842D01*
X198580758Y-105730093D01*
X198675578Y-105413375D01*
X198677240Y-105406362D01*
X198734644Y-105080805D01*
X198735483Y-105073626D01*
X198754705Y-104743605D01*
X198754705Y-104736394D01*
X198735483Y-104406373D01*
X198734644Y-104399194D01*
X198677240Y-104073637D01*
X198675578Y-104066624D01*
X198580758Y-103749906D01*
X198578301Y-103743157D01*
X198447355Y-103439587D01*
X198444122Y-103433151D01*
X198278829Y-103146854D01*
X198274862Y-103140822D01*
X198077449Y-102875652D01*
X198073092Y-102870460D01*
X197147733Y-103795818D01*
X196984870Y-103605130D01*
X196794179Y-103442266D01*
X197716200Y-102520245D01*
X197716200Y-102520244D01*
X197587452Y-102412213D01*
X197581690Y-102407923D01*
X197305474Y-102226254D01*
X197299225Y-102222646D01*
X197003815Y-102074285D01*
X196997176Y-102071422D01*
X196686528Y-101958355D01*
X196679631Y-101956290D01*
X196357933Y-101880046D01*
X196350859Y-101878799D01*
X196022476Y-101840417D01*
X196015307Y-101840000D01*
X195684693Y-101840000D01*
X195677523Y-101840417D01*
X195349140Y-101878799D01*
X195342066Y-101880046D01*
X195020368Y-101956290D01*
X195013471Y-101958355D01*
X194702823Y-102071422D01*
X194696184Y-102074285D01*
X194400774Y-102222646D01*
X194394525Y-102226254D01*
X194118309Y-102407923D01*
X194112547Y-102412213D01*
X193983798Y-102520244D01*
X194905820Y-103442266D01*
X194715130Y-103605130D01*
X194552266Y-103795819D01*
X193626906Y-102870460D01*
X193622552Y-102875649D01*
X193425137Y-103140822D01*
X193421170Y-103146854D01*
X193255877Y-103433151D01*
X193252644Y-103439587D01*
X193121698Y-103743157D01*
X193119241Y-103749906D01*
X193024421Y-104066624D01*
X193022759Y-104073637D01*
X192965355Y-104399194D01*
X192964516Y-104406373D01*
X192945295Y-104736394D01*
X192945295Y-104743605D01*
X118804972Y-104743605D01*
X117512771Y-103451403D01*
X117482521Y-103402040D01*
X117427179Y-103231715D01*
X117396079Y-103177849D01*
X117379606Y-103109949D01*
X117396080Y-103053848D01*
X117398086Y-103050373D01*
X117402179Y-103043284D01*
X117460674Y-102863256D01*
X117472577Y-102750000D01*
X150494659Y-102750000D01*
X150513976Y-102946133D01*
X150571185Y-103134726D01*
X150634262Y-103252734D01*
X150664090Y-103308538D01*
X150789117Y-103460883D01*
X150941462Y-103585910D01*
X151115273Y-103678814D01*
X151303868Y-103736024D01*
X151500000Y-103755341D01*
X151696132Y-103736024D01*
X151884727Y-103678814D01*
X152058538Y-103585910D01*
X152210883Y-103460883D01*
X152335910Y-103308538D01*
X152428814Y-103134727D01*
X152486024Y-102946132D01*
X152505341Y-102750000D01*
X152486024Y-102553868D01*
X152428814Y-102365273D01*
X152335910Y-102191462D01*
X152210883Y-102039117D01*
X152126484Y-101969852D01*
X152087151Y-101912107D01*
X152085280Y-101842262D01*
X152121468Y-101782494D01*
X152184224Y-101751778D01*
X152205150Y-101750000D01*
X154750000Y-101750000D01*
X154750000Y-99441748D01*
X154769685Y-99374709D01*
X154822489Y-99328954D01*
X154838064Y-99326714D01*
X154784003Y-99295288D01*
X154752172Y-99233090D01*
X154750000Y-99209985D01*
X154750000Y-98000000D01*
X150500000Y-98000000D01*
X150500000Y-101750000D01*
X150794850Y-101750000D01*
X150861889Y-101769685D01*
X150907644Y-101822489D01*
X150917588Y-101891647D01*
X150888563Y-101955203D01*
X150873515Y-101969853D01*
X150789117Y-102039117D01*
X150664089Y-102191463D01*
X150571185Y-102365273D01*
X150513976Y-102553866D01*
X150494659Y-102750000D01*
X117472577Y-102750000D01*
X117480460Y-102675000D01*
X117460674Y-102486744D01*
X117421478Y-102366111D01*
X117402179Y-102306715D01*
X117307533Y-102142783D01*
X117180870Y-102002110D01*
X117027730Y-101890848D01*
X116854802Y-101813855D01*
X116669648Y-101774500D01*
X116669646Y-101774500D01*
X116480354Y-101774500D01*
X116480352Y-101774500D01*
X116295197Y-101813855D01*
X116122269Y-101890848D01*
X115969129Y-102002110D01*
X115842466Y-102142783D01*
X115747820Y-102306715D01*
X115685299Y-102499138D01*
X115681415Y-102497876D01*
X115672168Y-102520328D01*
X115675196Y-102521850D01*
X115669414Y-102533358D01*
X115657419Y-102552185D01*
X115649093Y-102570041D01*
X115602919Y-102622479D01*
X115562493Y-102638923D01*
X115445197Y-102663855D01*
X115272269Y-102740848D01*
X115119129Y-102852110D01*
X114992466Y-102992783D01*
X114897820Y-103156715D01*
X114839326Y-103336742D01*
X114819540Y-103525000D01*
X103502828Y-103525000D01*
X103505317Y-95000000D01*
X127594540Y-95000000D01*
X127596117Y-95015000D01*
X127614326Y-95188257D01*
X127672820Y-95368284D01*
X127767466Y-95532216D01*
X127894129Y-95672889D01*
X128047269Y-95784151D01*
X128220197Y-95861144D01*
X128405352Y-95900500D01*
X128405354Y-95900500D01*
X128594648Y-95900500D01*
X128718084Y-95874262D01*
X128779803Y-95861144D01*
X128952730Y-95784151D01*
X128966449Y-95774183D01*
X129032256Y-95750702D01*
X129039337Y-95750500D01*
X134686294Y-95750500D01*
X134704264Y-95751809D01*
X134708320Y-95752402D01*
X134728023Y-95755289D01*
X134777368Y-95750972D01*
X134788176Y-95750500D01*
X134790100Y-95750500D01*
X134793709Y-95750500D01*
X134824550Y-95746894D01*
X134828031Y-95746539D01*
X134902797Y-95739999D01*
X134902797Y-95739998D01*
X134904052Y-95739889D01*
X134923062Y-95735674D01*
X134924250Y-95735241D01*
X134924255Y-95735241D01*
X134994820Y-95709557D01*
X134998095Y-95708419D01*
X135069334Y-95684814D01*
X135069336Y-95684812D01*
X135070536Y-95684415D01*
X135088063Y-95675929D01*
X135089112Y-95675238D01*
X135089117Y-95675237D01*
X135151806Y-95634005D01*
X135154798Y-95632099D01*
X135218656Y-95592712D01*
X135218658Y-95592709D01*
X135219731Y-95592048D01*
X135234817Y-95579760D01*
X135235691Y-95578832D01*
X135235696Y-95578830D01*
X135287217Y-95524218D01*
X135289632Y-95521733D01*
X136024547Y-94786819D01*
X136085871Y-94753334D01*
X136112229Y-94750500D01*
X138586904Y-94750500D01*
X138604874Y-94751809D01*
X138608930Y-94752402D01*
X138628633Y-94755289D01*
X138677978Y-94750972D01*
X138688786Y-94750500D01*
X138690710Y-94750500D01*
X138694319Y-94750500D01*
X138725160Y-94746894D01*
X138728641Y-94746539D01*
X138803407Y-94739999D01*
X138803407Y-94739998D01*
X138804662Y-94739889D01*
X138823672Y-94735674D01*
X138824860Y-94735241D01*
X138824865Y-94735241D01*
X138895430Y-94709557D01*
X138898705Y-94708419D01*
X138969944Y-94684814D01*
X138969946Y-94684812D01*
X138971146Y-94684415D01*
X138988673Y-94675929D01*
X138989722Y-94675238D01*
X138989727Y-94675237D01*
X139052416Y-94634005D01*
X139055408Y-94632099D01*
X139119266Y-94592712D01*
X139119266Y-94592711D01*
X139120339Y-94592050D01*
X139135434Y-94579753D01*
X139136302Y-94578832D01*
X139136306Y-94578830D01*
X139187794Y-94524254D01*
X139190239Y-94521737D01*
X140462322Y-93249655D01*
X140523641Y-93216173D01*
X140593333Y-93221157D01*
X140637680Y-93249658D01*
X141123659Y-93735637D01*
X141135441Y-93749270D01*
X141149780Y-93768531D01*
X141187728Y-93800373D01*
X141195703Y-93807681D01*
X141199613Y-93811591D01*
X141223946Y-93830830D01*
X141226725Y-93833095D01*
X141285142Y-93882113D01*
X141301569Y-93892578D01*
X141370710Y-93924819D01*
X141373957Y-93926391D01*
X141442089Y-93960609D01*
X141460477Y-93967000D01*
X141461713Y-93967255D01*
X141461717Y-93967257D01*
X141535285Y-93982447D01*
X141538632Y-93983189D01*
X141611669Y-94000500D01*
X141611671Y-94000500D01*
X141612899Y-94000791D01*
X141632268Y-94002770D01*
X141633530Y-94002733D01*
X141633534Y-94002734D01*
X141705923Y-94000627D01*
X141708521Y-94000552D01*
X141712127Y-94000500D01*
X147137770Y-94000500D01*
X147204809Y-94020185D01*
X147225451Y-94036819D01*
X147617205Y-94428572D01*
X147647455Y-94477935D01*
X147702797Y-94648261D01*
X147797443Y-94812193D01*
X147924106Y-94952866D01*
X148077246Y-95064128D01*
X148250174Y-95141121D01*
X148435329Y-95180477D01*
X148435331Y-95180477D01*
X148624625Y-95180477D01*
X148748060Y-95154239D01*
X148809780Y-95141121D01*
X148982707Y-95064128D01*
X149023970Y-95034149D01*
X149135847Y-94952866D01*
X149262510Y-94812193D01*
X149357156Y-94648261D01*
X149377744Y-94584898D01*
X149415651Y-94468233D01*
X149435437Y-94279977D01*
X149415651Y-94091721D01*
X149381261Y-93985879D01*
X149357157Y-93911695D01*
X149357156Y-93911693D01*
X149315469Y-93839489D01*
X149298997Y-93771592D01*
X149321849Y-93705564D01*
X149349972Y-93677173D01*
X149355871Y-93672888D01*
X149482533Y-93532216D01*
X149577179Y-93368284D01*
X149591320Y-93324763D01*
X149635674Y-93188257D01*
X149647064Y-93079882D01*
X149649168Y-93059855D01*
X149675752Y-92995242D01*
X149684799Y-92985145D01*
X150733125Y-91936819D01*
X150794449Y-91903334D01*
X150820807Y-91900500D01*
X151679192Y-91900500D01*
X151746231Y-91920185D01*
X151766873Y-91936819D01*
X151815191Y-91985137D01*
X151848676Y-92046460D01*
X151850830Y-92059851D01*
X151856085Y-92109848D01*
X151864326Y-92188257D01*
X151922820Y-92368284D01*
X152017466Y-92532216D01*
X152144129Y-92672889D01*
X152297269Y-92784151D01*
X152470197Y-92861144D01*
X152655352Y-92900500D01*
X152655354Y-92900500D01*
X152844648Y-92900500D01*
X152997858Y-92867934D01*
X153029803Y-92861144D01*
X153202730Y-92784151D01*
X153299979Y-92713496D01*
X153355870Y-92672889D01*
X153361861Y-92666236D01*
X153482533Y-92532216D01*
X153577179Y-92368284D01*
X153635674Y-92188256D01*
X153655460Y-92000000D01*
X153635674Y-91811744D01*
X153596087Y-91689908D01*
X153577179Y-91631715D01*
X153482533Y-91467783D01*
X153355870Y-91327110D01*
X153202730Y-91215848D01*
X153029802Y-91138855D01*
X152844648Y-91099500D01*
X152844646Y-91099500D01*
X152820808Y-91099500D01*
X152753769Y-91079815D01*
X152733127Y-91063181D01*
X152520434Y-90850488D01*
X152507091Y-90833833D01*
X152454166Y-90784134D01*
X152451369Y-90781423D01*
X152433789Y-90763843D01*
X152431035Y-90761089D01*
X152427956Y-90758701D01*
X152427951Y-90758696D01*
X152427548Y-90758383D01*
X152418669Y-90750800D01*
X152414672Y-90747047D01*
X152385393Y-90719552D01*
X152385392Y-90719551D01*
X152366793Y-90709326D01*
X152350532Y-90698645D01*
X152333764Y-90685638D01*
X152310177Y-90675431D01*
X152291869Y-90667508D01*
X152281379Y-90662369D01*
X152228251Y-90633162D01*
X152178987Y-90583616D01*
X152164330Y-90515301D01*
X152188933Y-90449907D01*
X152244986Y-90408195D01*
X152287988Y-90400500D01*
X155662039Y-90400500D01*
X155729078Y-90420185D01*
X155774833Y-90472989D01*
X155784777Y-90542147D01*
X155755752Y-90605703D01*
X155734924Y-90624818D01*
X155594129Y-90727110D01*
X155467466Y-90867783D01*
X155372820Y-91031715D01*
X155314326Y-91211742D01*
X155294540Y-91399999D01*
X155314326Y-91588257D01*
X155372820Y-91768284D01*
X155467466Y-91932216D01*
X155594129Y-92072889D01*
X155747269Y-92184151D01*
X155920197Y-92261144D01*
X156105352Y-92300500D01*
X156105354Y-92300500D01*
X156131668Y-92300500D01*
X156198707Y-92320185D01*
X156216551Y-92334107D01*
X156244688Y-92360529D01*
X156263285Y-92370753D01*
X156279545Y-92381433D01*
X156296317Y-92394443D01*
X156338221Y-92412576D01*
X156348701Y-92417710D01*
X156388713Y-92439708D01*
X156409276Y-92444987D01*
X156427679Y-92451288D01*
X156447154Y-92459716D01*
X156492256Y-92466859D01*
X156503651Y-92469218D01*
X156547904Y-92480581D01*
X156569132Y-92480581D01*
X156588530Y-92482107D01*
X156609486Y-92485427D01*
X156654932Y-92481131D01*
X156666602Y-92480581D01*
X159147637Y-92480581D01*
X159214676Y-92500266D01*
X159220506Y-92504251D01*
X159371882Y-92614232D01*
X159371883Y-92614232D01*
X159371884Y-92614233D01*
X159544809Y-92691225D01*
X159729964Y-92730581D01*
X159729966Y-92730581D01*
X159919260Y-92730581D01*
X160062760Y-92700079D01*
X160104415Y-92691225D01*
X160210741Y-92643884D01*
X160279991Y-92634600D01*
X160343267Y-92664228D01*
X160380481Y-92723362D01*
X160379816Y-92793229D01*
X160374981Y-92806406D01*
X160370364Y-92817075D01*
X160363223Y-92862161D01*
X160360855Y-92873593D01*
X160359799Y-92877712D01*
X160349500Y-92917824D01*
X160349500Y-92939045D01*
X160347973Y-92958444D01*
X160344653Y-92979403D01*
X160348950Y-93024858D01*
X160349500Y-93036528D01*
X160349500Y-93840969D01*
X160329815Y-93908008D01*
X160315891Y-93925854D01*
X160284133Y-93959672D01*
X160281428Y-93962464D01*
X160261089Y-93982804D01*
X160258713Y-93985866D01*
X160258702Y-93985879D01*
X160258378Y-93986298D01*
X160250806Y-93995162D01*
X160219550Y-94028446D01*
X160209322Y-94047051D01*
X160198645Y-94063306D01*
X160185636Y-94080077D01*
X160167506Y-94121971D01*
X160162370Y-94132455D01*
X160140372Y-94172471D01*
X160135091Y-94193038D01*
X160128791Y-94211439D01*
X160120364Y-94230913D01*
X160113223Y-94276000D01*
X160110855Y-94287432D01*
X160108842Y-94295279D01*
X160099500Y-94331663D01*
X160099500Y-94352884D01*
X160097973Y-94372283D01*
X160094652Y-94393244D01*
X160098949Y-94438699D01*
X160099499Y-94450367D01*
X160099500Y-95679191D01*
X160079815Y-95746230D01*
X160063181Y-95766872D01*
X157059566Y-98770486D01*
X156998243Y-98803971D01*
X156928551Y-98798987D01*
X156872618Y-98757115D01*
X156862527Y-98741259D01*
X156849559Y-98716998D01*
X156835910Y-98691462D01*
X156710883Y-98539117D01*
X156558538Y-98414090D01*
X156447914Y-98354960D01*
X156398070Y-98305998D01*
X156382609Y-98237860D01*
X156406441Y-98172180D01*
X156461998Y-98129812D01*
X156531643Y-98124205D01*
X156532148Y-98124312D01*
X156655352Y-98150500D01*
X156655354Y-98150500D01*
X156844648Y-98150500D01*
X156968355Y-98124205D01*
X157029803Y-98111144D01*
X157202730Y-98034151D01*
X157355871Y-97922888D01*
X157482533Y-97782216D01*
X157577179Y-97618284D01*
X157635674Y-97438256D01*
X157655460Y-97250000D01*
X157635674Y-97061744D01*
X157587437Y-96913286D01*
X157577179Y-96881715D01*
X157482533Y-96717783D01*
X157355870Y-96577110D01*
X157201615Y-96465038D01*
X157158949Y-96409708D01*
X157150500Y-96364720D01*
X157150500Y-95585503D01*
X157152841Y-95564300D01*
X157152759Y-95561706D01*
X157152760Y-95561704D01*
X157150561Y-95491722D01*
X157150500Y-95487828D01*
X157150500Y-95462977D01*
X157150500Y-95462976D01*
X157150500Y-95459075D01*
X157149948Y-95454712D01*
X157149031Y-95443063D01*
X157147598Y-95397431D01*
X157146136Y-95392402D01*
X157141677Y-95377051D01*
X157137730Y-95358001D01*
X157135071Y-95336942D01*
X157118264Y-95294493D01*
X157114481Y-95283445D01*
X157101744Y-95239602D01*
X157090937Y-95221329D01*
X157082382Y-95203866D01*
X157074568Y-95184129D01*
X157047733Y-95147193D01*
X157041325Y-95137436D01*
X157018084Y-95098138D01*
X157018081Y-95098135D01*
X157003068Y-95083122D01*
X156990435Y-95068330D01*
X156987153Y-95063813D01*
X156977963Y-95051163D01*
X156943434Y-95022598D01*
X156904328Y-94964698D01*
X156899155Y-94940015D01*
X156885674Y-94811742D01*
X156827179Y-94631715D01*
X156732533Y-94467783D01*
X156605870Y-94327110D01*
X156452730Y-94215848D01*
X156279802Y-94138855D01*
X156094648Y-94099500D01*
X156094646Y-94099500D01*
X155905354Y-94099500D01*
X155905352Y-94099500D01*
X155720197Y-94138855D01*
X155547269Y-94215848D01*
X155394129Y-94327110D01*
X155267466Y-94467783D01*
X155172820Y-94631715D01*
X155114326Y-94811742D01*
X155094540Y-95000000D01*
X155114326Y-95188257D01*
X155172820Y-95368284D01*
X155267466Y-95532216D01*
X155394129Y-95672889D01*
X155547269Y-95784151D01*
X155720193Y-95861143D01*
X155720196Y-95861143D01*
X155720197Y-95861144D01*
X155751280Y-95867750D01*
X155812761Y-95900942D01*
X155846539Y-95962104D01*
X155849500Y-95989041D01*
X155849500Y-96914494D01*
X155847158Y-96935702D01*
X155849439Y-97008262D01*
X155849500Y-97012156D01*
X155849500Y-97040925D01*
X155849987Y-97044785D01*
X155849989Y-97044808D01*
X155850054Y-97045320D01*
X155850968Y-97056942D01*
X155852848Y-97116747D01*
X155855464Y-97146051D01*
X155846043Y-97235696D01*
X155844540Y-97250000D01*
X155846258Y-97266344D01*
X155864326Y-97438257D01*
X155922820Y-97618284D01*
X156017466Y-97782216D01*
X156144129Y-97922889D01*
X156297268Y-98034150D01*
X156313800Y-98041511D01*
X156367038Y-98086760D01*
X156387360Y-98153609D01*
X156368316Y-98220833D01*
X156315950Y-98267089D01*
X156246890Y-98277691D01*
X156227372Y-98273452D01*
X156196132Y-98263976D01*
X156000000Y-98244659D01*
X155803866Y-98263976D01*
X155615273Y-98321185D01*
X155441463Y-98414089D01*
X155289117Y-98539117D01*
X155164089Y-98691463D01*
X155071185Y-98865273D01*
X155013976Y-99053866D01*
X154997403Y-99222139D01*
X154971242Y-99286926D01*
X154914208Y-99327285D01*
X154910162Y-99327465D01*
X154955203Y-99348035D01*
X154992977Y-99406813D01*
X154997321Y-99428787D01*
X155009349Y-99543234D01*
X155067843Y-99723261D01*
X155162489Y-99887193D01*
X155289152Y-100027866D01*
X155442292Y-100139128D01*
X155615220Y-100216121D01*
X155800377Y-100255477D01*
X155800378Y-100255477D01*
X155801291Y-100255671D01*
X155862773Y-100288863D01*
X155896550Y-100350026D01*
X155891898Y-100419740D01*
X155850294Y-100475873D01*
X155848398Y-100477278D01*
X155799829Y-100512566D01*
X155673166Y-100653238D01*
X155578520Y-100817170D01*
X155520026Y-100997197D01*
X155500240Y-101185454D01*
X155520026Y-101373712D01*
X155578520Y-101553739D01*
X155673166Y-101717671D01*
X155799829Y-101858344D01*
X155952969Y-101969606D01*
X156125897Y-102046599D01*
X156311052Y-102085955D01*
X156311054Y-102085955D01*
X156313064Y-102085955D01*
X156318337Y-102087503D01*
X156323802Y-102088665D01*
X156323713Y-102089082D01*
X156380103Y-102105640D01*
X156420451Y-102147955D01*
X156497966Y-102282216D01*
X156624629Y-102422889D01*
X156777769Y-102534151D01*
X156950697Y-102611144D01*
X157135852Y-102650500D01*
X157135854Y-102650500D01*
X157325148Y-102650500D01*
X157454797Y-102622942D01*
X157510303Y-102611144D01*
X157683230Y-102534151D01*
X157834590Y-102424181D01*
X157900396Y-102400702D01*
X157907475Y-102400500D01*
X158164495Y-102400500D01*
X158185704Y-102402841D01*
X158188294Y-102402759D01*
X158188296Y-102402760D01*
X158258262Y-102400560D01*
X158262157Y-102400500D01*
X158287025Y-102400500D01*
X158290925Y-102400500D01*
X158295294Y-102399947D01*
X158306939Y-102399030D01*
X158352569Y-102397597D01*
X158372949Y-102391675D01*
X158391989Y-102387732D01*
X158413058Y-102385071D01*
X158455520Y-102368258D01*
X158466557Y-102364480D01*
X158510398Y-102351744D01*
X158528670Y-102340936D01*
X158546136Y-102332380D01*
X158565871Y-102324568D01*
X158602816Y-102297725D01*
X158612548Y-102291332D01*
X158651865Y-102268081D01*
X158666875Y-102253070D01*
X158681664Y-102240439D01*
X158698837Y-102227963D01*
X158725726Y-102195458D01*
X158783624Y-102156352D01*
X158821269Y-102150500D01*
X158844648Y-102150500D01*
X158968083Y-102124262D01*
X159029803Y-102111144D01*
X159202730Y-102034151D01*
X159355871Y-101922888D01*
X159482533Y-101782216D01*
X159577179Y-101618284D01*
X159635674Y-101438256D01*
X159655460Y-101250000D01*
X159635674Y-101061744D01*
X159577179Y-100881716D01*
X159577179Y-100881715D01*
X159482533Y-100717783D01*
X159355870Y-100577110D01*
X159202730Y-100465848D01*
X159029802Y-100388855D01*
X158844648Y-100349500D01*
X158844646Y-100349500D01*
X158655354Y-100349500D01*
X158655352Y-100349500D01*
X158470197Y-100388855D01*
X158297269Y-100465848D01*
X158173045Y-100556102D01*
X158107239Y-100579582D01*
X158039185Y-100563756D01*
X157990490Y-100513650D01*
X157976615Y-100445172D01*
X157977687Y-100436387D01*
X157986778Y-100378986D01*
X157989143Y-100367560D01*
X158000500Y-100323332D01*
X158000500Y-100302109D01*
X158002027Y-100282710D01*
X158005347Y-100261749D01*
X158001050Y-100216305D01*
X158000499Y-100204632D01*
X158000499Y-99970224D01*
X158000499Y-99720804D01*
X158020184Y-99653769D01*
X158036813Y-99633132D01*
X160629598Y-97040346D01*
X160690919Y-97006863D01*
X160760611Y-97011847D01*
X160816544Y-97053719D01*
X160820878Y-97059890D01*
X160824762Y-97065796D01*
X160824763Y-97065797D01*
X160865996Y-97128489D01*
X160867889Y-97131461D01*
X160907288Y-97195336D01*
X160907952Y-97196412D01*
X160920253Y-97211510D01*
X160921168Y-97212373D01*
X160921170Y-97212376D01*
X160936108Y-97226469D01*
X160975709Y-97263831D01*
X160978296Y-97266344D01*
X162197587Y-98485634D01*
X162209368Y-98499266D01*
X162223710Y-98518530D01*
X162240020Y-98532216D01*
X162261659Y-98550373D01*
X162269634Y-98557681D01*
X162273543Y-98561590D01*
X162276375Y-98563829D01*
X162276385Y-98563838D01*
X162297857Y-98580815D01*
X162300657Y-98583096D01*
X162359074Y-98632115D01*
X162375485Y-98642569D01*
X162376639Y-98643107D01*
X162376643Y-98643110D01*
X162444648Y-98674821D01*
X162447771Y-98676333D01*
X162514887Y-98710040D01*
X162516024Y-98710611D01*
X162534404Y-98716998D01*
X162535641Y-98717253D01*
X162535647Y-98717256D01*
X162609182Y-98732439D01*
X162612529Y-98733181D01*
X162685599Y-98750500D01*
X162685601Y-98750500D01*
X162686825Y-98750790D01*
X162706196Y-98752769D01*
X162707460Y-98752732D01*
X162707464Y-98752733D01*
X162782430Y-98750552D01*
X162786036Y-98750500D01*
X163210663Y-98750500D01*
X163277702Y-98770185D01*
X163283550Y-98774183D01*
X163297271Y-98784152D01*
X163470197Y-98861144D01*
X163655352Y-98900500D01*
X163655354Y-98900500D01*
X163844648Y-98900500D01*
X164010377Y-98865273D01*
X164029803Y-98861144D01*
X164202730Y-98784151D01*
X164273936Y-98732417D01*
X164355870Y-98672889D01*
X164482533Y-98532216D01*
X164577179Y-98368284D01*
X164597417Y-98305998D01*
X164635674Y-98188256D01*
X164655460Y-98000000D01*
X164635674Y-97811744D01*
X164586207Y-97659500D01*
X164577179Y-97631715D01*
X164482533Y-97467783D01*
X164355870Y-97327110D01*
X164202734Y-97215850D01*
X164090333Y-97165806D01*
X164029803Y-97138856D01*
X164029800Y-97138855D01*
X164022531Y-97135619D01*
X163969294Y-97090368D01*
X163948973Y-97023519D01*
X163968018Y-96956295D01*
X163985282Y-96934662D01*
X164919944Y-96000000D01*
X168594540Y-96000000D01*
X168614326Y-96188257D01*
X168672820Y-96368284D01*
X168715724Y-96442594D01*
X168726819Y-96461812D01*
X168732887Y-96472321D01*
X168749500Y-96534321D01*
X168749500Y-96686294D01*
X168748191Y-96704264D01*
X168744711Y-96728023D01*
X168749028Y-96777368D01*
X168749500Y-96788175D01*
X168749500Y-96793709D01*
X168749916Y-96797272D01*
X168749917Y-96797282D01*
X168753098Y-96824496D01*
X168753464Y-96828082D01*
X168760109Y-96904041D01*
X168764329Y-96923071D01*
X168764758Y-96924251D01*
X168764759Y-96924255D01*
X168790413Y-96994742D01*
X168791582Y-96998107D01*
X168815580Y-97070524D01*
X168824075Y-97088072D01*
X168865979Y-97151784D01*
X168867889Y-97154782D01*
X168907288Y-97218656D01*
X168907952Y-97219732D01*
X168920253Y-97234830D01*
X168921168Y-97235693D01*
X168921170Y-97235696D01*
X168953655Y-97266344D01*
X168975708Y-97287150D01*
X168978295Y-97289663D01*
X174674269Y-102985637D01*
X174686051Y-102999270D01*
X174700390Y-103018531D01*
X174738338Y-103050373D01*
X174746313Y-103057681D01*
X174750223Y-103061591D01*
X174774556Y-103080830D01*
X174777335Y-103083095D01*
X174835752Y-103132113D01*
X174852179Y-103142578D01*
X174921320Y-103174819D01*
X174924567Y-103176391D01*
X174992699Y-103210609D01*
X175011087Y-103217000D01*
X175012323Y-103217255D01*
X175012327Y-103217257D01*
X175085895Y-103232447D01*
X175089242Y-103233189D01*
X175162279Y-103250500D01*
X175162281Y-103250500D01*
X175163509Y-103250791D01*
X175182878Y-103252770D01*
X175184140Y-103252733D01*
X175184144Y-103252734D01*
X175256533Y-103250627D01*
X175259131Y-103250552D01*
X175262737Y-103250500D01*
X179460663Y-103250500D01*
X179527702Y-103270185D01*
X179533550Y-103274183D01*
X179547271Y-103284152D01*
X179720197Y-103361144D01*
X179905352Y-103400500D01*
X179905354Y-103400500D01*
X180094648Y-103400500D01*
X180218083Y-103374262D01*
X180279803Y-103361144D01*
X180452730Y-103284151D01*
X180471953Y-103270185D01*
X180605870Y-103172889D01*
X180635484Y-103140000D01*
X180732533Y-103032216D01*
X180827179Y-102868284D01*
X180885674Y-102688256D01*
X180905460Y-102500000D01*
X180885674Y-102311744D01*
X180835184Y-102156352D01*
X180827179Y-102131715D01*
X180732533Y-101967783D01*
X180605870Y-101827110D01*
X180452730Y-101715848D01*
X180279802Y-101638855D01*
X180094648Y-101599500D01*
X180094646Y-101599500D01*
X179905354Y-101599500D01*
X179905352Y-101599500D01*
X179720197Y-101638855D01*
X179547271Y-101715847D01*
X179533550Y-101725817D01*
X179467744Y-101749298D01*
X179460663Y-101749500D01*
X175612230Y-101749500D01*
X175545191Y-101729815D01*
X175524549Y-101713181D01*
X170340460Y-96529092D01*
X170324574Y-96499999D01*
X176594540Y-96499999D01*
X176614326Y-96688257D01*
X176672820Y-96868284D01*
X176767466Y-97032216D01*
X176894129Y-97172889D01*
X177047269Y-97284151D01*
X177220197Y-97361144D01*
X177405352Y-97400500D01*
X177405354Y-97400500D01*
X177429192Y-97400500D01*
X177496231Y-97420185D01*
X177516873Y-97436819D01*
X177825820Y-97745766D01*
X177859305Y-97807089D01*
X177861460Y-97820484D01*
X177864326Y-97847757D01*
X177922820Y-98027784D01*
X178017466Y-98191716D01*
X178144129Y-98332389D01*
X178297269Y-98443651D01*
X178470197Y-98520644D01*
X178655352Y-98560000D01*
X178655354Y-98560000D01*
X178844648Y-98560000D01*
X178968083Y-98533762D01*
X179029803Y-98520644D01*
X179202730Y-98443651D01*
X179355871Y-98332388D01*
X179482533Y-98191716D01*
X179577179Y-98027784D01*
X179635674Y-97847756D01*
X179642270Y-97785000D01*
X193249436Y-97785000D01*
X193269650Y-98016047D01*
X193329680Y-98240080D01*
X193360418Y-98305998D01*
X193427699Y-98450282D01*
X193560730Y-98640269D01*
X193724731Y-98804270D01*
X193914718Y-98937301D01*
X194124921Y-99035320D01*
X194348950Y-99095349D01*
X194580000Y-99115563D01*
X194811050Y-99095349D01*
X195035079Y-99035320D01*
X195245282Y-98937301D01*
X195435269Y-98804270D01*
X195599270Y-98640269D01*
X195732301Y-98450282D01*
X195830320Y-98240079D01*
X195890349Y-98016050D01*
X195910563Y-97785000D01*
X195890349Y-97553950D01*
X195830320Y-97329921D01*
X195801594Y-97268318D01*
X195786003Y-97234883D01*
X195775511Y-97165806D01*
X195795297Y-97121553D01*
X195767625Y-97121773D01*
X195708549Y-97084467D01*
X195700040Y-97073646D01*
X195694183Y-97065282D01*
X195599270Y-96929731D01*
X195435269Y-96765730D01*
X195245282Y-96632699D01*
X195126071Y-96577110D01*
X195035080Y-96534680D01*
X194979453Y-96519775D01*
X194919793Y-96483410D01*
X194889264Y-96420563D01*
X194891723Y-96400000D01*
X195789436Y-96400000D01*
X195809650Y-96631047D01*
X195869680Y-96855081D01*
X195913997Y-96950118D01*
X195924489Y-97019196D01*
X195904702Y-97063446D01*
X195932375Y-97063227D01*
X195991451Y-97100534D01*
X195999952Y-97111343D01*
X196100730Y-97255269D01*
X196264731Y-97419270D01*
X196454718Y-97552301D01*
X196664921Y-97650320D01*
X196888950Y-97710349D01*
X197120000Y-97730563D01*
X197351050Y-97710349D01*
X197575079Y-97650320D01*
X197785282Y-97552301D01*
X197975269Y-97419270D01*
X198139270Y-97255269D01*
X198272301Y-97065282D01*
X198370320Y-96855079D01*
X198430349Y-96631050D01*
X198450563Y-96400000D01*
X198430349Y-96168950D01*
X198370320Y-95944921D01*
X198272301Y-95734719D01*
X198139270Y-95544731D01*
X197975269Y-95380730D01*
X197785282Y-95247699D01*
X197657806Y-95188256D01*
X197575080Y-95149680D01*
X197519453Y-95134775D01*
X197459793Y-95098410D01*
X197429264Y-95035563D01*
X197437559Y-94966187D01*
X197482044Y-94912309D01*
X197519453Y-94895225D01*
X197575079Y-94880320D01*
X197785282Y-94782301D01*
X197975269Y-94649270D01*
X198139270Y-94485269D01*
X198272301Y-94295282D01*
X198370320Y-94085079D01*
X198430349Y-93861050D01*
X198450563Y-93630000D01*
X198446292Y-93581187D01*
X198430349Y-93398952D01*
X198430349Y-93398950D01*
X198370320Y-93174921D01*
X198272301Y-92964719D01*
X198139270Y-92774731D01*
X197975269Y-92610730D01*
X197785282Y-92477699D01*
X197645612Y-92412570D01*
X197575080Y-92379680D01*
X197518487Y-92364516D01*
X197458827Y-92328150D01*
X197428298Y-92265303D01*
X197436593Y-92195928D01*
X197481079Y-92142050D01*
X197518488Y-92124966D01*
X197574908Y-92109848D01*
X197785028Y-92011867D01*
X197863423Y-91956975D01*
X197291568Y-91385121D01*
X197408458Y-91334349D01*
X197525739Y-91238934D01*
X197612928Y-91115415D01*
X197643355Y-91029801D01*
X198216975Y-91603423D01*
X198271867Y-91525028D01*
X198369848Y-91314907D01*
X198429854Y-91090961D01*
X198450061Y-90859999D01*
X198429854Y-90629038D01*
X198369848Y-90405092D01*
X198271867Y-90194972D01*
X198216974Y-90116576D01*
X197645928Y-90687621D01*
X197643116Y-90674085D01*
X197573558Y-90539844D01*
X197470362Y-90429348D01*
X197341181Y-90350791D01*
X197289997Y-90336450D01*
X197863423Y-89763024D01*
X197863422Y-89763023D01*
X197785032Y-89708133D01*
X197574908Y-89610151D01*
X197518487Y-89595033D01*
X197458826Y-89558667D01*
X197428298Y-89495820D01*
X197436593Y-89426445D01*
X197481079Y-89372567D01*
X197518484Y-89355484D01*
X197575079Y-89340320D01*
X197785282Y-89242301D01*
X197975269Y-89109270D01*
X198139270Y-88945269D01*
X198272301Y-88755282D01*
X198370320Y-88545079D01*
X198430349Y-88321050D01*
X198450563Y-88090000D01*
X198430349Y-87858950D01*
X198370320Y-87634921D01*
X198272301Y-87424719D01*
X198139270Y-87234731D01*
X197975269Y-87070730D01*
X197785282Y-86937699D01*
X197658027Y-86878359D01*
X197575080Y-86839680D01*
X197351047Y-86779650D01*
X197120000Y-86759436D01*
X196888952Y-86779650D01*
X196664919Y-86839680D01*
X196458446Y-86935961D01*
X196454719Y-86937699D01*
X196275689Y-87063057D01*
X196264727Y-87070733D01*
X196100729Y-87234731D01*
X195998308Y-87381003D01*
X195943731Y-87424628D01*
X195907625Y-87428364D01*
X195923099Y-87454681D01*
X195920328Y-87524496D01*
X195915212Y-87537275D01*
X195869681Y-87634916D01*
X195809650Y-87858952D01*
X195789436Y-88090000D01*
X195809650Y-88321047D01*
X195869680Y-88545081D01*
X195913997Y-88640118D01*
X195924489Y-88709196D01*
X195904702Y-88753446D01*
X195932375Y-88753227D01*
X195991451Y-88790534D01*
X195999952Y-88801343D01*
X196100730Y-88945269D01*
X196264731Y-89109270D01*
X196454718Y-89242301D01*
X196664921Y-89340320D01*
X196721512Y-89355483D01*
X196781172Y-89391848D01*
X196811701Y-89454694D01*
X196803407Y-89524070D01*
X196758921Y-89577948D01*
X196721513Y-89595032D01*
X196665095Y-89610149D01*
X196454968Y-89708133D01*
X196376577Y-89763023D01*
X196376576Y-89763024D01*
X196948431Y-90334878D01*
X196831542Y-90385651D01*
X196714261Y-90481066D01*
X196627072Y-90604585D01*
X196596645Y-90690197D01*
X196023024Y-90116576D01*
X196023022Y-90116577D01*
X195998743Y-90151252D01*
X195944166Y-90194877D01*
X195908058Y-90198613D01*
X195923533Y-90224931D01*
X195920762Y-90294746D01*
X195915647Y-90307525D01*
X195870150Y-90405094D01*
X195810145Y-90629038D01*
X195789938Y-90859999D01*
X195810145Y-91090961D01*
X195870151Y-91314907D01*
X195915647Y-91412474D01*
X195926139Y-91481552D01*
X195908588Y-91520802D01*
X195931159Y-91520623D01*
X195990235Y-91557930D01*
X195998745Y-91568750D01*
X196023023Y-91603422D01*
X196023024Y-91603423D01*
X196594070Y-91032376D01*
X196596884Y-91045915D01*
X196666442Y-91180156D01*
X196769638Y-91290652D01*
X196898819Y-91369209D01*
X196950002Y-91383549D01*
X196376575Y-91956975D01*
X196376575Y-91956976D01*
X196454967Y-92011866D01*
X196665092Y-92109848D01*
X196721511Y-92124966D01*
X196781172Y-92161331D01*
X196811701Y-92224178D01*
X196803406Y-92293553D01*
X196758921Y-92347431D01*
X196721512Y-92364516D01*
X196664921Y-92379680D01*
X196664920Y-92379680D01*
X196664918Y-92379681D01*
X196458262Y-92476047D01*
X196454719Y-92477699D01*
X196264731Y-92610730D01*
X196264727Y-92610733D01*
X196100733Y-92774727D01*
X196100730Y-92774730D01*
X196100730Y-92774731D01*
X196040223Y-92861144D01*
X195999959Y-92918647D01*
X195945382Y-92962272D01*
X195903822Y-92966572D01*
X195921883Y-92997289D01*
X195919112Y-93067103D01*
X195913996Y-93079882D01*
X195869681Y-93174916D01*
X195809650Y-93398952D01*
X195789436Y-93629999D01*
X195809650Y-93861047D01*
X195869680Y-94085081D01*
X195913997Y-94180118D01*
X195924489Y-94249196D01*
X195904702Y-94293446D01*
X195932375Y-94293227D01*
X195991451Y-94330534D01*
X195999952Y-94341343D01*
X196100730Y-94485269D01*
X196264731Y-94649270D01*
X196454718Y-94782301D01*
X196664921Y-94880320D01*
X196705337Y-94891149D01*
X196720546Y-94895225D01*
X196780207Y-94931591D01*
X196810735Y-94994438D01*
X196802440Y-95063813D01*
X196757954Y-95117691D01*
X196720546Y-95134775D01*
X196664919Y-95149680D01*
X196472083Y-95239602D01*
X196454719Y-95247699D01*
X196283373Y-95367677D01*
X196264727Y-95380733D01*
X196100733Y-95544727D01*
X196100730Y-95544730D01*
X196100730Y-95544731D01*
X196038900Y-95633034D01*
X195999959Y-95688647D01*
X195945382Y-95732272D01*
X195903822Y-95736572D01*
X195921883Y-95767289D01*
X195919112Y-95837103D01*
X195913996Y-95849882D01*
X195869681Y-95944916D01*
X195809650Y-96168952D01*
X195789436Y-96400000D01*
X194891723Y-96400000D01*
X194897559Y-96351187D01*
X194942044Y-96297309D01*
X194979453Y-96280225D01*
X195035079Y-96265320D01*
X195245282Y-96167301D01*
X195435269Y-96034270D01*
X195599270Y-95870269D01*
X195700041Y-95726352D01*
X195754616Y-95682730D01*
X195796174Y-95678428D01*
X195778115Y-95647712D01*
X195780886Y-95577897D01*
X195785997Y-95565128D01*
X195830320Y-95470079D01*
X195890349Y-95246050D01*
X195910563Y-95015000D01*
X195906292Y-94966187D01*
X195892820Y-94812193D01*
X195890349Y-94783950D01*
X195830320Y-94559921D01*
X195786003Y-94464883D01*
X195775511Y-94395806D01*
X195795297Y-94351553D01*
X195767625Y-94351773D01*
X195708549Y-94314467D01*
X195700040Y-94303646D01*
X195694183Y-94295282D01*
X195599270Y-94159731D01*
X195435269Y-93995730D01*
X195245282Y-93862699D01*
X195135680Y-93811591D01*
X195035080Y-93764680D01*
X194979453Y-93749775D01*
X194919793Y-93713410D01*
X194889264Y-93650563D01*
X194897559Y-93581187D01*
X194942044Y-93527309D01*
X194979453Y-93510225D01*
X194985749Y-93508538D01*
X195035079Y-93495320D01*
X195245282Y-93397301D01*
X195435269Y-93264270D01*
X195599270Y-93100269D01*
X195700041Y-92956352D01*
X195754616Y-92912730D01*
X195796174Y-92908428D01*
X195778115Y-92877712D01*
X195780886Y-92807897D01*
X195785997Y-92795128D01*
X195830320Y-92700079D01*
X195890349Y-92476050D01*
X195910563Y-92245000D01*
X195890349Y-92013950D01*
X195830320Y-91789921D01*
X195784787Y-91692276D01*
X195774296Y-91623202D01*
X195791845Y-91583950D01*
X195769275Y-91584130D01*
X195710199Y-91546823D01*
X195701696Y-91536011D01*
X195599270Y-91389731D01*
X195435269Y-91225730D01*
X195245282Y-91092699D01*
X195127636Y-91037840D01*
X195035080Y-90994680D01*
X194979453Y-90979775D01*
X194919793Y-90943410D01*
X194889264Y-90880563D01*
X194897559Y-90811187D01*
X194942044Y-90757309D01*
X194979453Y-90740225D01*
X195035079Y-90725320D01*
X195245282Y-90627301D01*
X195435269Y-90494270D01*
X195599270Y-90330269D01*
X195701692Y-90183995D01*
X195756266Y-90140373D01*
X195792374Y-90136635D01*
X195776900Y-90110317D01*
X195779671Y-90040502D01*
X195784778Y-90027743D01*
X195830320Y-89930079D01*
X195890349Y-89706050D01*
X195910563Y-89475000D01*
X195890349Y-89243950D01*
X195830320Y-89019921D01*
X195786003Y-88924883D01*
X195775511Y-88855806D01*
X195795297Y-88811553D01*
X195767625Y-88811773D01*
X195708549Y-88774467D01*
X195700040Y-88763646D01*
X195694183Y-88755282D01*
X195599270Y-88619731D01*
X195435269Y-88455730D01*
X195245282Y-88322699D01*
X195089387Y-88250004D01*
X195035080Y-88224680D01*
X194978487Y-88209516D01*
X194918827Y-88173150D01*
X194888298Y-88110303D01*
X194896593Y-88040928D01*
X194941079Y-87987050D01*
X194978488Y-87969966D01*
X195034908Y-87954848D01*
X195245028Y-87856867D01*
X195323423Y-87801975D01*
X194751568Y-87230121D01*
X194868458Y-87179349D01*
X194985739Y-87083934D01*
X195072928Y-86960415D01*
X195103355Y-86874801D01*
X195676975Y-87448423D01*
X195701255Y-87413748D01*
X195755831Y-87370123D01*
X195791938Y-87366385D01*
X195776465Y-87340068D01*
X195779236Y-87270253D01*
X195784352Y-87257473D01*
X195829849Y-87159905D01*
X195889854Y-86935961D01*
X195910061Y-86704999D01*
X195889854Y-86474038D01*
X195829848Y-86250092D01*
X195731867Y-86039972D01*
X195676974Y-85961576D01*
X195105928Y-86532621D01*
X195103116Y-86519085D01*
X195033558Y-86384844D01*
X194930362Y-86274348D01*
X194801181Y-86195791D01*
X194749997Y-86181450D01*
X195323423Y-85608024D01*
X195323422Y-85608023D01*
X195245032Y-85553133D01*
X195034907Y-85455151D01*
X194810961Y-85395145D01*
X194580000Y-85374938D01*
X194349038Y-85395145D01*
X194125092Y-85455151D01*
X193914968Y-85553133D01*
X193836577Y-85608023D01*
X193836576Y-85608024D01*
X194408431Y-86179878D01*
X194291542Y-86230651D01*
X194174261Y-86326066D01*
X194087072Y-86449585D01*
X194056645Y-86535197D01*
X193483024Y-85961576D01*
X193483023Y-85961577D01*
X193428133Y-86039968D01*
X193330151Y-86250092D01*
X193270145Y-86474038D01*
X193249938Y-86704999D01*
X193270145Y-86935961D01*
X193330151Y-87159907D01*
X193428133Y-87370032D01*
X193483023Y-87448422D01*
X193483024Y-87448423D01*
X194054070Y-86877376D01*
X194056884Y-86890915D01*
X194126442Y-87025156D01*
X194229638Y-87135652D01*
X194358819Y-87214209D01*
X194410002Y-87228549D01*
X193836575Y-87801975D01*
X193836575Y-87801976D01*
X193914967Y-87856866D01*
X194125092Y-87954848D01*
X194181511Y-87969966D01*
X194241172Y-88006331D01*
X194271701Y-88069178D01*
X194263406Y-88138553D01*
X194218921Y-88192431D01*
X194181512Y-88209516D01*
X194124921Y-88224680D01*
X194124920Y-88224680D01*
X194124918Y-88224681D01*
X194030882Y-88268531D01*
X193914719Y-88322699D01*
X193753094Y-88435870D01*
X193724727Y-88455733D01*
X193560733Y-88619727D01*
X193560730Y-88619730D01*
X193560730Y-88619731D01*
X193433557Y-88801354D01*
X193427698Y-88809721D01*
X193329680Y-89019919D01*
X193269650Y-89243952D01*
X193249436Y-89475000D01*
X193269650Y-89706047D01*
X193329680Y-89930080D01*
X193377307Y-90032216D01*
X193427699Y-90140282D01*
X193560730Y-90330269D01*
X193724731Y-90494270D01*
X193914718Y-90627301D01*
X194124921Y-90725320D01*
X194149545Y-90731918D01*
X194180546Y-90740225D01*
X194240207Y-90776591D01*
X194270735Y-90839438D01*
X194262440Y-90908813D01*
X194217954Y-90962691D01*
X194180546Y-90979775D01*
X194124919Y-90994680D01*
X193935677Y-91082926D01*
X193914719Y-91092699D01*
X193724731Y-91225730D01*
X193724727Y-91225733D01*
X193560733Y-91389727D01*
X193560730Y-91389730D01*
X193560730Y-91389731D01*
X193440286Y-91561744D01*
X193427698Y-91579721D01*
X193329680Y-91789919D01*
X193269650Y-92013952D01*
X193249436Y-92244999D01*
X193269650Y-92476047D01*
X193329680Y-92700080D01*
X193364489Y-92774727D01*
X193427699Y-92910282D01*
X193560730Y-93100269D01*
X193724731Y-93264270D01*
X193914718Y-93397301D01*
X194124921Y-93495320D01*
X194165040Y-93506070D01*
X194180546Y-93510225D01*
X194240207Y-93546591D01*
X194270735Y-93609438D01*
X194262440Y-93678813D01*
X194217954Y-93732691D01*
X194180546Y-93749775D01*
X194124919Y-93764680D01*
X193960390Y-93841402D01*
X193914719Y-93862699D01*
X193731622Y-93990905D01*
X193724727Y-93995733D01*
X193560733Y-94159727D01*
X193560730Y-94159730D01*
X193560730Y-94159731D01*
X193433557Y-94341354D01*
X193427698Y-94349721D01*
X193329680Y-94559919D01*
X193269650Y-94783952D01*
X193249436Y-95014999D01*
X193269650Y-95246047D01*
X193329680Y-95470080D01*
X193358536Y-95531961D01*
X193427699Y-95680282D01*
X193560730Y-95870269D01*
X193724731Y-96034270D01*
X193914718Y-96167301D01*
X194124921Y-96265320D01*
X194165337Y-96276149D01*
X194180546Y-96280225D01*
X194240207Y-96316591D01*
X194270735Y-96379438D01*
X194262440Y-96448813D01*
X194217954Y-96502691D01*
X194180546Y-96519775D01*
X194124919Y-96534680D01*
X193918262Y-96631047D01*
X193914719Y-96632699D01*
X193724731Y-96765730D01*
X193724727Y-96765733D01*
X193560733Y-96929727D01*
X193560730Y-96929730D01*
X193560730Y-96929731D01*
X193433557Y-97111354D01*
X193427698Y-97119721D01*
X193329680Y-97329919D01*
X193269650Y-97553952D01*
X193249436Y-97785000D01*
X179642270Y-97785000D01*
X179655460Y-97659500D01*
X179635674Y-97471244D01*
X179589755Y-97329921D01*
X179577179Y-97291215D01*
X179482533Y-97127283D01*
X179355870Y-96986610D01*
X179202730Y-96875348D01*
X179029802Y-96798355D01*
X178844648Y-96759000D01*
X178844646Y-96759000D01*
X178730308Y-96759000D01*
X178663269Y-96739315D01*
X178642627Y-96722681D01*
X178434808Y-96514862D01*
X178401323Y-96453539D01*
X178399168Y-96440141D01*
X178397110Y-96420563D01*
X178387104Y-96325349D01*
X178385674Y-96311742D01*
X178327179Y-96131715D01*
X178232533Y-95967783D01*
X178105870Y-95827110D01*
X177952730Y-95715848D01*
X177779802Y-95638855D01*
X177594648Y-95599500D01*
X177594646Y-95599500D01*
X177405354Y-95599500D01*
X177405352Y-95599500D01*
X177220197Y-95638855D01*
X177047269Y-95715848D01*
X176894129Y-95827110D01*
X176767466Y-95967783D01*
X176672820Y-96131715D01*
X176614326Y-96311742D01*
X176594540Y-96499999D01*
X170324574Y-96499999D01*
X170306975Y-96467769D01*
X170311959Y-96398077D01*
X170320756Y-96379408D01*
X170327179Y-96368284D01*
X170385674Y-96188256D01*
X170405460Y-96000000D01*
X170385674Y-95811744D01*
X170336249Y-95659631D01*
X170327179Y-95631715D01*
X170232533Y-95467783D01*
X170105870Y-95327110D01*
X169952730Y-95215848D01*
X169779802Y-95138855D01*
X169594648Y-95099500D01*
X169594646Y-95099500D01*
X169405354Y-95099500D01*
X169405352Y-95099500D01*
X169220197Y-95138855D01*
X169047269Y-95215848D01*
X168894129Y-95327110D01*
X168767466Y-95467783D01*
X168672820Y-95631715D01*
X168614326Y-95811742D01*
X168594540Y-96000000D01*
X164919944Y-96000000D01*
X165815826Y-95104118D01*
X165853065Y-95078524D01*
X165952730Y-95034151D01*
X166082298Y-94940015D01*
X166105870Y-94922889D01*
X166144200Y-94880320D01*
X166232533Y-94782216D01*
X166327179Y-94618284D01*
X166385674Y-94438256D01*
X166405460Y-94250000D01*
X166385674Y-94061744D01*
X166346230Y-93940349D01*
X166327179Y-93881715D01*
X166232533Y-93717783D01*
X166105870Y-93577110D01*
X166008091Y-93506070D01*
X165965425Y-93450740D01*
X165959446Y-93381127D01*
X165992052Y-93319332D01*
X165993225Y-93318141D01*
X166774548Y-92536818D01*
X166835871Y-92503334D01*
X166862229Y-92500500D01*
X167210663Y-92500500D01*
X167277702Y-92520185D01*
X167283550Y-92524183D01*
X167297271Y-92534152D01*
X167470197Y-92611144D01*
X167655352Y-92650500D01*
X167655354Y-92650500D01*
X167844648Y-92650500D01*
X167968084Y-92624262D01*
X168029803Y-92611144D01*
X168202730Y-92534151D01*
X168221953Y-92520185D01*
X168355870Y-92422889D01*
X168360532Y-92417712D01*
X168482533Y-92282216D01*
X168577179Y-92118284D01*
X168635674Y-91938256D01*
X168655460Y-91750000D01*
X168635674Y-91561744D01*
X168581360Y-91394584D01*
X168577179Y-91381715D01*
X168482533Y-91217783D01*
X168355870Y-91077110D01*
X168202730Y-90965848D01*
X168029802Y-90888855D01*
X167831898Y-90846790D01*
X167832426Y-90844302D01*
X167783090Y-90829815D01*
X167737335Y-90777011D01*
X167727391Y-90707853D01*
X167756416Y-90644297D01*
X167762448Y-90637819D01*
X168329082Y-90071185D01*
X168896728Y-89503538D01*
X168913377Y-89490201D01*
X168915151Y-89488311D01*
X168915155Y-89488309D01*
X168963112Y-89437238D01*
X168965730Y-89434536D01*
X168986126Y-89414142D01*
X168988825Y-89410661D01*
X168996399Y-89401792D01*
X169027663Y-89368500D01*
X169037890Y-89349894D01*
X169048563Y-89333646D01*
X169061577Y-89316871D01*
X169079706Y-89274975D01*
X169084846Y-89264484D01*
X169089692Y-89255669D01*
X169106842Y-89224475D01*
X169112121Y-89203912D01*
X169118419Y-89185513D01*
X169126850Y-89166033D01*
X169133992Y-89120931D01*
X169136360Y-89109504D01*
X169136422Y-89109266D01*
X169147715Y-89065284D01*
X169147715Y-89044060D01*
X169149242Y-89024661D01*
X169149993Y-89019919D01*
X169152562Y-89003702D01*
X169148265Y-88958246D01*
X169147715Y-88946577D01*
X169147715Y-85750000D01*
X173094540Y-85750000D01*
X173114326Y-85938257D01*
X173172820Y-86118284D01*
X173232887Y-86222321D01*
X173249500Y-86284321D01*
X173249500Y-90436294D01*
X173248191Y-90454264D01*
X173244711Y-90478023D01*
X173249028Y-90527368D01*
X173249500Y-90538175D01*
X173249500Y-90543709D01*
X173249916Y-90547272D01*
X173249917Y-90547282D01*
X173253098Y-90574496D01*
X173253464Y-90578082D01*
X173260109Y-90654041D01*
X173264329Y-90673071D01*
X173264758Y-90674251D01*
X173264759Y-90674255D01*
X173290413Y-90744742D01*
X173291582Y-90748107D01*
X173315580Y-90820524D01*
X173324075Y-90838072D01*
X173365979Y-90901784D01*
X173367889Y-90904782D01*
X173403609Y-90962691D01*
X173407952Y-90969732D01*
X173420253Y-90984830D01*
X173421168Y-90985693D01*
X173421170Y-90985696D01*
X173469947Y-91031715D01*
X173475708Y-91037150D01*
X173478295Y-91039663D01*
X173587228Y-91148596D01*
X173617478Y-91197958D01*
X173672821Y-91368285D01*
X173767466Y-91532216D01*
X173894129Y-91672889D01*
X174047269Y-91784151D01*
X174220197Y-91861144D01*
X174405352Y-91900500D01*
X174405354Y-91900500D01*
X174594648Y-91900500D01*
X174718084Y-91874262D01*
X174779803Y-91861144D01*
X174952730Y-91784151D01*
X174999735Y-91750000D01*
X175105870Y-91672889D01*
X175142943Y-91631716D01*
X175232533Y-91532216D01*
X175327179Y-91368284D01*
X175385674Y-91188256D01*
X175405460Y-91000000D01*
X175385674Y-90811744D01*
X175348926Y-90698645D01*
X175327179Y-90631715D01*
X175232533Y-90467783D01*
X175105870Y-90327110D01*
X174952734Y-90215850D01*
X174856239Y-90172888D01*
X174824062Y-90158561D01*
X174770827Y-90113312D01*
X174750506Y-90046463D01*
X174750500Y-90045283D01*
X174750500Y-86284321D01*
X174767113Y-86222321D01*
X174797081Y-86170416D01*
X174827179Y-86118284D01*
X174885674Y-85938256D01*
X174905460Y-85750000D01*
X174885674Y-85561744D01*
X174851040Y-85455151D01*
X174827179Y-85381715D01*
X174767113Y-85277677D01*
X174750500Y-85215677D01*
X174750500Y-83534321D01*
X174767113Y-83472321D01*
X174827179Y-83368284D01*
X174855872Y-83279977D01*
X174885674Y-83188256D01*
X174905460Y-83000000D01*
X174885674Y-82811744D01*
X174835894Y-82658538D01*
X174827179Y-82631715D01*
X174767113Y-82527677D01*
X174750500Y-82465677D01*
X174750500Y-81999999D01*
X181494540Y-81999999D01*
X181498366Y-82036409D01*
X181498448Y-82061520D01*
X181494658Y-82099998D01*
X181513976Y-82296133D01*
X181571185Y-82484726D01*
X181636589Y-82607087D01*
X181664090Y-82658538D01*
X181789117Y-82810883D01*
X181941462Y-82935910D01*
X182115273Y-83028814D01*
X182303868Y-83086024D01*
X182500000Y-83105341D01*
X182696132Y-83086024D01*
X182884727Y-83028814D01*
X183058538Y-82935910D01*
X183210883Y-82810883D01*
X183335910Y-82658538D01*
X183428814Y-82484727D01*
X183486024Y-82296132D01*
X183505341Y-82100000D01*
X183486024Y-81903868D01*
X183428814Y-81715273D01*
X183335910Y-81541462D01*
X183210883Y-81389117D01*
X183058538Y-81264090D01*
X183006030Y-81236024D01*
X182884726Y-81171185D01*
X182696133Y-81113976D01*
X182500000Y-81094659D01*
X182456910Y-81098903D01*
X182444756Y-81099500D01*
X182305352Y-81099500D01*
X182120197Y-81138855D01*
X181947269Y-81215848D01*
X181794129Y-81327110D01*
X181667466Y-81467783D01*
X181572820Y-81631715D01*
X181514326Y-81811742D01*
X181494540Y-81999999D01*
X174750500Y-81999999D01*
X174750500Y-80249999D01*
X178244659Y-80249999D01*
X178263976Y-80446133D01*
X178321185Y-80634726D01*
X178377505Y-80740093D01*
X178414090Y-80808538D01*
X178539117Y-80960883D01*
X178691462Y-81085910D01*
X178865273Y-81178814D01*
X179053868Y-81236024D01*
X179250000Y-81255341D01*
X179446132Y-81236024D01*
X179634727Y-81178814D01*
X179808538Y-81085910D01*
X179960883Y-80960883D01*
X180085910Y-80808538D01*
X180178814Y-80634727D01*
X180236024Y-80446132D01*
X180255341Y-80250000D01*
X180236024Y-80053868D01*
X180178814Y-79865273D01*
X180119126Y-79753605D01*
X192945295Y-79753605D01*
X192964516Y-80083626D01*
X192965355Y-80090805D01*
X193022759Y-80416362D01*
X193024421Y-80423375D01*
X193119241Y-80740093D01*
X193121698Y-80746842D01*
X193252644Y-81050412D01*
X193255877Y-81056848D01*
X193421170Y-81343145D01*
X193425137Y-81349177D01*
X193622545Y-81614340D01*
X193626907Y-81619538D01*
X194552265Y-80694179D01*
X194715130Y-80884870D01*
X194905819Y-81047733D01*
X193983799Y-81969753D01*
X194112556Y-82077793D01*
X194118309Y-82082076D01*
X194394525Y-82263745D01*
X194400774Y-82267353D01*
X194696184Y-82415714D01*
X194702823Y-82418577D01*
X195013471Y-82531644D01*
X195020368Y-82533709D01*
X195342066Y-82609953D01*
X195349140Y-82611200D01*
X195677523Y-82649582D01*
X195684693Y-82650000D01*
X196015307Y-82650000D01*
X196022476Y-82649582D01*
X196350859Y-82611200D01*
X196357933Y-82609953D01*
X196679631Y-82533709D01*
X196686528Y-82531644D01*
X196997176Y-82418577D01*
X197003815Y-82415714D01*
X197299225Y-82267353D01*
X197305474Y-82263745D01*
X197581692Y-82082074D01*
X197587451Y-82077787D01*
X197716199Y-81969754D01*
X197716200Y-81969753D01*
X196794180Y-81047733D01*
X196984870Y-80884870D01*
X197147733Y-80694180D01*
X198073090Y-81619537D01*
X198077460Y-81614333D01*
X198274862Y-81349177D01*
X198278829Y-81343145D01*
X198444122Y-81056848D01*
X198447355Y-81050412D01*
X198578301Y-80746842D01*
X198580758Y-80740093D01*
X198675578Y-80423375D01*
X198677240Y-80416362D01*
X198734644Y-80090805D01*
X198735483Y-80083626D01*
X198754705Y-79753605D01*
X198754705Y-79746394D01*
X198735483Y-79416373D01*
X198734644Y-79409194D01*
X198677240Y-79083637D01*
X198675578Y-79076624D01*
X198580758Y-78759906D01*
X198578301Y-78753157D01*
X198447355Y-78449587D01*
X198444122Y-78443151D01*
X198278829Y-78156854D01*
X198274862Y-78150822D01*
X198077449Y-77885652D01*
X198073092Y-77880460D01*
X197147733Y-78805818D01*
X196984870Y-78615130D01*
X196794179Y-78452266D01*
X197716200Y-77530245D01*
X197716200Y-77530244D01*
X197587452Y-77422213D01*
X197581690Y-77417923D01*
X197305474Y-77236254D01*
X197299225Y-77232646D01*
X197003815Y-77084285D01*
X196997176Y-77081422D01*
X196686528Y-76968355D01*
X196679631Y-76966290D01*
X196357933Y-76890046D01*
X196350859Y-76888799D01*
X196022476Y-76850417D01*
X196015307Y-76850000D01*
X195684693Y-76850000D01*
X195677523Y-76850417D01*
X195349140Y-76888799D01*
X195342066Y-76890046D01*
X195020368Y-76966290D01*
X195013471Y-76968355D01*
X194702823Y-77081422D01*
X194696184Y-77084285D01*
X194400774Y-77232646D01*
X194394525Y-77236254D01*
X194118309Y-77417923D01*
X194112547Y-77422213D01*
X193983798Y-77530244D01*
X194905820Y-78452266D01*
X194715130Y-78615130D01*
X194552266Y-78805820D01*
X193626906Y-77880460D01*
X193622552Y-77885649D01*
X193425137Y-78150822D01*
X193421170Y-78156854D01*
X193255877Y-78443151D01*
X193252644Y-78449587D01*
X193121698Y-78753157D01*
X193119241Y-78759906D01*
X193024421Y-79076624D01*
X193022759Y-79083637D01*
X192965355Y-79409194D01*
X192964516Y-79416373D01*
X192945295Y-79746394D01*
X192945295Y-79753605D01*
X180119126Y-79753605D01*
X180085910Y-79691462D01*
X179960883Y-79539117D01*
X179808538Y-79414090D01*
X179775528Y-79396446D01*
X179634726Y-79321185D01*
X179446133Y-79263976D01*
X179250000Y-79244659D01*
X179053866Y-79263976D01*
X178865273Y-79321185D01*
X178691463Y-79414089D01*
X178539117Y-79539117D01*
X178414089Y-79691463D01*
X178321185Y-79865273D01*
X178263976Y-80053866D01*
X178244659Y-80249999D01*
X174750500Y-80249999D01*
X174750500Y-78573687D01*
X174770185Y-78506648D01*
X174775261Y-78499999D01*
X181994659Y-78499999D01*
X182013976Y-78696133D01*
X182071185Y-78884726D01*
X182106284Y-78950391D01*
X182164090Y-79058538D01*
X182289117Y-79210883D01*
X182441462Y-79335910D01*
X182615273Y-79428814D01*
X182803868Y-79486024D01*
X183000000Y-79505341D01*
X183196132Y-79486024D01*
X183384727Y-79428814D01*
X183483647Y-79375939D01*
X183516315Y-79364010D01*
X183529803Y-79361144D01*
X183702730Y-79284151D01*
X183702730Y-79284150D01*
X183702732Y-79284150D01*
X183855870Y-79172889D01*
X183982533Y-79032216D01*
X184077179Y-78868284D01*
X184114586Y-78753157D01*
X184135674Y-78688256D01*
X184155460Y-78500000D01*
X184135674Y-78311744D01*
X184083120Y-78150000D01*
X184077179Y-78131715D01*
X183982533Y-77967783D01*
X183855870Y-77827110D01*
X183702732Y-77715849D01*
X183610599Y-77674829D01*
X183529803Y-77638856D01*
X183529799Y-77638855D01*
X183516305Y-77635986D01*
X183483642Y-77624057D01*
X183384727Y-77571186D01*
X183384724Y-77571185D01*
X183384722Y-77571184D01*
X183196133Y-77513976D01*
X183054229Y-77500000D01*
X183000000Y-77494659D01*
X182999999Y-77494659D01*
X182803866Y-77513976D01*
X182615273Y-77571185D01*
X182441463Y-77664089D01*
X182289117Y-77789117D01*
X182164089Y-77941463D01*
X182071185Y-78115273D01*
X182013976Y-78303866D01*
X181994659Y-78499999D01*
X174775261Y-78499999D01*
X174782350Y-78490714D01*
X174817596Y-78451570D01*
X174857533Y-78407216D01*
X174876141Y-78374987D01*
X174952179Y-78243284D01*
X174987067Y-78135910D01*
X175010674Y-78063256D01*
X175030460Y-77875000D01*
X175010674Y-77686744D01*
X174952179Y-77506716D01*
X174952179Y-77506715D01*
X174857533Y-77342783D01*
X174819011Y-77300000D01*
X179094659Y-77300000D01*
X179095816Y-77311744D01*
X179113976Y-77496133D01*
X179171185Y-77684726D01*
X179187821Y-77715849D01*
X179264090Y-77858538D01*
X179389117Y-78010883D01*
X179541462Y-78135910D01*
X179715273Y-78228814D01*
X179903868Y-78286024D01*
X180100000Y-78305341D01*
X180296132Y-78286024D01*
X180484727Y-78228814D01*
X180658538Y-78135910D01*
X180671758Y-78125060D01*
X180699990Y-78107632D01*
X180752730Y-78084151D01*
X180905871Y-77972888D01*
X181032533Y-77832216D01*
X181127179Y-77668284D01*
X181185674Y-77488256D01*
X181205460Y-77300000D01*
X181185674Y-77111744D01*
X181149010Y-76998903D01*
X181127179Y-76931715D01*
X181032533Y-76767783D01*
X180905870Y-76627111D01*
X180752731Y-76515850D01*
X180752730Y-76515849D01*
X180699985Y-76492364D01*
X180671760Y-76474941D01*
X180658538Y-76464090D01*
X180636091Y-76452092D01*
X180484726Y-76371185D01*
X180296133Y-76313976D01*
X180100000Y-76294659D01*
X179903866Y-76313976D01*
X179715273Y-76371185D01*
X179541463Y-76464089D01*
X179389117Y-76589117D01*
X179264089Y-76741463D01*
X179171185Y-76915273D01*
X179113976Y-77103866D01*
X179113975Y-77103868D01*
X179113976Y-77103868D01*
X179094659Y-77300000D01*
X174819011Y-77300000D01*
X174730870Y-77202110D01*
X174577730Y-77090848D01*
X174404802Y-77013855D01*
X174219648Y-76974500D01*
X174219646Y-76974500D01*
X174030354Y-76974500D01*
X174030352Y-76974500D01*
X173845197Y-77013855D01*
X173672269Y-77090848D01*
X173519129Y-77202110D01*
X173392466Y-77342783D01*
X173297820Y-77506715D01*
X173239326Y-77686742D01*
X173219540Y-77874999D01*
X173239326Y-78063257D01*
X173243431Y-78075889D01*
X173249500Y-78114207D01*
X173249500Y-82465677D01*
X173232887Y-82527677D01*
X173172820Y-82631715D01*
X173114326Y-82811742D01*
X173094540Y-83000000D01*
X173114326Y-83188257D01*
X173172820Y-83368284D01*
X173232887Y-83472321D01*
X173249500Y-83534321D01*
X173249500Y-85215677D01*
X173232887Y-85277677D01*
X173172820Y-85381715D01*
X173114326Y-85561742D01*
X173094540Y-85750000D01*
X169147715Y-85750000D01*
X169147715Y-80881422D01*
X169167400Y-80814383D01*
X169179565Y-80798449D01*
X169229748Y-80742716D01*
X169231263Y-80740093D01*
X169324394Y-80578784D01*
X169356936Y-80478631D01*
X169382889Y-80398756D01*
X169402675Y-80210500D01*
X169382889Y-80022244D01*
X169331886Y-79865273D01*
X169324394Y-79842215D01*
X169229748Y-79678283D01*
X169103085Y-79537610D01*
X168949945Y-79426348D01*
X168777017Y-79349355D01*
X168591863Y-79310000D01*
X168591861Y-79310000D01*
X168402569Y-79310000D01*
X168402567Y-79310000D01*
X168217412Y-79349355D01*
X168044486Y-79426348D01*
X168028716Y-79437805D01*
X167962909Y-79461283D01*
X167894855Y-79445456D01*
X167882947Y-79437803D01*
X167852731Y-79415849D01*
X167809151Y-79396446D01*
X167790468Y-79388128D01*
X167745192Y-79349643D01*
X167743658Y-79350903D01*
X167732712Y-79337565D01*
X167610883Y-79189117D01*
X167458538Y-79064090D01*
X167387200Y-79025959D01*
X167284726Y-78971185D01*
X167096133Y-78913976D01*
X166900000Y-78894659D01*
X166703866Y-78913976D01*
X166515273Y-78971185D01*
X166341463Y-79064089D01*
X166189117Y-79189117D01*
X166064089Y-79341463D01*
X165971185Y-79515273D01*
X165913976Y-79703866D01*
X165894659Y-79900000D01*
X165913976Y-80096133D01*
X165971185Y-80284726D01*
X165971186Y-80284727D01*
X166057459Y-80446133D01*
X166063313Y-80457084D01*
X166077555Y-80525487D01*
X166052555Y-80590730D01*
X165996250Y-80632101D01*
X165979740Y-80636826D01*
X165970199Y-80638854D01*
X165797272Y-80715847D01*
X165730537Y-80764332D01*
X165645909Y-80825818D01*
X165580104Y-80849298D01*
X165573025Y-80849500D01*
X164085505Y-80849500D01*
X164064294Y-80847158D01*
X163991724Y-80849439D01*
X163987829Y-80849500D01*
X163959075Y-80849500D01*
X163955212Y-80849987D01*
X163955193Y-80849989D01*
X163954691Y-80850053D01*
X163943069Y-80850967D01*
X163897428Y-80852401D01*
X163877041Y-80858324D01*
X163857998Y-80862268D01*
X163836942Y-80864928D01*
X163794496Y-80881733D01*
X163783450Y-80885514D01*
X163739602Y-80898254D01*
X163721324Y-80909063D01*
X163703861Y-80917618D01*
X163684130Y-80925431D01*
X163647187Y-80952270D01*
X163637428Y-80958680D01*
X163598135Y-80981918D01*
X163583125Y-80996928D01*
X163568336Y-81009558D01*
X163551164Y-81022034D01*
X163522057Y-81057218D01*
X163514196Y-81065856D01*
X162266873Y-82313181D01*
X162205550Y-82346666D01*
X162179192Y-82349500D01*
X162155352Y-82349500D01*
X161970197Y-82388855D01*
X161797269Y-82465848D01*
X161644129Y-82577110D01*
X161517466Y-82717783D01*
X161422820Y-82881715D01*
X161364326Y-83061742D01*
X161344540Y-83250000D01*
X161364326Y-83438257D01*
X161396210Y-83536385D01*
X161398205Y-83606226D01*
X161362124Y-83666059D01*
X161299423Y-83696887D01*
X161242800Y-83690389D01*
X161242551Y-83691565D01*
X161230242Y-83688948D01*
X161230009Y-83688922D01*
X161229905Y-83688877D01*
X161044648Y-83649500D01*
X161044646Y-83649500D01*
X160855354Y-83649500D01*
X160855352Y-83649500D01*
X160670197Y-83688855D01*
X160497270Y-83765848D01*
X160426270Y-83817432D01*
X160411840Y-83826471D01*
X160341463Y-83864088D01*
X160189115Y-83989119D01*
X160064089Y-84141463D01*
X159971185Y-84315273D01*
X159913976Y-84503866D01*
X159894659Y-84700000D01*
X159913976Y-84896133D01*
X159971185Y-85084726D01*
X160032188Y-85198854D01*
X160064090Y-85258538D01*
X160189117Y-85410883D01*
X160341462Y-85535910D01*
X160515273Y-85628814D01*
X160703868Y-85686024D01*
X160900000Y-85705341D01*
X161096132Y-85686024D01*
X161284727Y-85628814D01*
X161458538Y-85535910D01*
X161465656Y-85530068D01*
X161529960Y-85502753D01*
X161598828Y-85514541D01*
X161650391Y-85561690D01*
X161668278Y-85629232D01*
X161662253Y-85664236D01*
X161614326Y-85811740D01*
X161594540Y-86000000D01*
X161614326Y-86188257D01*
X161672820Y-86368284D01*
X161732887Y-86472321D01*
X161749500Y-86534321D01*
X161749500Y-86814494D01*
X161747158Y-86835702D01*
X161749439Y-86908262D01*
X161749500Y-86912156D01*
X161749500Y-86940925D01*
X161749987Y-86944785D01*
X161749989Y-86944808D01*
X161750054Y-86945320D01*
X161750968Y-86956942D01*
X161752402Y-87002569D01*
X161758323Y-87022950D01*
X161762267Y-87041995D01*
X161764928Y-87063057D01*
X161773022Y-87083500D01*
X161779398Y-87153078D01*
X161747145Y-87215058D01*
X161686503Y-87249761D01*
X161669884Y-87252549D01*
X161553865Y-87263976D01*
X161365273Y-87321185D01*
X161191463Y-87414089D01*
X161039117Y-87539117D01*
X160914089Y-87691463D01*
X160821185Y-87865273D01*
X160763976Y-88053866D01*
X160744658Y-88250004D01*
X160746566Y-88269377D01*
X160733545Y-88338023D01*
X160710844Y-88369208D01*
X160546848Y-88533205D01*
X160485528Y-88566689D01*
X160459169Y-88569523D01*
X160146998Y-88569523D01*
X160079959Y-88549838D01*
X160074128Y-88545852D01*
X159922753Y-88435872D01*
X159922752Y-88435871D01*
X159922750Y-88435870D01*
X159749825Y-88358878D01*
X159564671Y-88319523D01*
X159564669Y-88319523D01*
X159375377Y-88319523D01*
X159375375Y-88319523D01*
X159190220Y-88358878D01*
X159017292Y-88435871D01*
X158864152Y-88547133D01*
X158737489Y-88687806D01*
X158642843Y-88851738D01*
X158584349Y-89031765D01*
X158576280Y-89108536D01*
X158564563Y-89220023D01*
X158569236Y-89264484D01*
X158584349Y-89408280D01*
X158642843Y-89588307D01*
X158737489Y-89752239D01*
X158864152Y-89892912D01*
X159017292Y-90004174D01*
X159190220Y-90081167D01*
X159375375Y-90120523D01*
X159375377Y-90120523D01*
X159564671Y-90120523D01*
X159688107Y-90094285D01*
X159749826Y-90081167D01*
X159922753Y-90004174D01*
X160074113Y-89894204D01*
X160139919Y-89870725D01*
X160146998Y-89870523D01*
X160694472Y-89870523D01*
X160715681Y-89872864D01*
X160718271Y-89872782D01*
X160718273Y-89872783D01*
X160788239Y-89870583D01*
X160792134Y-89870523D01*
X160817002Y-89870523D01*
X160820902Y-89870523D01*
X160825271Y-89869970D01*
X160836916Y-89869053D01*
X160882546Y-89867620D01*
X160902926Y-89861698D01*
X160921966Y-89857755D01*
X160943035Y-89855094D01*
X160985497Y-89838281D01*
X160996534Y-89834503D01*
X161040375Y-89821767D01*
X161058647Y-89810959D01*
X161076113Y-89802403D01*
X161095848Y-89794591D01*
X161132793Y-89767748D01*
X161142525Y-89761355D01*
X161181842Y-89738104D01*
X161196851Y-89723094D01*
X161211640Y-89710462D01*
X161228814Y-89697986D01*
X161257923Y-89662797D01*
X161265767Y-89654177D01*
X161630792Y-89289152D01*
X161692113Y-89255669D01*
X161730622Y-89253432D01*
X161750000Y-89255341D01*
X161946132Y-89236024D01*
X162134727Y-89178814D01*
X162267048Y-89108086D01*
X162335449Y-89093845D01*
X162400693Y-89118845D01*
X162442064Y-89175150D01*
X162449500Y-89217445D01*
X162449500Y-90579191D01*
X162429815Y-90646230D01*
X162413181Y-90666872D01*
X160906358Y-92173694D01*
X160845035Y-92207179D01*
X160775343Y-92202195D01*
X160719410Y-92160323D01*
X160694993Y-92094859D01*
X160700746Y-92047695D01*
X160710286Y-92018337D01*
X160730072Y-91830081D01*
X160710286Y-91641825D01*
X160658210Y-91481552D01*
X160651791Y-91461796D01*
X160557145Y-91297864D01*
X160430482Y-91157191D01*
X160277342Y-91045929D01*
X160104414Y-90968936D01*
X159919260Y-90929581D01*
X159919258Y-90929581D01*
X159729966Y-90929581D01*
X159729964Y-90929581D01*
X159544809Y-90968936D01*
X159371884Y-91045928D01*
X159328966Y-91077110D01*
X159220521Y-91155899D01*
X159154716Y-91179379D01*
X159147637Y-91179581D01*
X157165315Y-91179581D01*
X157098276Y-91159896D01*
X157052521Y-91107092D01*
X157047385Y-91093901D01*
X157031797Y-91045929D01*
X157027179Y-91031716D01*
X156971139Y-90934651D01*
X156932534Y-90867785D01*
X156805870Y-90727110D01*
X156652730Y-90615848D01*
X156479802Y-90538855D01*
X156447556Y-90532001D01*
X156386074Y-90498809D01*
X156352298Y-90437645D01*
X156356950Y-90367931D01*
X156398555Y-90311799D01*
X156422903Y-90297431D01*
X156423011Y-90297382D01*
X156452730Y-90284151D01*
X156546740Y-90215849D01*
X156605870Y-90172889D01*
X156732533Y-90032216D01*
X156827179Y-89868284D01*
X156842333Y-89821644D01*
X156885674Y-89688256D01*
X156905460Y-89500000D01*
X156885674Y-89311744D01*
X156840557Y-89172888D01*
X156827179Y-89131715D01*
X156732533Y-88967783D01*
X156605870Y-88827110D01*
X156452730Y-88715848D01*
X156279802Y-88638855D01*
X156094648Y-88599500D01*
X156094646Y-88599500D01*
X155905354Y-88599500D01*
X155905351Y-88599500D01*
X155805855Y-88620648D01*
X155736188Y-88615332D01*
X155680455Y-88573195D01*
X155656754Y-88512319D01*
X155655459Y-88500003D01*
X155655460Y-88500000D01*
X155635674Y-88311744D01*
X155625756Y-88281222D01*
X155623762Y-88211385D01*
X155659842Y-88151552D01*
X155722542Y-88120723D01*
X155769469Y-88121617D01*
X155905352Y-88150500D01*
X155905354Y-88150500D01*
X156094648Y-88150500D01*
X156234737Y-88120723D01*
X156279803Y-88111144D01*
X156452730Y-88034151D01*
X156517559Y-87987050D01*
X156605870Y-87922889D01*
X156732533Y-87782216D01*
X156827179Y-87618284D01*
X156836436Y-87589795D01*
X156885674Y-87438256D01*
X156905460Y-87250000D01*
X156885674Y-87061744D01*
X156845369Y-86937698D01*
X156827179Y-86881715D01*
X156732533Y-86717783D01*
X156605870Y-86577110D01*
X156452730Y-86465848D01*
X156279802Y-86388855D01*
X156094648Y-86349500D01*
X156094646Y-86349500D01*
X155905354Y-86349500D01*
X155905352Y-86349500D01*
X155720197Y-86388855D01*
X155547272Y-86465847D01*
X155516147Y-86488461D01*
X155395909Y-86575818D01*
X155330104Y-86599298D01*
X155323025Y-86599500D01*
X152277568Y-86599500D01*
X152210529Y-86579815D01*
X152164774Y-86527011D01*
X152154247Y-86488461D01*
X152152551Y-86472321D01*
X152135674Y-86311744D01*
X152097998Y-86195791D01*
X152077179Y-86131715D01*
X151982533Y-85967783D01*
X151855870Y-85827110D01*
X151702730Y-85715848D01*
X151529802Y-85638855D01*
X151344648Y-85599500D01*
X151344646Y-85599500D01*
X151320808Y-85599500D01*
X151253769Y-85579815D01*
X151233127Y-85563181D01*
X150020434Y-84350488D01*
X150007091Y-84333833D01*
X149954166Y-84284134D01*
X149951369Y-84281423D01*
X149933789Y-84263843D01*
X149931035Y-84261089D01*
X149927956Y-84258701D01*
X149927951Y-84258696D01*
X149927548Y-84258383D01*
X149918669Y-84250800D01*
X149885392Y-84219551D01*
X149866793Y-84209326D01*
X149850532Y-84198645D01*
X149833764Y-84185638D01*
X149791870Y-84167508D01*
X149781379Y-84162369D01*
X149728251Y-84133162D01*
X149678987Y-84083616D01*
X149664330Y-84015301D01*
X149688933Y-83949907D01*
X149744986Y-83908195D01*
X149787988Y-83900500D01*
X153071747Y-83900500D01*
X153138786Y-83920185D01*
X153163895Y-83941526D01*
X153174105Y-83952865D01*
X153327246Y-84064128D01*
X153500174Y-84141121D01*
X153685329Y-84180477D01*
X153685331Y-84180477D01*
X153874625Y-84180477D01*
X154015655Y-84150500D01*
X154059780Y-84141121D01*
X154232707Y-84064128D01*
X154299912Y-84015301D01*
X154385847Y-83952866D01*
X154451010Y-83880496D01*
X154512510Y-83812193D01*
X154607156Y-83648261D01*
X154665651Y-83468233D01*
X154685437Y-83279977D01*
X154665651Y-83091721D01*
X154607156Y-82911693D01*
X154607156Y-82911692D01*
X154512510Y-82747760D01*
X154385847Y-82607087D01*
X154232707Y-82495825D01*
X154059779Y-82418832D01*
X153874625Y-82379477D01*
X153874623Y-82379477D01*
X153685331Y-82379477D01*
X153685329Y-82379477D01*
X153500174Y-82418832D01*
X153327246Y-82495825D01*
X153217146Y-82575818D01*
X153151340Y-82599298D01*
X153144261Y-82599500D01*
X142753954Y-82599500D01*
X142686915Y-82579815D01*
X142641160Y-82527011D01*
X142631216Y-82457853D01*
X142635591Y-82439039D01*
X142635672Y-82438259D01*
X142635674Y-82438256D01*
X142655460Y-82250000D01*
X142635674Y-82061744D01*
X142577179Y-81881716D01*
X142577179Y-81881715D01*
X142517113Y-81777677D01*
X142500500Y-81715677D01*
X142500500Y-79862228D01*
X142520185Y-79795189D01*
X142536814Y-79774552D01*
X143902770Y-78408595D01*
X143964091Y-78375112D01*
X143964464Y-78375031D01*
X144029803Y-78361144D01*
X144029804Y-78361143D01*
X144029806Y-78361143D01*
X144202730Y-78284151D01*
X144355870Y-78172889D01*
X144376480Y-78150000D01*
X144482533Y-78032216D01*
X144577179Y-77868284D01*
X144635674Y-77688256D01*
X144655460Y-77500000D01*
X144635674Y-77311744D01*
X144577179Y-77131716D01*
X144577179Y-77131715D01*
X144517113Y-77027677D01*
X144500500Y-76965677D01*
X144500500Y-75704716D01*
X144520185Y-75637677D01*
X144572989Y-75591922D01*
X144573902Y-75591509D01*
X144702730Y-75534151D01*
X144702730Y-75534150D01*
X144702732Y-75534150D01*
X144855870Y-75422889D01*
X144982533Y-75282216D01*
X145077179Y-75118284D01*
X145087738Y-75085788D01*
X145135674Y-74938256D01*
X145155460Y-74750000D01*
X145135674Y-74561744D01*
X145105332Y-74468363D01*
X145077179Y-74381715D01*
X144982533Y-74217783D01*
X144855870Y-74077110D01*
X144702730Y-73965848D01*
X144529802Y-73888855D01*
X144344648Y-73849500D01*
X144344646Y-73849500D01*
X144155354Y-73849500D01*
X144155352Y-73849500D01*
X143970197Y-73888855D01*
X143797269Y-73965848D01*
X143644129Y-74077110D01*
X143517466Y-74217783D01*
X143422821Y-74381714D01*
X143367478Y-74552040D01*
X143337228Y-74601402D01*
X143264358Y-74674272D01*
X143250727Y-74686053D01*
X143231468Y-74700391D01*
X143199635Y-74738328D01*
X143192338Y-74746292D01*
X143190972Y-74747657D01*
X143190950Y-74747681D01*
X143188409Y-74750223D01*
X143186173Y-74753050D01*
X143186171Y-74753053D01*
X143169176Y-74774546D01*
X143166902Y-74777337D01*
X143117894Y-74835744D01*
X143107418Y-74852187D01*
X143075192Y-74921294D01*
X143073622Y-74924536D01*
X143039393Y-74992692D01*
X143032996Y-75011098D01*
X143017573Y-75085788D01*
X143016793Y-75089305D01*
X142999208Y-75163506D01*
X142997229Y-75182879D01*
X142999448Y-75259129D01*
X142999500Y-75262735D01*
X142999500Y-76965677D01*
X142982887Y-77027677D01*
X142922821Y-77131714D01*
X142867478Y-77302040D01*
X142837228Y-77351402D01*
X141264358Y-78924272D01*
X141250727Y-78936053D01*
X141231468Y-78950391D01*
X141199635Y-78988328D01*
X141192338Y-78996292D01*
X141190972Y-78997657D01*
X141190950Y-78997681D01*
X141188409Y-79000223D01*
X141186173Y-79003050D01*
X141186171Y-79003053D01*
X141169176Y-79024546D01*
X141166902Y-79027337D01*
X141117894Y-79085744D01*
X141107418Y-79102187D01*
X141075192Y-79171294D01*
X141073622Y-79174536D01*
X141039393Y-79242692D01*
X141032996Y-79261098D01*
X141017573Y-79335788D01*
X141016793Y-79339305D01*
X140999208Y-79413506D01*
X140997229Y-79432879D01*
X140999448Y-79509129D01*
X140999500Y-79512735D01*
X140999500Y-81715677D01*
X140982887Y-81777677D01*
X140922820Y-81881715D01*
X140864326Y-82061742D01*
X140844540Y-82250000D01*
X140852852Y-82329085D01*
X140840282Y-82397815D01*
X140792550Y-82448838D01*
X140724810Y-82465956D01*
X140679095Y-82455325D01*
X140529802Y-82388855D01*
X140344648Y-82349500D01*
X140344646Y-82349500D01*
X140155354Y-82349500D01*
X140155352Y-82349500D01*
X139970197Y-82388855D01*
X139797269Y-82465848D01*
X139644129Y-82577110D01*
X139517466Y-82717783D01*
X139422820Y-82881715D01*
X139364326Y-83061742D01*
X139344540Y-83249999D01*
X139364326Y-83438257D01*
X139422820Y-83618284D01*
X139517466Y-83782216D01*
X139644129Y-83922889D01*
X139797269Y-84034151D01*
X139970197Y-84111144D01*
X140155352Y-84150500D01*
X140341539Y-84150500D01*
X140408578Y-84170185D01*
X140454333Y-84222989D01*
X140464277Y-84292147D01*
X140448926Y-84336500D01*
X140422820Y-84381715D01*
X140364326Y-84561742D01*
X140364325Y-84561744D01*
X140364326Y-84561744D01*
X140344540Y-84750000D01*
X140346117Y-84765000D01*
X140364326Y-84938257D01*
X140422820Y-85118284D01*
X140517466Y-85282216D01*
X140644129Y-85422889D01*
X140797269Y-85534151D01*
X140970197Y-85611144D01*
X141155352Y-85650500D01*
X141155354Y-85650500D01*
X141344648Y-85650500D01*
X141471978Y-85623435D01*
X141529803Y-85611144D01*
X141702730Y-85534151D01*
X141854090Y-85424181D01*
X141919896Y-85400702D01*
X141926975Y-85400500D01*
X143222485Y-85400500D01*
X143289524Y-85420185D01*
X143335279Y-85472989D01*
X143345804Y-85511534D01*
X143359187Y-85638856D01*
X143364326Y-85687757D01*
X143422820Y-85867784D01*
X143429429Y-85879231D01*
X143445899Y-85947131D01*
X143423046Y-86013158D01*
X143409722Y-86028909D01*
X143188409Y-86250223D01*
X143188405Y-86250227D01*
X142782486Y-86656144D01*
X142765172Y-86670250D01*
X142764304Y-86671169D01*
X142764304Y-86671170D01*
X142712815Y-86725743D01*
X142710337Y-86728294D01*
X142688409Y-86750223D01*
X142475451Y-86963181D01*
X142414128Y-86996666D01*
X142387770Y-86999500D01*
X135789337Y-86999500D01*
X135722298Y-86979815D01*
X135716450Y-86975817D01*
X135702728Y-86965847D01*
X135529802Y-86888855D01*
X135344648Y-86849500D01*
X135344646Y-86849500D01*
X135155354Y-86849500D01*
X135155352Y-86849500D01*
X135019579Y-86878359D01*
X134949912Y-86873043D01*
X134906117Y-86844750D01*
X133162771Y-85101403D01*
X133132521Y-85052040D01*
X133077179Y-84881715D01*
X132982533Y-84717783D01*
X132855870Y-84577110D01*
X132702730Y-84465848D01*
X132529802Y-84388855D01*
X132344648Y-84349500D01*
X132344646Y-84349500D01*
X132155354Y-84349500D01*
X132155352Y-84349500D01*
X131970197Y-84388855D01*
X131797269Y-84465848D01*
X131644129Y-84577110D01*
X131517466Y-84717783D01*
X131422820Y-84881715D01*
X131364326Y-85061742D01*
X131344655Y-85248903D01*
X131344540Y-85250000D01*
X131352644Y-85327110D01*
X131364326Y-85438257D01*
X131422820Y-85618284D01*
X131517466Y-85782216D01*
X131644129Y-85922889D01*
X131797269Y-86034151D01*
X131970193Y-86111143D01*
X131970196Y-86111143D01*
X131970197Y-86111144D01*
X132035329Y-86124987D01*
X132096808Y-86158178D01*
X132097228Y-86158596D01*
X134174269Y-88235637D01*
X134186051Y-88249270D01*
X134200390Y-88268531D01*
X134238338Y-88300373D01*
X134246313Y-88307681D01*
X134250223Y-88311591D01*
X134274556Y-88330830D01*
X134277335Y-88333095D01*
X134335752Y-88382113D01*
X134352179Y-88392578D01*
X134421320Y-88424819D01*
X134424567Y-88426391D01*
X134492699Y-88460609D01*
X134511087Y-88467000D01*
X134512323Y-88467255D01*
X134512327Y-88467257D01*
X134585895Y-88482447D01*
X134589242Y-88483189D01*
X134662279Y-88500500D01*
X134662281Y-88500500D01*
X134663509Y-88500791D01*
X134682879Y-88502770D01*
X134684140Y-88502733D01*
X134684144Y-88502734D01*
X134709057Y-88502008D01*
X134776639Y-88519731D01*
X134785551Y-88525636D01*
X134797270Y-88534151D01*
X134797271Y-88534151D01*
X134797272Y-88534152D01*
X134970197Y-88611144D01*
X135155352Y-88650500D01*
X135155354Y-88650500D01*
X135344648Y-88650500D01*
X135489404Y-88619731D01*
X135529803Y-88611144D01*
X135702730Y-88534151D01*
X135716449Y-88524183D01*
X135782256Y-88500702D01*
X135789337Y-88500500D01*
X140638770Y-88500500D01*
X140705809Y-88520185D01*
X140751564Y-88572989D01*
X140761508Y-88642147D01*
X140732483Y-88705703D01*
X140726451Y-88712181D01*
X140214359Y-89224271D01*
X140200728Y-89236051D01*
X140181470Y-89250388D01*
X140149635Y-89288328D01*
X140142338Y-89296292D01*
X140140972Y-89297657D01*
X140140950Y-89297681D01*
X140138409Y-89300223D01*
X140136173Y-89303050D01*
X140136171Y-89303053D01*
X140119176Y-89324546D01*
X140116902Y-89327337D01*
X140067893Y-89385744D01*
X140055894Y-89404580D01*
X140048226Y-89414281D01*
X139991211Y-89454668D01*
X139921413Y-89457820D01*
X139860991Y-89422735D01*
X139858797Y-89420361D01*
X139855870Y-89417111D01*
X139702730Y-89305848D01*
X139529802Y-89228855D01*
X139344648Y-89189500D01*
X139344646Y-89189500D01*
X139155354Y-89189500D01*
X139155352Y-89189500D01*
X138970197Y-89228855D01*
X138797269Y-89305848D01*
X138644129Y-89417110D01*
X138517463Y-89557787D01*
X138507525Y-89574999D01*
X138495996Y-89591657D01*
X138414089Y-89691462D01*
X138321185Y-89865273D01*
X138263976Y-90053866D01*
X138248022Y-90215850D01*
X138244659Y-90250000D01*
X138249717Y-90301351D01*
X138263976Y-90446133D01*
X138321185Y-90634726D01*
X138387449Y-90758696D01*
X138414090Y-90808538D01*
X138539117Y-90960883D01*
X138691462Y-91085910D01*
X138865273Y-91178814D01*
X139053868Y-91236024D01*
X139250000Y-91255341D01*
X139446132Y-91236024D01*
X139632199Y-91179581D01*
X139639504Y-91177365D01*
X139709371Y-91176741D01*
X139768484Y-91213989D01*
X139798075Y-91277283D01*
X139799500Y-91296025D01*
X139799500Y-91738380D01*
X139779815Y-91805419D01*
X139763181Y-91826061D01*
X138376061Y-93213181D01*
X138314738Y-93246666D01*
X138288380Y-93249500D01*
X135813706Y-93249500D01*
X135795736Y-93248191D01*
X135781853Y-93246157D01*
X135771977Y-93244711D01*
X135771976Y-93244711D01*
X135722631Y-93249028D01*
X135711824Y-93249500D01*
X135706291Y-93249500D01*
X135702730Y-93249916D01*
X135702715Y-93249917D01*
X135675501Y-93253098D01*
X135671916Y-93253464D01*
X135595961Y-93260109D01*
X135576921Y-93264330D01*
X135505232Y-93290421D01*
X135501831Y-93291603D01*
X135429474Y-93315580D01*
X135411927Y-93324075D01*
X135348221Y-93365975D01*
X135345181Y-93367912D01*
X135280280Y-93407944D01*
X135265165Y-93420256D01*
X135212832Y-93475725D01*
X135210320Y-93478311D01*
X134475451Y-94213181D01*
X134414128Y-94246666D01*
X134387770Y-94249500D01*
X129039337Y-94249500D01*
X128972298Y-94229815D01*
X128966450Y-94225817D01*
X128952728Y-94215847D01*
X128779802Y-94138855D01*
X128594648Y-94099500D01*
X128594646Y-94099500D01*
X128405354Y-94099500D01*
X128405352Y-94099500D01*
X128220197Y-94138855D01*
X128047269Y-94215848D01*
X127894129Y-94327110D01*
X127767466Y-94467783D01*
X127672820Y-94631715D01*
X127614326Y-94811742D01*
X127594540Y-94999999D01*
X127594540Y-95000000D01*
X103505317Y-95000000D01*
X103505915Y-92950000D01*
X108279659Y-92950000D01*
X108298976Y-93146133D01*
X108356185Y-93334726D01*
X108395321Y-93407944D01*
X108449090Y-93508538D01*
X108574117Y-93660883D01*
X108726462Y-93785910D01*
X108900273Y-93878814D01*
X109088868Y-93936024D01*
X109285000Y-93955341D01*
X109481132Y-93936024D01*
X109669727Y-93878814D01*
X109843538Y-93785910D01*
X109995883Y-93660883D01*
X110120910Y-93508538D01*
X110213814Y-93334727D01*
X110271024Y-93146132D01*
X110290341Y-92950000D01*
X110271024Y-92753868D01*
X110213814Y-92565273D01*
X110120910Y-92391462D01*
X109995883Y-92239117D01*
X109843538Y-92114090D01*
X109778879Y-92079529D01*
X109669726Y-92021185D01*
X109481133Y-91963976D01*
X109285000Y-91944659D01*
X109088866Y-91963976D01*
X108900273Y-92021185D01*
X108726463Y-92114089D01*
X108574117Y-92239117D01*
X108449089Y-92391463D01*
X108356185Y-92565273D01*
X108298976Y-92753866D01*
X108279659Y-92950000D01*
X103505915Y-92950000D01*
X103507200Y-88550000D01*
X108279659Y-88550000D01*
X108298976Y-88746133D01*
X108356185Y-88934726D01*
X108411581Y-89038364D01*
X108449090Y-89108538D01*
X108574117Y-89260883D01*
X108726462Y-89385910D01*
X108900273Y-89478814D01*
X109088868Y-89536024D01*
X109285000Y-89555341D01*
X109481132Y-89536024D01*
X109669727Y-89478814D01*
X109843538Y-89385910D01*
X109995883Y-89260883D01*
X109996608Y-89260000D01*
X132610000Y-89260000D01*
X132610000Y-92010000D01*
X134360000Y-92010000D01*
X134360000Y-89260000D01*
X132610000Y-89260000D01*
X109996608Y-89260000D01*
X110120910Y-89108538D01*
X110213814Y-88934727D01*
X110271024Y-88746132D01*
X110290341Y-88550000D01*
X110271024Y-88353868D01*
X110213814Y-88165273D01*
X110120910Y-87991462D01*
X109995883Y-87839117D01*
X109843538Y-87714090D01*
X109790067Y-87685509D01*
X109669726Y-87621185D01*
X109481133Y-87563976D01*
X109285000Y-87544659D01*
X109088866Y-87563976D01*
X108900273Y-87621185D01*
X108726463Y-87714089D01*
X108574117Y-87839117D01*
X108449089Y-87991463D01*
X108356185Y-88165273D01*
X108298976Y-88353866D01*
X108279659Y-88550000D01*
X103507200Y-88550000D01*
X103511667Y-73250000D01*
X104844571Y-73250000D01*
X104864243Y-73462310D01*
X104922595Y-73667390D01*
X105017631Y-73858252D01*
X105146126Y-74028405D01*
X105146128Y-74028407D01*
X105303698Y-74172052D01*
X105484981Y-74284298D01*
X105683802Y-74361321D01*
X105893390Y-74400500D01*
X105893392Y-74400500D01*
X106106608Y-74400500D01*
X106106610Y-74400500D01*
X106316198Y-74361321D01*
X106515019Y-74284298D01*
X106696302Y-74172052D01*
X106853872Y-74028407D01*
X106982366Y-73858255D01*
X106982366Y-73858253D01*
X106982368Y-73858252D01*
X107030080Y-73762430D01*
X107077405Y-73667389D01*
X107135756Y-73462310D01*
X107155429Y-73250000D01*
X107155429Y-73249999D01*
X203844571Y-73249999D01*
X203864243Y-73462310D01*
X203922595Y-73667390D01*
X204017631Y-73858252D01*
X204146126Y-74028405D01*
X204146128Y-74028407D01*
X204303698Y-74172052D01*
X204484981Y-74284298D01*
X204683802Y-74361321D01*
X204893390Y-74400500D01*
X204893392Y-74400500D01*
X205106608Y-74400500D01*
X205106610Y-74400500D01*
X205316198Y-74361321D01*
X205515019Y-74284298D01*
X205696302Y-74172052D01*
X205853872Y-74028407D01*
X205982366Y-73858255D01*
X205982366Y-73858253D01*
X205982368Y-73858252D01*
X206030080Y-73762430D01*
X206077405Y-73667389D01*
X206135756Y-73462310D01*
X206155429Y-73250000D01*
X206135756Y-73037690D01*
X206125830Y-73002806D01*
X206110441Y-72948719D01*
X206077405Y-72832611D01*
X206012957Y-72703180D01*
X205982368Y-72641747D01*
X205853873Y-72471594D01*
X205696301Y-72327947D01*
X205515017Y-72215701D01*
X205316198Y-72138679D01*
X205316197Y-72138679D01*
X205106610Y-72099500D01*
X204893390Y-72099500D01*
X204753664Y-72125619D01*
X204683801Y-72138679D01*
X204484982Y-72215701D01*
X204303698Y-72327947D01*
X204146126Y-72471594D01*
X204017631Y-72641747D01*
X203922595Y-72832609D01*
X203864243Y-73037689D01*
X203844571Y-73249999D01*
X107155429Y-73249999D01*
X107135756Y-73037690D01*
X107125830Y-73002806D01*
X107110441Y-72948719D01*
X107077405Y-72832611D01*
X107012957Y-72703180D01*
X106982368Y-72641747D01*
X106853873Y-72471594D01*
X106696301Y-72327947D01*
X106515017Y-72215701D01*
X106316198Y-72138679D01*
X106316197Y-72138679D01*
X106106610Y-72099500D01*
X105893390Y-72099500D01*
X105753664Y-72125619D01*
X105683801Y-72138679D01*
X105484982Y-72215701D01*
X105303698Y-72327947D01*
X105146126Y-72471594D01*
X105017631Y-72641747D01*
X104922595Y-72832609D01*
X104864243Y-73037689D01*
X104844571Y-73250000D01*
X103511667Y-73250000D01*
X103511736Y-73012268D01*
X103513306Y-72992639D01*
X103526206Y-72912336D01*
X103560981Y-72703180D01*
X103564102Y-72689361D01*
X103600436Y-72562772D01*
X103649746Y-72401020D01*
X103654103Y-72389003D01*
X103708269Y-72260793D01*
X103709559Y-72257853D01*
X103775733Y-72112432D01*
X103780952Y-72102246D01*
X103851757Y-71978567D01*
X103854083Y-71974678D01*
X103936990Y-71841908D01*
X103942686Y-71833568D01*
X104028720Y-71718056D01*
X104032382Y-71713383D01*
X104131040Y-71593686D01*
X104136815Y-71587168D01*
X104236480Y-71482387D01*
X104241730Y-71477189D01*
X104354859Y-71371734D01*
X104360417Y-71366858D01*
X104471929Y-71274787D01*
X104478858Y-71269467D01*
X104605141Y-71179474D01*
X104610098Y-71176122D01*
X104731358Y-71098402D01*
X104740031Y-71093332D01*
X104878312Y-71019929D01*
X104882430Y-71017844D01*
X105010696Y-70955923D01*
X105021215Y-70951434D01*
X105170983Y-70895597D01*
X105173947Y-70894538D01*
X105305628Y-70849503D01*
X105317974Y-70845984D01*
X105482736Y-70808151D01*
X105611602Y-70780777D01*
X105625598Y-70778635D01*
X105836672Y-70758615D01*
X105908399Y-70752207D01*
X105922010Y-70750992D01*
X105933041Y-70750500D01*
X204996249Y-70750500D01*
X205003736Y-70750726D01*
G37*
%TD.AperFunction*%
%TD*%
M02*
