%TF.GenerationSoftware,KiCad,Pcbnew,7.0.2*%
%TF.CreationDate,2023-06-17T11:36:00+01:00*%
%TF.ProjectId,serial_snooper,73657269-616c-45f7-936e-6f6f7065722e,rev?*%
%TF.SameCoordinates,Original*%
%TF.FileFunction,Legend,Top*%
%TF.FilePolarity,Positive*%
%FSLAX46Y46*%
G04 Gerber Fmt 4.6, Leading zero omitted, Abs format (unit mm)*
G04 Created by KiCad (PCBNEW 7.0.2) date 2023-06-17 11:36:00*
%MOMM*%
%LPD*%
G01*
G04 APERTURE LIST*
%ADD10C,0.155000*%
%ADD11C,0.150000*%
%ADD12C,0.120000*%
%ADD13C,0.200000*%
%ADD14C,0.100000*%
%ADD15C,0.250000*%
%ADD16C,0.254000*%
%ADD17C,0.191421*%
%ADD18C,0.350000*%
G04 APERTURE END LIST*
D10*
X171077500Y-86000000D02*
G75*
G03*
X171077500Y-86000000I-77500J0D01*
G01*
D11*
X133250000Y-76750000D02*
X133500000Y-76500000D01*
D10*
X139777500Y-72800000D02*
G75*
G03*
X139777500Y-72800000I-77500J0D01*
G01*
X150977500Y-94700000D02*
G75*
G03*
X150977500Y-94700000I-77500J0D01*
G01*
D11*
X183900000Y-98925000D02*
X183900000Y-97875000D01*
X183900000Y-97875000D02*
X184150000Y-98125000D01*
D10*
X134677500Y-90100000D02*
G75*
G03*
X134677500Y-90100000I-77500J0D01*
G01*
X180277500Y-97600000D02*
G75*
G03*
X180277500Y-97600000I-77500J0D01*
G01*
D11*
X183650000Y-98125000D02*
X183900000Y-97875000D01*
X133500000Y-78000000D02*
X133500000Y-76500000D01*
X133500000Y-76500000D02*
X133250000Y-76750000D01*
X133500000Y-76500000D02*
X133750000Y-76750000D01*
D12*
X158364285Y-78102095D02*
X158859523Y-78102095D01*
X158859523Y-78102095D02*
X158592857Y-78406857D01*
X158592857Y-78406857D02*
X158707142Y-78406857D01*
X158707142Y-78406857D02*
X158783333Y-78444952D01*
X158783333Y-78444952D02*
X158821428Y-78483047D01*
X158821428Y-78483047D02*
X158859523Y-78559238D01*
X158859523Y-78559238D02*
X158859523Y-78749714D01*
X158859523Y-78749714D02*
X158821428Y-78825904D01*
X158821428Y-78825904D02*
X158783333Y-78864000D01*
X158783333Y-78864000D02*
X158707142Y-78902095D01*
X158707142Y-78902095D02*
X158478571Y-78902095D01*
X158478571Y-78902095D02*
X158402380Y-78864000D01*
X158402380Y-78864000D02*
X158364285Y-78825904D01*
X159126190Y-78368761D02*
X159316666Y-78902095D01*
X159316666Y-78902095D02*
X159507143Y-78368761D01*
X159735714Y-78102095D02*
X160230952Y-78102095D01*
X160230952Y-78102095D02*
X159964286Y-78406857D01*
X159964286Y-78406857D02*
X160078571Y-78406857D01*
X160078571Y-78406857D02*
X160154762Y-78444952D01*
X160154762Y-78444952D02*
X160192857Y-78483047D01*
X160192857Y-78483047D02*
X160230952Y-78559238D01*
X160230952Y-78559238D02*
X160230952Y-78749714D01*
X160230952Y-78749714D02*
X160192857Y-78825904D01*
X160192857Y-78825904D02*
X160154762Y-78864000D01*
X160154762Y-78864000D02*
X160078571Y-78902095D01*
X160078571Y-78902095D02*
X159850000Y-78902095D01*
X159850000Y-78902095D02*
X159773809Y-78864000D01*
X159773809Y-78864000D02*
X159735714Y-78825904D01*
X150652380Y-74364000D02*
X150766666Y-74402095D01*
X150766666Y-74402095D02*
X150957142Y-74402095D01*
X150957142Y-74402095D02*
X151033333Y-74364000D01*
X151033333Y-74364000D02*
X151071428Y-74325904D01*
X151071428Y-74325904D02*
X151109523Y-74249714D01*
X151109523Y-74249714D02*
X151109523Y-74173523D01*
X151109523Y-74173523D02*
X151071428Y-74097333D01*
X151071428Y-74097333D02*
X151033333Y-74059238D01*
X151033333Y-74059238D02*
X150957142Y-74021142D01*
X150957142Y-74021142D02*
X150804761Y-73983047D01*
X150804761Y-73983047D02*
X150728571Y-73944952D01*
X150728571Y-73944952D02*
X150690476Y-73906857D01*
X150690476Y-73906857D02*
X150652380Y-73830666D01*
X150652380Y-73830666D02*
X150652380Y-73754476D01*
X150652380Y-73754476D02*
X150690476Y-73678285D01*
X150690476Y-73678285D02*
X150728571Y-73640190D01*
X150728571Y-73640190D02*
X150804761Y-73602095D01*
X150804761Y-73602095D02*
X150995238Y-73602095D01*
X150995238Y-73602095D02*
X151109523Y-73640190D01*
X151376190Y-73602095D02*
X151566666Y-74402095D01*
X151566666Y-74402095D02*
X151719047Y-73830666D01*
X151719047Y-73830666D02*
X151871428Y-74402095D01*
X151871428Y-74402095D02*
X152061905Y-73602095D01*
X152519048Y-73602095D02*
X152671429Y-73602095D01*
X152671429Y-73602095D02*
X152747619Y-73640190D01*
X152747619Y-73640190D02*
X152823810Y-73716380D01*
X152823810Y-73716380D02*
X152861905Y-73868761D01*
X152861905Y-73868761D02*
X152861905Y-74135428D01*
X152861905Y-74135428D02*
X152823810Y-74287809D01*
X152823810Y-74287809D02*
X152747619Y-74364000D01*
X152747619Y-74364000D02*
X152671429Y-74402095D01*
X152671429Y-74402095D02*
X152519048Y-74402095D01*
X152519048Y-74402095D02*
X152442857Y-74364000D01*
X152442857Y-74364000D02*
X152366667Y-74287809D01*
X152366667Y-74287809D02*
X152328571Y-74135428D01*
X152328571Y-74135428D02*
X152328571Y-73868761D01*
X152328571Y-73868761D02*
X152366667Y-73716380D01*
X152366667Y-73716380D02*
X152442857Y-73640190D01*
X152442857Y-73640190D02*
X152519048Y-73602095D01*
X153647619Y-78825904D02*
X153609523Y-78864000D01*
X153609523Y-78864000D02*
X153495238Y-78902095D01*
X153495238Y-78902095D02*
X153419047Y-78902095D01*
X153419047Y-78902095D02*
X153304761Y-78864000D01*
X153304761Y-78864000D02*
X153228571Y-78787809D01*
X153228571Y-78787809D02*
X153190476Y-78711619D01*
X153190476Y-78711619D02*
X153152380Y-78559238D01*
X153152380Y-78559238D02*
X153152380Y-78444952D01*
X153152380Y-78444952D02*
X153190476Y-78292571D01*
X153190476Y-78292571D02*
X153228571Y-78216380D01*
X153228571Y-78216380D02*
X153304761Y-78140190D01*
X153304761Y-78140190D02*
X153419047Y-78102095D01*
X153419047Y-78102095D02*
X153495238Y-78102095D01*
X153495238Y-78102095D02*
X153609523Y-78140190D01*
X153609523Y-78140190D02*
X153647619Y-78178285D01*
X154371428Y-78902095D02*
X153990476Y-78902095D01*
X153990476Y-78902095D02*
X153990476Y-78102095D01*
X154638095Y-78902095D02*
X154638095Y-78102095D01*
X155095238Y-78902095D02*
X154752380Y-78444952D01*
X155095238Y-78102095D02*
X154638095Y-78559238D01*
D11*
X121490476Y-112730000D02*
X121633333Y-112777619D01*
X121633333Y-112777619D02*
X121871428Y-112777619D01*
X121871428Y-112777619D02*
X121966666Y-112730000D01*
X121966666Y-112730000D02*
X122014285Y-112682380D01*
X122014285Y-112682380D02*
X122061904Y-112587142D01*
X122061904Y-112587142D02*
X122061904Y-112491904D01*
X122061904Y-112491904D02*
X122014285Y-112396666D01*
X122014285Y-112396666D02*
X121966666Y-112349047D01*
X121966666Y-112349047D02*
X121871428Y-112301428D01*
X121871428Y-112301428D02*
X121680952Y-112253809D01*
X121680952Y-112253809D02*
X121585714Y-112206190D01*
X121585714Y-112206190D02*
X121538095Y-112158571D01*
X121538095Y-112158571D02*
X121490476Y-112063333D01*
X121490476Y-112063333D02*
X121490476Y-111968095D01*
X121490476Y-111968095D02*
X121538095Y-111872857D01*
X121538095Y-111872857D02*
X121585714Y-111825238D01*
X121585714Y-111825238D02*
X121680952Y-111777619D01*
X121680952Y-111777619D02*
X121919047Y-111777619D01*
X121919047Y-111777619D02*
X122061904Y-111825238D01*
X122919047Y-112777619D02*
X122919047Y-112253809D01*
X122919047Y-112253809D02*
X122871428Y-112158571D01*
X122871428Y-112158571D02*
X122776190Y-112110952D01*
X122776190Y-112110952D02*
X122585714Y-112110952D01*
X122585714Y-112110952D02*
X122490476Y-112158571D01*
X122919047Y-112730000D02*
X122823809Y-112777619D01*
X122823809Y-112777619D02*
X122585714Y-112777619D01*
X122585714Y-112777619D02*
X122490476Y-112730000D01*
X122490476Y-112730000D02*
X122442857Y-112634761D01*
X122442857Y-112634761D02*
X122442857Y-112539523D01*
X122442857Y-112539523D02*
X122490476Y-112444285D01*
X122490476Y-112444285D02*
X122585714Y-112396666D01*
X122585714Y-112396666D02*
X122823809Y-112396666D01*
X122823809Y-112396666D02*
X122919047Y-112349047D01*
X123300000Y-112110952D02*
X123538095Y-112777619D01*
X123538095Y-112777619D02*
X123776190Y-112110952D01*
X124538095Y-112730000D02*
X124442857Y-112777619D01*
X124442857Y-112777619D02*
X124252381Y-112777619D01*
X124252381Y-112777619D02*
X124157143Y-112730000D01*
X124157143Y-112730000D02*
X124109524Y-112634761D01*
X124109524Y-112634761D02*
X124109524Y-112253809D01*
X124109524Y-112253809D02*
X124157143Y-112158571D01*
X124157143Y-112158571D02*
X124252381Y-112110952D01*
X124252381Y-112110952D02*
X124442857Y-112110952D01*
X124442857Y-112110952D02*
X124538095Y-112158571D01*
X124538095Y-112158571D02*
X124585714Y-112253809D01*
X124585714Y-112253809D02*
X124585714Y-112349047D01*
X124585714Y-112349047D02*
X124109524Y-112444285D01*
X116109523Y-112777619D02*
X115776190Y-112301428D01*
X115538095Y-112777619D02*
X115538095Y-111777619D01*
X115538095Y-111777619D02*
X115919047Y-111777619D01*
X115919047Y-111777619D02*
X116014285Y-111825238D01*
X116014285Y-111825238D02*
X116061904Y-111872857D01*
X116061904Y-111872857D02*
X116109523Y-111968095D01*
X116109523Y-111968095D02*
X116109523Y-112110952D01*
X116109523Y-112110952D02*
X116061904Y-112206190D01*
X116061904Y-112206190D02*
X116014285Y-112253809D01*
X116014285Y-112253809D02*
X115919047Y-112301428D01*
X115919047Y-112301428D02*
X115538095Y-112301428D01*
X116919047Y-112730000D02*
X116823809Y-112777619D01*
X116823809Y-112777619D02*
X116633333Y-112777619D01*
X116633333Y-112777619D02*
X116538095Y-112730000D01*
X116538095Y-112730000D02*
X116490476Y-112634761D01*
X116490476Y-112634761D02*
X116490476Y-112253809D01*
X116490476Y-112253809D02*
X116538095Y-112158571D01*
X116538095Y-112158571D02*
X116633333Y-112110952D01*
X116633333Y-112110952D02*
X116823809Y-112110952D01*
X116823809Y-112110952D02*
X116919047Y-112158571D01*
X116919047Y-112158571D02*
X116966666Y-112253809D01*
X116966666Y-112253809D02*
X116966666Y-112349047D01*
X116966666Y-112349047D02*
X116490476Y-112444285D01*
X117823809Y-112730000D02*
X117728571Y-112777619D01*
X117728571Y-112777619D02*
X117538095Y-112777619D01*
X117538095Y-112777619D02*
X117442857Y-112730000D01*
X117442857Y-112730000D02*
X117395238Y-112682380D01*
X117395238Y-112682380D02*
X117347619Y-112587142D01*
X117347619Y-112587142D02*
X117347619Y-112301428D01*
X117347619Y-112301428D02*
X117395238Y-112206190D01*
X117395238Y-112206190D02*
X117442857Y-112158571D01*
X117442857Y-112158571D02*
X117538095Y-112110952D01*
X117538095Y-112110952D02*
X117728571Y-112110952D01*
X117728571Y-112110952D02*
X117823809Y-112158571D01*
X118157143Y-112110952D02*
X118395238Y-112777619D01*
X118395238Y-112777619D02*
X118633333Y-112110952D01*
D12*
X148609523Y-78140190D02*
X148533333Y-78102095D01*
X148533333Y-78102095D02*
X148419047Y-78102095D01*
X148419047Y-78102095D02*
X148304761Y-78140190D01*
X148304761Y-78140190D02*
X148228571Y-78216380D01*
X148228571Y-78216380D02*
X148190476Y-78292571D01*
X148190476Y-78292571D02*
X148152380Y-78444952D01*
X148152380Y-78444952D02*
X148152380Y-78559238D01*
X148152380Y-78559238D02*
X148190476Y-78711619D01*
X148190476Y-78711619D02*
X148228571Y-78787809D01*
X148228571Y-78787809D02*
X148304761Y-78864000D01*
X148304761Y-78864000D02*
X148419047Y-78902095D01*
X148419047Y-78902095D02*
X148495238Y-78902095D01*
X148495238Y-78902095D02*
X148609523Y-78864000D01*
X148609523Y-78864000D02*
X148647619Y-78825904D01*
X148647619Y-78825904D02*
X148647619Y-78559238D01*
X148647619Y-78559238D02*
X148495238Y-78559238D01*
X148990476Y-78902095D02*
X148990476Y-78102095D01*
X148990476Y-78102095D02*
X149447619Y-78902095D01*
X149447619Y-78902095D02*
X149447619Y-78102095D01*
X149828571Y-78902095D02*
X149828571Y-78102095D01*
X149828571Y-78102095D02*
X150019047Y-78102095D01*
X150019047Y-78102095D02*
X150133333Y-78140190D01*
X150133333Y-78140190D02*
X150209523Y-78216380D01*
X150209523Y-78216380D02*
X150247618Y-78292571D01*
X150247618Y-78292571D02*
X150285714Y-78444952D01*
X150285714Y-78444952D02*
X150285714Y-78559238D01*
X150285714Y-78559238D02*
X150247618Y-78711619D01*
X150247618Y-78711619D02*
X150209523Y-78787809D01*
X150209523Y-78787809D02*
X150133333Y-78864000D01*
X150133333Y-78864000D02*
X150019047Y-78902095D01*
X150019047Y-78902095D02*
X149828571Y-78902095D01*
D11*
X110338095Y-112777619D02*
X110338095Y-111777619D01*
X110338095Y-111777619D02*
X110719047Y-111777619D01*
X110719047Y-111777619D02*
X110814285Y-111825238D01*
X110814285Y-111825238D02*
X110861904Y-111872857D01*
X110861904Y-111872857D02*
X110909523Y-111968095D01*
X110909523Y-111968095D02*
X110909523Y-112110952D01*
X110909523Y-112110952D02*
X110861904Y-112206190D01*
X110861904Y-112206190D02*
X110814285Y-112253809D01*
X110814285Y-112253809D02*
X110719047Y-112301428D01*
X110719047Y-112301428D02*
X110338095Y-112301428D01*
X111242857Y-112110952D02*
X111433333Y-112777619D01*
X111433333Y-112777619D02*
X111623809Y-112301428D01*
X111623809Y-112301428D02*
X111814285Y-112777619D01*
X111814285Y-112777619D02*
X112004761Y-112110952D01*
X112385714Y-112777619D02*
X112385714Y-112110952D01*
X112385714Y-112301428D02*
X112433333Y-112206190D01*
X112433333Y-112206190D02*
X112480952Y-112158571D01*
X112480952Y-112158571D02*
X112576190Y-112110952D01*
X112576190Y-112110952D02*
X112671428Y-112110952D01*
D13*
X168877619Y-110511904D02*
X169687142Y-110511904D01*
X169687142Y-110511904D02*
X169782380Y-110464285D01*
X169782380Y-110464285D02*
X169830000Y-110416666D01*
X169830000Y-110416666D02*
X169877619Y-110321428D01*
X169877619Y-110321428D02*
X169877619Y-110130952D01*
X169877619Y-110130952D02*
X169830000Y-110035714D01*
X169830000Y-110035714D02*
X169782380Y-109988095D01*
X169782380Y-109988095D02*
X169687142Y-109940476D01*
X169687142Y-109940476D02*
X168877619Y-109940476D01*
X169591904Y-109511904D02*
X169591904Y-109035714D01*
X169877619Y-109607142D02*
X168877619Y-109273809D01*
X168877619Y-109273809D02*
X169877619Y-108940476D01*
X169877619Y-108035714D02*
X169401428Y-108369047D01*
X169877619Y-108607142D02*
X168877619Y-108607142D01*
X168877619Y-108607142D02*
X168877619Y-108226190D01*
X168877619Y-108226190D02*
X168925238Y-108130952D01*
X168925238Y-108130952D02*
X168972857Y-108083333D01*
X168972857Y-108083333D02*
X169068095Y-108035714D01*
X169068095Y-108035714D02*
X169210952Y-108035714D01*
X169210952Y-108035714D02*
X169306190Y-108083333D01*
X169306190Y-108083333D02*
X169353809Y-108130952D01*
X169353809Y-108130952D02*
X169401428Y-108226190D01*
X169401428Y-108226190D02*
X169401428Y-108607142D01*
X168877619Y-107749999D02*
X168877619Y-107178571D01*
X169877619Y-107464285D02*
X168877619Y-107464285D01*
D12*
X133859523Y-75902095D02*
X133402380Y-75902095D01*
X133630952Y-75902095D02*
X133630952Y-75102095D01*
X133630952Y-75102095D02*
X133554761Y-75216380D01*
X133554761Y-75216380D02*
X133478571Y-75292571D01*
X133478571Y-75292571D02*
X133402380Y-75330666D01*
D13*
X108940476Y-75720000D02*
X109083333Y-75767619D01*
X109083333Y-75767619D02*
X109321428Y-75767619D01*
X109321428Y-75767619D02*
X109416666Y-75720000D01*
X109416666Y-75720000D02*
X109464285Y-75672380D01*
X109464285Y-75672380D02*
X109511904Y-75577142D01*
X109511904Y-75577142D02*
X109511904Y-75481904D01*
X109511904Y-75481904D02*
X109464285Y-75386666D01*
X109464285Y-75386666D02*
X109416666Y-75339047D01*
X109416666Y-75339047D02*
X109321428Y-75291428D01*
X109321428Y-75291428D02*
X109130952Y-75243809D01*
X109130952Y-75243809D02*
X109035714Y-75196190D01*
X109035714Y-75196190D02*
X108988095Y-75148571D01*
X108988095Y-75148571D02*
X108940476Y-75053333D01*
X108940476Y-75053333D02*
X108940476Y-74958095D01*
X108940476Y-74958095D02*
X108988095Y-74862857D01*
X108988095Y-74862857D02*
X109035714Y-74815238D01*
X109035714Y-74815238D02*
X109130952Y-74767619D01*
X109130952Y-74767619D02*
X109369047Y-74767619D01*
X109369047Y-74767619D02*
X109511904Y-74815238D01*
X110321428Y-75720000D02*
X110226190Y-75767619D01*
X110226190Y-75767619D02*
X110035714Y-75767619D01*
X110035714Y-75767619D02*
X109940476Y-75720000D01*
X109940476Y-75720000D02*
X109892857Y-75624761D01*
X109892857Y-75624761D02*
X109892857Y-75243809D01*
X109892857Y-75243809D02*
X109940476Y-75148571D01*
X109940476Y-75148571D02*
X110035714Y-75100952D01*
X110035714Y-75100952D02*
X110226190Y-75100952D01*
X110226190Y-75100952D02*
X110321428Y-75148571D01*
X110321428Y-75148571D02*
X110369047Y-75243809D01*
X110369047Y-75243809D02*
X110369047Y-75339047D01*
X110369047Y-75339047D02*
X109892857Y-75434285D01*
X110797619Y-75767619D02*
X110797619Y-75100952D01*
X110797619Y-75291428D02*
X110845238Y-75196190D01*
X110845238Y-75196190D02*
X110892857Y-75148571D01*
X110892857Y-75148571D02*
X110988095Y-75100952D01*
X110988095Y-75100952D02*
X111083333Y-75100952D01*
X111416667Y-75767619D02*
X111416667Y-75100952D01*
X111416667Y-74767619D02*
X111369048Y-74815238D01*
X111369048Y-74815238D02*
X111416667Y-74862857D01*
X111416667Y-74862857D02*
X111464286Y-74815238D01*
X111464286Y-74815238D02*
X111416667Y-74767619D01*
X111416667Y-74767619D02*
X111416667Y-74862857D01*
X112321428Y-75767619D02*
X112321428Y-75243809D01*
X112321428Y-75243809D02*
X112273809Y-75148571D01*
X112273809Y-75148571D02*
X112178571Y-75100952D01*
X112178571Y-75100952D02*
X111988095Y-75100952D01*
X111988095Y-75100952D02*
X111892857Y-75148571D01*
X112321428Y-75720000D02*
X112226190Y-75767619D01*
X112226190Y-75767619D02*
X111988095Y-75767619D01*
X111988095Y-75767619D02*
X111892857Y-75720000D01*
X111892857Y-75720000D02*
X111845238Y-75624761D01*
X111845238Y-75624761D02*
X111845238Y-75529523D01*
X111845238Y-75529523D02*
X111892857Y-75434285D01*
X111892857Y-75434285D02*
X111988095Y-75386666D01*
X111988095Y-75386666D02*
X112226190Y-75386666D01*
X112226190Y-75386666D02*
X112321428Y-75339047D01*
X112940476Y-75767619D02*
X112845238Y-75720000D01*
X112845238Y-75720000D02*
X112797619Y-75624761D01*
X112797619Y-75624761D02*
X112797619Y-74767619D01*
X108940476Y-77340000D02*
X109083333Y-77387619D01*
X109083333Y-77387619D02*
X109321428Y-77387619D01*
X109321428Y-77387619D02*
X109416666Y-77340000D01*
X109416666Y-77340000D02*
X109464285Y-77292380D01*
X109464285Y-77292380D02*
X109511904Y-77197142D01*
X109511904Y-77197142D02*
X109511904Y-77101904D01*
X109511904Y-77101904D02*
X109464285Y-77006666D01*
X109464285Y-77006666D02*
X109416666Y-76959047D01*
X109416666Y-76959047D02*
X109321428Y-76911428D01*
X109321428Y-76911428D02*
X109130952Y-76863809D01*
X109130952Y-76863809D02*
X109035714Y-76816190D01*
X109035714Y-76816190D02*
X108988095Y-76768571D01*
X108988095Y-76768571D02*
X108940476Y-76673333D01*
X108940476Y-76673333D02*
X108940476Y-76578095D01*
X108940476Y-76578095D02*
X108988095Y-76482857D01*
X108988095Y-76482857D02*
X109035714Y-76435238D01*
X109035714Y-76435238D02*
X109130952Y-76387619D01*
X109130952Y-76387619D02*
X109369047Y-76387619D01*
X109369047Y-76387619D02*
X109511904Y-76435238D01*
X109940476Y-76720952D02*
X109940476Y-77387619D01*
X109940476Y-76816190D02*
X109988095Y-76768571D01*
X109988095Y-76768571D02*
X110083333Y-76720952D01*
X110083333Y-76720952D02*
X110226190Y-76720952D01*
X110226190Y-76720952D02*
X110321428Y-76768571D01*
X110321428Y-76768571D02*
X110369047Y-76863809D01*
X110369047Y-76863809D02*
X110369047Y-77387619D01*
X110988095Y-77387619D02*
X110892857Y-77340000D01*
X110892857Y-77340000D02*
X110845238Y-77292380D01*
X110845238Y-77292380D02*
X110797619Y-77197142D01*
X110797619Y-77197142D02*
X110797619Y-76911428D01*
X110797619Y-76911428D02*
X110845238Y-76816190D01*
X110845238Y-76816190D02*
X110892857Y-76768571D01*
X110892857Y-76768571D02*
X110988095Y-76720952D01*
X110988095Y-76720952D02*
X111130952Y-76720952D01*
X111130952Y-76720952D02*
X111226190Y-76768571D01*
X111226190Y-76768571D02*
X111273809Y-76816190D01*
X111273809Y-76816190D02*
X111321428Y-76911428D01*
X111321428Y-76911428D02*
X111321428Y-77197142D01*
X111321428Y-77197142D02*
X111273809Y-77292380D01*
X111273809Y-77292380D02*
X111226190Y-77340000D01*
X111226190Y-77340000D02*
X111130952Y-77387619D01*
X111130952Y-77387619D02*
X110988095Y-77387619D01*
X111892857Y-77387619D02*
X111797619Y-77340000D01*
X111797619Y-77340000D02*
X111750000Y-77292380D01*
X111750000Y-77292380D02*
X111702381Y-77197142D01*
X111702381Y-77197142D02*
X111702381Y-76911428D01*
X111702381Y-76911428D02*
X111750000Y-76816190D01*
X111750000Y-76816190D02*
X111797619Y-76768571D01*
X111797619Y-76768571D02*
X111892857Y-76720952D01*
X111892857Y-76720952D02*
X112035714Y-76720952D01*
X112035714Y-76720952D02*
X112130952Y-76768571D01*
X112130952Y-76768571D02*
X112178571Y-76816190D01*
X112178571Y-76816190D02*
X112226190Y-76911428D01*
X112226190Y-76911428D02*
X112226190Y-77197142D01*
X112226190Y-77197142D02*
X112178571Y-77292380D01*
X112178571Y-77292380D02*
X112130952Y-77340000D01*
X112130952Y-77340000D02*
X112035714Y-77387619D01*
X112035714Y-77387619D02*
X111892857Y-77387619D01*
X112654762Y-76720952D02*
X112654762Y-77720952D01*
X112654762Y-76768571D02*
X112750000Y-76720952D01*
X112750000Y-76720952D02*
X112940476Y-76720952D01*
X112940476Y-76720952D02*
X113035714Y-76768571D01*
X113035714Y-76768571D02*
X113083333Y-76816190D01*
X113083333Y-76816190D02*
X113130952Y-76911428D01*
X113130952Y-76911428D02*
X113130952Y-77197142D01*
X113130952Y-77197142D02*
X113083333Y-77292380D01*
X113083333Y-77292380D02*
X113035714Y-77340000D01*
X113035714Y-77340000D02*
X112940476Y-77387619D01*
X112940476Y-77387619D02*
X112750000Y-77387619D01*
X112750000Y-77387619D02*
X112654762Y-77340000D01*
X113940476Y-77340000D02*
X113845238Y-77387619D01*
X113845238Y-77387619D02*
X113654762Y-77387619D01*
X113654762Y-77387619D02*
X113559524Y-77340000D01*
X113559524Y-77340000D02*
X113511905Y-77244761D01*
X113511905Y-77244761D02*
X113511905Y-76863809D01*
X113511905Y-76863809D02*
X113559524Y-76768571D01*
X113559524Y-76768571D02*
X113654762Y-76720952D01*
X113654762Y-76720952D02*
X113845238Y-76720952D01*
X113845238Y-76720952D02*
X113940476Y-76768571D01*
X113940476Y-76768571D02*
X113988095Y-76863809D01*
X113988095Y-76863809D02*
X113988095Y-76959047D01*
X113988095Y-76959047D02*
X113511905Y-77054285D01*
X114416667Y-77387619D02*
X114416667Y-76720952D01*
X114416667Y-76911428D02*
X114464286Y-76816190D01*
X114464286Y-76816190D02*
X114511905Y-76768571D01*
X114511905Y-76768571D02*
X114607143Y-76720952D01*
X114607143Y-76720952D02*
X114702381Y-76720952D01*
X108988095Y-79007619D02*
X108988095Y-78007619D01*
X108988095Y-78388571D02*
X109083333Y-78340952D01*
X109083333Y-78340952D02*
X109273809Y-78340952D01*
X109273809Y-78340952D02*
X109369047Y-78388571D01*
X109369047Y-78388571D02*
X109416666Y-78436190D01*
X109416666Y-78436190D02*
X109464285Y-78531428D01*
X109464285Y-78531428D02*
X109464285Y-78817142D01*
X109464285Y-78817142D02*
X109416666Y-78912380D01*
X109416666Y-78912380D02*
X109369047Y-78960000D01*
X109369047Y-78960000D02*
X109273809Y-79007619D01*
X109273809Y-79007619D02*
X109083333Y-79007619D01*
X109083333Y-79007619D02*
X108988095Y-78960000D01*
X109797619Y-78340952D02*
X110035714Y-79007619D01*
X110273809Y-78340952D02*
X110035714Y-79007619D01*
X110035714Y-79007619D02*
X109940476Y-79245714D01*
X109940476Y-79245714D02*
X109892857Y-79293333D01*
X109892857Y-79293333D02*
X109797619Y-79340952D01*
X111988095Y-78912380D02*
X111940476Y-78960000D01*
X111940476Y-78960000D02*
X111797619Y-79007619D01*
X111797619Y-79007619D02*
X111702381Y-79007619D01*
X111702381Y-79007619D02*
X111559524Y-78960000D01*
X111559524Y-78960000D02*
X111464286Y-78864761D01*
X111464286Y-78864761D02*
X111416667Y-78769523D01*
X111416667Y-78769523D02*
X111369048Y-78579047D01*
X111369048Y-78579047D02*
X111369048Y-78436190D01*
X111369048Y-78436190D02*
X111416667Y-78245714D01*
X111416667Y-78245714D02*
X111464286Y-78150476D01*
X111464286Y-78150476D02*
X111559524Y-78055238D01*
X111559524Y-78055238D02*
X111702381Y-78007619D01*
X111702381Y-78007619D02*
X111797619Y-78007619D01*
X111797619Y-78007619D02*
X111940476Y-78055238D01*
X111940476Y-78055238D02*
X111988095Y-78102857D01*
X112988095Y-78912380D02*
X112940476Y-78960000D01*
X112940476Y-78960000D02*
X112797619Y-79007619D01*
X112797619Y-79007619D02*
X112702381Y-79007619D01*
X112702381Y-79007619D02*
X112559524Y-78960000D01*
X112559524Y-78960000D02*
X112464286Y-78864761D01*
X112464286Y-78864761D02*
X112416667Y-78769523D01*
X112416667Y-78769523D02*
X112369048Y-78579047D01*
X112369048Y-78579047D02*
X112369048Y-78436190D01*
X112369048Y-78436190D02*
X112416667Y-78245714D01*
X112416667Y-78245714D02*
X112464286Y-78150476D01*
X112464286Y-78150476D02*
X112559524Y-78055238D01*
X112559524Y-78055238D02*
X112702381Y-78007619D01*
X112702381Y-78007619D02*
X112797619Y-78007619D01*
X112797619Y-78007619D02*
X112940476Y-78055238D01*
X112940476Y-78055238D02*
X112988095Y-78102857D01*
X108845238Y-79627619D02*
X109178571Y-80627619D01*
X109178571Y-80627619D02*
X109511904Y-79627619D01*
X110369047Y-80627619D02*
X109797619Y-80627619D01*
X110083333Y-80627619D02*
X110083333Y-79627619D01*
X110083333Y-79627619D02*
X109988095Y-79770476D01*
X109988095Y-79770476D02*
X109892857Y-79865714D01*
X109892857Y-79865714D02*
X109797619Y-79913333D01*
X110797619Y-80532380D02*
X110845238Y-80580000D01*
X110845238Y-80580000D02*
X110797619Y-80627619D01*
X110797619Y-80627619D02*
X110750000Y-80580000D01*
X110750000Y-80580000D02*
X110797619Y-80532380D01*
X110797619Y-80532380D02*
X110797619Y-80627619D01*
X111464285Y-79627619D02*
X111559523Y-79627619D01*
X111559523Y-79627619D02*
X111654761Y-79675238D01*
X111654761Y-79675238D02*
X111702380Y-79722857D01*
X111702380Y-79722857D02*
X111749999Y-79818095D01*
X111749999Y-79818095D02*
X111797618Y-80008571D01*
X111797618Y-80008571D02*
X111797618Y-80246666D01*
X111797618Y-80246666D02*
X111749999Y-80437142D01*
X111749999Y-80437142D02*
X111702380Y-80532380D01*
X111702380Y-80532380D02*
X111654761Y-80580000D01*
X111654761Y-80580000D02*
X111559523Y-80627619D01*
X111559523Y-80627619D02*
X111464285Y-80627619D01*
X111464285Y-80627619D02*
X111369047Y-80580000D01*
X111369047Y-80580000D02*
X111321428Y-80532380D01*
X111321428Y-80532380D02*
X111273809Y-80437142D01*
X111273809Y-80437142D02*
X111226190Y-80246666D01*
X111226190Y-80246666D02*
X111226190Y-80008571D01*
X111226190Y-80008571D02*
X111273809Y-79818095D01*
X111273809Y-79818095D02*
X111321428Y-79722857D01*
X111321428Y-79722857D02*
X111369047Y-79675238D01*
X111369047Y-79675238D02*
X111464285Y-79627619D01*
D12*
X155714285Y-73268000D02*
X155828571Y-73306095D01*
X155828571Y-73306095D02*
X156019047Y-73306095D01*
X156019047Y-73306095D02*
X156095238Y-73268000D01*
X156095238Y-73268000D02*
X156133333Y-73229904D01*
X156133333Y-73229904D02*
X156171428Y-73153714D01*
X156171428Y-73153714D02*
X156171428Y-73077523D01*
X156171428Y-73077523D02*
X156133333Y-73001333D01*
X156133333Y-73001333D02*
X156095238Y-72963238D01*
X156095238Y-72963238D02*
X156019047Y-72925142D01*
X156019047Y-72925142D02*
X155866666Y-72887047D01*
X155866666Y-72887047D02*
X155790476Y-72848952D01*
X155790476Y-72848952D02*
X155752381Y-72810857D01*
X155752381Y-72810857D02*
X155714285Y-72734666D01*
X155714285Y-72734666D02*
X155714285Y-72658476D01*
X155714285Y-72658476D02*
X155752381Y-72582285D01*
X155752381Y-72582285D02*
X155790476Y-72544190D01*
X155790476Y-72544190D02*
X155866666Y-72506095D01*
X155866666Y-72506095D02*
X156057143Y-72506095D01*
X156057143Y-72506095D02*
X156171428Y-72544190D01*
X156438095Y-72506095D02*
X156628571Y-73306095D01*
X156628571Y-73306095D02*
X156780952Y-72734666D01*
X156780952Y-72734666D02*
X156933333Y-73306095D01*
X156933333Y-73306095D02*
X157123810Y-72506095D01*
X157428572Y-73306095D02*
X157428572Y-72506095D01*
X157428572Y-72506095D02*
X157619048Y-72506095D01*
X157619048Y-72506095D02*
X157733334Y-72544190D01*
X157733334Y-72544190D02*
X157809524Y-72620380D01*
X157809524Y-72620380D02*
X157847619Y-72696571D01*
X157847619Y-72696571D02*
X157885715Y-72848952D01*
X157885715Y-72848952D02*
X157885715Y-72963238D01*
X157885715Y-72963238D02*
X157847619Y-73115619D01*
X157847619Y-73115619D02*
X157809524Y-73191809D01*
X157809524Y-73191809D02*
X157733334Y-73268000D01*
X157733334Y-73268000D02*
X157619048Y-73306095D01*
X157619048Y-73306095D02*
X157428572Y-73306095D01*
X156380953Y-74602095D02*
X156380953Y-73802095D01*
X156914286Y-73802095D02*
X157066667Y-73802095D01*
X157066667Y-73802095D02*
X157142857Y-73840190D01*
X157142857Y-73840190D02*
X157219048Y-73916380D01*
X157219048Y-73916380D02*
X157257143Y-74068761D01*
X157257143Y-74068761D02*
X157257143Y-74335428D01*
X157257143Y-74335428D02*
X157219048Y-74487809D01*
X157219048Y-74487809D02*
X157142857Y-74564000D01*
X157142857Y-74564000D02*
X157066667Y-74602095D01*
X157066667Y-74602095D02*
X156914286Y-74602095D01*
X156914286Y-74602095D02*
X156838095Y-74564000D01*
X156838095Y-74564000D02*
X156761905Y-74487809D01*
X156761905Y-74487809D02*
X156723809Y-74335428D01*
X156723809Y-74335428D02*
X156723809Y-74068761D01*
X156723809Y-74068761D02*
X156761905Y-73916380D01*
X156761905Y-73916380D02*
X156838095Y-73840190D01*
X156838095Y-73840190D02*
X156914286Y-73802095D01*
D14*
X186990476Y-102506095D02*
X186990476Y-101706095D01*
X186990476Y-101706095D02*
X187447619Y-102506095D01*
X187447619Y-102506095D02*
X187447619Y-101706095D01*
X188171428Y-101972761D02*
X188171428Y-102506095D01*
X187828571Y-101972761D02*
X187828571Y-102391809D01*
X187828571Y-102391809D02*
X187866666Y-102468000D01*
X187866666Y-102468000D02*
X187942856Y-102506095D01*
X187942856Y-102506095D02*
X188057142Y-102506095D01*
X188057142Y-102506095D02*
X188133333Y-102468000D01*
X188133333Y-102468000D02*
X188171428Y-102429904D01*
X188666666Y-102506095D02*
X188590476Y-102468000D01*
X188590476Y-102468000D02*
X188552381Y-102391809D01*
X188552381Y-102391809D02*
X188552381Y-101706095D01*
X189085714Y-102506095D02*
X189009524Y-102468000D01*
X189009524Y-102468000D02*
X188971429Y-102391809D01*
X188971429Y-102391809D02*
X188971429Y-101706095D01*
X186990476Y-103802095D02*
X186990476Y-103002095D01*
X186990476Y-103002095D02*
X187257142Y-103573523D01*
X187257142Y-103573523D02*
X187523809Y-103002095D01*
X187523809Y-103002095D02*
X187523809Y-103802095D01*
X188019047Y-103802095D02*
X187942857Y-103764000D01*
X187942857Y-103764000D02*
X187904762Y-103725904D01*
X187904762Y-103725904D02*
X187866666Y-103649714D01*
X187866666Y-103649714D02*
X187866666Y-103421142D01*
X187866666Y-103421142D02*
X187904762Y-103344952D01*
X187904762Y-103344952D02*
X187942857Y-103306857D01*
X187942857Y-103306857D02*
X188019047Y-103268761D01*
X188019047Y-103268761D02*
X188133333Y-103268761D01*
X188133333Y-103268761D02*
X188209524Y-103306857D01*
X188209524Y-103306857D02*
X188247619Y-103344952D01*
X188247619Y-103344952D02*
X188285714Y-103421142D01*
X188285714Y-103421142D02*
X188285714Y-103649714D01*
X188285714Y-103649714D02*
X188247619Y-103725904D01*
X188247619Y-103725904D02*
X188209524Y-103764000D01*
X188209524Y-103764000D02*
X188133333Y-103802095D01*
X188133333Y-103802095D02*
X188019047Y-103802095D01*
X188971429Y-103802095D02*
X188971429Y-103002095D01*
X188971429Y-103764000D02*
X188895238Y-103802095D01*
X188895238Y-103802095D02*
X188742857Y-103802095D01*
X188742857Y-103802095D02*
X188666667Y-103764000D01*
X188666667Y-103764000D02*
X188628572Y-103725904D01*
X188628572Y-103725904D02*
X188590476Y-103649714D01*
X188590476Y-103649714D02*
X188590476Y-103421142D01*
X188590476Y-103421142D02*
X188628572Y-103344952D01*
X188628572Y-103344952D02*
X188666667Y-103306857D01*
X188666667Y-103306857D02*
X188742857Y-103268761D01*
X188742857Y-103268761D02*
X188895238Y-103268761D01*
X188895238Y-103268761D02*
X188971429Y-103306857D01*
X189657144Y-103764000D02*
X189580953Y-103802095D01*
X189580953Y-103802095D02*
X189428572Y-103802095D01*
X189428572Y-103802095D02*
X189352382Y-103764000D01*
X189352382Y-103764000D02*
X189314286Y-103687809D01*
X189314286Y-103687809D02*
X189314286Y-103383047D01*
X189314286Y-103383047D02*
X189352382Y-103306857D01*
X189352382Y-103306857D02*
X189428572Y-103268761D01*
X189428572Y-103268761D02*
X189580953Y-103268761D01*
X189580953Y-103268761D02*
X189657144Y-103306857D01*
X189657144Y-103306857D02*
X189695239Y-103383047D01*
X189695239Y-103383047D02*
X189695239Y-103459238D01*
X189695239Y-103459238D02*
X189314286Y-103535428D01*
X190038096Y-103802095D02*
X190038096Y-103268761D01*
X190038096Y-103344952D02*
X190076191Y-103306857D01*
X190076191Y-103306857D02*
X190152381Y-103268761D01*
X190152381Y-103268761D02*
X190266667Y-103268761D01*
X190266667Y-103268761D02*
X190342858Y-103306857D01*
X190342858Y-103306857D02*
X190380953Y-103383047D01*
X190380953Y-103383047D02*
X190380953Y-103802095D01*
X190380953Y-103383047D02*
X190419048Y-103306857D01*
X190419048Y-103306857D02*
X190495239Y-103268761D01*
X190495239Y-103268761D02*
X190609524Y-103268761D01*
X190609524Y-103268761D02*
X190685715Y-103306857D01*
X190685715Y-103306857D02*
X190723810Y-103383047D01*
X190723810Y-103383047D02*
X190723810Y-103802095D01*
D12*
X174359523Y-106890190D02*
X174283333Y-106852095D01*
X174283333Y-106852095D02*
X174169047Y-106852095D01*
X174169047Y-106852095D02*
X174054761Y-106890190D01*
X174054761Y-106890190D02*
X173978571Y-106966380D01*
X173978571Y-106966380D02*
X173940476Y-107042571D01*
X173940476Y-107042571D02*
X173902380Y-107194952D01*
X173902380Y-107194952D02*
X173902380Y-107309238D01*
X173902380Y-107309238D02*
X173940476Y-107461619D01*
X173940476Y-107461619D02*
X173978571Y-107537809D01*
X173978571Y-107537809D02*
X174054761Y-107614000D01*
X174054761Y-107614000D02*
X174169047Y-107652095D01*
X174169047Y-107652095D02*
X174245238Y-107652095D01*
X174245238Y-107652095D02*
X174359523Y-107614000D01*
X174359523Y-107614000D02*
X174397619Y-107575904D01*
X174397619Y-107575904D02*
X174397619Y-107309238D01*
X174397619Y-107309238D02*
X174245238Y-107309238D01*
X174740476Y-107652095D02*
X174740476Y-106852095D01*
X174740476Y-106852095D02*
X175197619Y-107652095D01*
X175197619Y-107652095D02*
X175197619Y-106852095D01*
X175578571Y-107652095D02*
X175578571Y-106852095D01*
X175578571Y-106852095D02*
X175769047Y-106852095D01*
X175769047Y-106852095D02*
X175883333Y-106890190D01*
X175883333Y-106890190D02*
X175959523Y-106966380D01*
X175959523Y-106966380D02*
X175997618Y-107042571D01*
X175997618Y-107042571D02*
X176035714Y-107194952D01*
X176035714Y-107194952D02*
X176035714Y-107309238D01*
X176035714Y-107309238D02*
X175997618Y-107461619D01*
X175997618Y-107461619D02*
X175959523Y-107537809D01*
X175959523Y-107537809D02*
X175883333Y-107614000D01*
X175883333Y-107614000D02*
X175769047Y-107652095D01*
X175769047Y-107652095D02*
X175578571Y-107652095D01*
X171576190Y-111102095D02*
X172033333Y-111102095D01*
X171804761Y-111902095D02*
X171804761Y-111102095D01*
X172223809Y-111102095D02*
X172757143Y-111902095D01*
X172757143Y-111102095D02*
X172223809Y-111902095D01*
D14*
X138147619Y-108029904D02*
X138109523Y-108068000D01*
X138109523Y-108068000D02*
X137995238Y-108106095D01*
X137995238Y-108106095D02*
X137919047Y-108106095D01*
X137919047Y-108106095D02*
X137804761Y-108068000D01*
X137804761Y-108068000D02*
X137728571Y-107991809D01*
X137728571Y-107991809D02*
X137690476Y-107915619D01*
X137690476Y-107915619D02*
X137652380Y-107763238D01*
X137652380Y-107763238D02*
X137652380Y-107648952D01*
X137652380Y-107648952D02*
X137690476Y-107496571D01*
X137690476Y-107496571D02*
X137728571Y-107420380D01*
X137728571Y-107420380D02*
X137804761Y-107344190D01*
X137804761Y-107344190D02*
X137919047Y-107306095D01*
X137919047Y-107306095D02*
X137995238Y-107306095D01*
X137995238Y-107306095D02*
X138109523Y-107344190D01*
X138109523Y-107344190D02*
X138147619Y-107382285D01*
X138947619Y-108106095D02*
X138680952Y-107725142D01*
X138490476Y-108106095D02*
X138490476Y-107306095D01*
X138490476Y-107306095D02*
X138795238Y-107306095D01*
X138795238Y-107306095D02*
X138871428Y-107344190D01*
X138871428Y-107344190D02*
X138909523Y-107382285D01*
X138909523Y-107382285D02*
X138947619Y-107458476D01*
X138947619Y-107458476D02*
X138947619Y-107572761D01*
X138947619Y-107572761D02*
X138909523Y-107648952D01*
X138909523Y-107648952D02*
X138871428Y-107687047D01*
X138871428Y-107687047D02*
X138795238Y-107725142D01*
X138795238Y-107725142D02*
X138490476Y-107725142D01*
X139709523Y-108106095D02*
X139252380Y-108106095D01*
X139480952Y-108106095D02*
X139480952Y-107306095D01*
X139480952Y-107306095D02*
X139404761Y-107420380D01*
X139404761Y-107420380D02*
X139328571Y-107496571D01*
X139328571Y-107496571D02*
X139252380Y-107534666D01*
X140014285Y-107382285D02*
X140052381Y-107344190D01*
X140052381Y-107344190D02*
X140128571Y-107306095D01*
X140128571Y-107306095D02*
X140319047Y-107306095D01*
X140319047Y-107306095D02*
X140395238Y-107344190D01*
X140395238Y-107344190D02*
X140433333Y-107382285D01*
X140433333Y-107382285D02*
X140471428Y-107458476D01*
X140471428Y-107458476D02*
X140471428Y-107534666D01*
X140471428Y-107534666D02*
X140433333Y-107648952D01*
X140433333Y-107648952D02*
X139976190Y-108106095D01*
X139976190Y-108106095D02*
X140471428Y-108106095D01*
X140776190Y-107382285D02*
X140814286Y-107344190D01*
X140814286Y-107344190D02*
X140890476Y-107306095D01*
X140890476Y-107306095D02*
X141080952Y-107306095D01*
X141080952Y-107306095D02*
X141157143Y-107344190D01*
X141157143Y-107344190D02*
X141195238Y-107382285D01*
X141195238Y-107382285D02*
X141233333Y-107458476D01*
X141233333Y-107458476D02*
X141233333Y-107534666D01*
X141233333Y-107534666D02*
X141195238Y-107648952D01*
X141195238Y-107648952D02*
X140738095Y-108106095D01*
X140738095Y-108106095D02*
X141233333Y-108106095D01*
X141728572Y-107306095D02*
X141804762Y-107306095D01*
X141804762Y-107306095D02*
X141880953Y-107344190D01*
X141880953Y-107344190D02*
X141919048Y-107382285D01*
X141919048Y-107382285D02*
X141957143Y-107458476D01*
X141957143Y-107458476D02*
X141995238Y-107610857D01*
X141995238Y-107610857D02*
X141995238Y-107801333D01*
X141995238Y-107801333D02*
X141957143Y-107953714D01*
X141957143Y-107953714D02*
X141919048Y-108029904D01*
X141919048Y-108029904D02*
X141880953Y-108068000D01*
X141880953Y-108068000D02*
X141804762Y-108106095D01*
X141804762Y-108106095D02*
X141728572Y-108106095D01*
X141728572Y-108106095D02*
X141652381Y-108068000D01*
X141652381Y-108068000D02*
X141614286Y-108029904D01*
X141614286Y-108029904D02*
X141576191Y-107953714D01*
X141576191Y-107953714D02*
X141538095Y-107801333D01*
X141538095Y-107801333D02*
X141538095Y-107610857D01*
X141538095Y-107610857D02*
X141576191Y-107458476D01*
X141576191Y-107458476D02*
X141614286Y-107382285D01*
X141614286Y-107382285D02*
X141652381Y-107344190D01*
X141652381Y-107344190D02*
X141728572Y-107306095D01*
X138147619Y-109325904D02*
X138109523Y-109364000D01*
X138109523Y-109364000D02*
X137995238Y-109402095D01*
X137995238Y-109402095D02*
X137919047Y-109402095D01*
X137919047Y-109402095D02*
X137804761Y-109364000D01*
X137804761Y-109364000D02*
X137728571Y-109287809D01*
X137728571Y-109287809D02*
X137690476Y-109211619D01*
X137690476Y-109211619D02*
X137652380Y-109059238D01*
X137652380Y-109059238D02*
X137652380Y-108944952D01*
X137652380Y-108944952D02*
X137690476Y-108792571D01*
X137690476Y-108792571D02*
X137728571Y-108716380D01*
X137728571Y-108716380D02*
X137804761Y-108640190D01*
X137804761Y-108640190D02*
X137919047Y-108602095D01*
X137919047Y-108602095D02*
X137995238Y-108602095D01*
X137995238Y-108602095D02*
X138109523Y-108640190D01*
X138109523Y-108640190D02*
X138147619Y-108678285D01*
X138604761Y-109402095D02*
X138528571Y-109364000D01*
X138528571Y-109364000D02*
X138490476Y-109325904D01*
X138490476Y-109325904D02*
X138452380Y-109249714D01*
X138452380Y-109249714D02*
X138452380Y-109021142D01*
X138452380Y-109021142D02*
X138490476Y-108944952D01*
X138490476Y-108944952D02*
X138528571Y-108906857D01*
X138528571Y-108906857D02*
X138604761Y-108868761D01*
X138604761Y-108868761D02*
X138719047Y-108868761D01*
X138719047Y-108868761D02*
X138795238Y-108906857D01*
X138795238Y-108906857D02*
X138833333Y-108944952D01*
X138833333Y-108944952D02*
X138871428Y-109021142D01*
X138871428Y-109021142D02*
X138871428Y-109249714D01*
X138871428Y-109249714D02*
X138833333Y-109325904D01*
X138833333Y-109325904D02*
X138795238Y-109364000D01*
X138795238Y-109364000D02*
X138719047Y-109402095D01*
X138719047Y-109402095D02*
X138604761Y-109402095D01*
X139214286Y-109402095D02*
X139214286Y-108868761D01*
X139214286Y-108602095D02*
X139176190Y-108640190D01*
X139176190Y-108640190D02*
X139214286Y-108678285D01*
X139214286Y-108678285D02*
X139252381Y-108640190D01*
X139252381Y-108640190D02*
X139214286Y-108602095D01*
X139214286Y-108602095D02*
X139214286Y-108678285D01*
X139595238Y-108868761D02*
X139595238Y-109402095D01*
X139595238Y-108944952D02*
X139633333Y-108906857D01*
X139633333Y-108906857D02*
X139709523Y-108868761D01*
X139709523Y-108868761D02*
X139823809Y-108868761D01*
X139823809Y-108868761D02*
X139900000Y-108906857D01*
X139900000Y-108906857D02*
X139938095Y-108983047D01*
X139938095Y-108983047D02*
X139938095Y-109402095D01*
X141385715Y-109325904D02*
X141347619Y-109364000D01*
X141347619Y-109364000D02*
X141233334Y-109402095D01*
X141233334Y-109402095D02*
X141157143Y-109402095D01*
X141157143Y-109402095D02*
X141042857Y-109364000D01*
X141042857Y-109364000D02*
X140966667Y-109287809D01*
X140966667Y-109287809D02*
X140928572Y-109211619D01*
X140928572Y-109211619D02*
X140890476Y-109059238D01*
X140890476Y-109059238D02*
X140890476Y-108944952D01*
X140890476Y-108944952D02*
X140928572Y-108792571D01*
X140928572Y-108792571D02*
X140966667Y-108716380D01*
X140966667Y-108716380D02*
X141042857Y-108640190D01*
X141042857Y-108640190D02*
X141157143Y-108602095D01*
X141157143Y-108602095D02*
X141233334Y-108602095D01*
X141233334Y-108602095D02*
X141347619Y-108640190D01*
X141347619Y-108640190D02*
X141385715Y-108678285D01*
X142033334Y-109364000D02*
X141957143Y-109402095D01*
X141957143Y-109402095D02*
X141804762Y-109402095D01*
X141804762Y-109402095D02*
X141728572Y-109364000D01*
X141728572Y-109364000D02*
X141690476Y-109287809D01*
X141690476Y-109287809D02*
X141690476Y-108983047D01*
X141690476Y-108983047D02*
X141728572Y-108906857D01*
X141728572Y-108906857D02*
X141804762Y-108868761D01*
X141804762Y-108868761D02*
X141957143Y-108868761D01*
X141957143Y-108868761D02*
X142033334Y-108906857D01*
X142033334Y-108906857D02*
X142071429Y-108983047D01*
X142071429Y-108983047D02*
X142071429Y-109059238D01*
X142071429Y-109059238D02*
X141690476Y-109135428D01*
X142528571Y-109402095D02*
X142452381Y-109364000D01*
X142452381Y-109364000D02*
X142414286Y-109287809D01*
X142414286Y-109287809D02*
X142414286Y-108602095D01*
X142947619Y-109402095D02*
X142871429Y-109364000D01*
X142871429Y-109364000D02*
X142833334Y-109287809D01*
X142833334Y-109287809D02*
X142833334Y-108602095D01*
D12*
X177147619Y-111902095D02*
X176880952Y-111521142D01*
X176690476Y-111902095D02*
X176690476Y-111102095D01*
X176690476Y-111102095D02*
X176995238Y-111102095D01*
X176995238Y-111102095D02*
X177071428Y-111140190D01*
X177071428Y-111140190D02*
X177109523Y-111178285D01*
X177109523Y-111178285D02*
X177147619Y-111254476D01*
X177147619Y-111254476D02*
X177147619Y-111368761D01*
X177147619Y-111368761D02*
X177109523Y-111444952D01*
X177109523Y-111444952D02*
X177071428Y-111483047D01*
X177071428Y-111483047D02*
X176995238Y-111521142D01*
X176995238Y-111521142D02*
X176690476Y-111521142D01*
X177414285Y-111102095D02*
X177947619Y-111902095D01*
X177947619Y-111102095D02*
X177414285Y-111902095D01*
D13*
X152990476Y-81330000D02*
X153133333Y-81377619D01*
X153133333Y-81377619D02*
X153371428Y-81377619D01*
X153371428Y-81377619D02*
X153466666Y-81330000D01*
X153466666Y-81330000D02*
X153514285Y-81282380D01*
X153514285Y-81282380D02*
X153561904Y-81187142D01*
X153561904Y-81187142D02*
X153561904Y-81091904D01*
X153561904Y-81091904D02*
X153514285Y-80996666D01*
X153514285Y-80996666D02*
X153466666Y-80949047D01*
X153466666Y-80949047D02*
X153371428Y-80901428D01*
X153371428Y-80901428D02*
X153180952Y-80853809D01*
X153180952Y-80853809D02*
X153085714Y-80806190D01*
X153085714Y-80806190D02*
X153038095Y-80758571D01*
X153038095Y-80758571D02*
X152990476Y-80663333D01*
X152990476Y-80663333D02*
X152990476Y-80568095D01*
X152990476Y-80568095D02*
X153038095Y-80472857D01*
X153038095Y-80472857D02*
X153085714Y-80425238D01*
X153085714Y-80425238D02*
X153180952Y-80377619D01*
X153180952Y-80377619D02*
X153419047Y-80377619D01*
X153419047Y-80377619D02*
X153561904Y-80425238D01*
X153895238Y-80377619D02*
X154133333Y-81377619D01*
X154133333Y-81377619D02*
X154323809Y-80663333D01*
X154323809Y-80663333D02*
X154514285Y-81377619D01*
X154514285Y-81377619D02*
X154752381Y-80377619D01*
X155133333Y-81377619D02*
X155133333Y-80377619D01*
X155133333Y-80377619D02*
X155371428Y-80377619D01*
X155371428Y-80377619D02*
X155514285Y-80425238D01*
X155514285Y-80425238D02*
X155609523Y-80520476D01*
X155609523Y-80520476D02*
X155657142Y-80615714D01*
X155657142Y-80615714D02*
X155704761Y-80806190D01*
X155704761Y-80806190D02*
X155704761Y-80949047D01*
X155704761Y-80949047D02*
X155657142Y-81139523D01*
X155657142Y-81139523D02*
X155609523Y-81234761D01*
X155609523Y-81234761D02*
X155514285Y-81330000D01*
X155514285Y-81330000D02*
X155371428Y-81377619D01*
X155371428Y-81377619D02*
X155133333Y-81377619D01*
D11*
X127338095Y-112777619D02*
X127338095Y-111777619D01*
X127814285Y-112110952D02*
X127814285Y-112777619D01*
X127814285Y-112206190D02*
X127861904Y-112158571D01*
X127861904Y-112158571D02*
X127957142Y-112110952D01*
X127957142Y-112110952D02*
X128099999Y-112110952D01*
X128099999Y-112110952D02*
X128195237Y-112158571D01*
X128195237Y-112158571D02*
X128242856Y-112253809D01*
X128242856Y-112253809D02*
X128242856Y-112777619D01*
X128576190Y-112110952D02*
X128957142Y-112110952D01*
X128719047Y-112777619D02*
X128719047Y-111920476D01*
X128719047Y-111920476D02*
X128766666Y-111825238D01*
X128766666Y-111825238D02*
X128861904Y-111777619D01*
X128861904Y-111777619D02*
X128957142Y-111777619D01*
X129433333Y-112777619D02*
X129338095Y-112730000D01*
X129338095Y-112730000D02*
X129290476Y-112682380D01*
X129290476Y-112682380D02*
X129242857Y-112587142D01*
X129242857Y-112587142D02*
X129242857Y-112301428D01*
X129242857Y-112301428D02*
X129290476Y-112206190D01*
X129290476Y-112206190D02*
X129338095Y-112158571D01*
X129338095Y-112158571D02*
X129433333Y-112110952D01*
X129433333Y-112110952D02*
X129576190Y-112110952D01*
X129576190Y-112110952D02*
X129671428Y-112158571D01*
X129671428Y-112158571D02*
X129719047Y-112206190D01*
X129719047Y-112206190D02*
X129766666Y-112301428D01*
X129766666Y-112301428D02*
X129766666Y-112587142D01*
X129766666Y-112587142D02*
X129719047Y-112682380D01*
X129719047Y-112682380D02*
X129671428Y-112730000D01*
X129671428Y-112730000D02*
X129576190Y-112777619D01*
X129576190Y-112777619D02*
X129433333Y-112777619D01*
D15*
X142532380Y-77940476D02*
X142580000Y-77988095D01*
X142580000Y-77988095D02*
X142627619Y-78130952D01*
X142627619Y-78130952D02*
X142627619Y-78226190D01*
X142627619Y-78226190D02*
X142580000Y-78369047D01*
X142580000Y-78369047D02*
X142484761Y-78464285D01*
X142484761Y-78464285D02*
X142389523Y-78511904D01*
X142389523Y-78511904D02*
X142199047Y-78559523D01*
X142199047Y-78559523D02*
X142056190Y-78559523D01*
X142056190Y-78559523D02*
X141865714Y-78511904D01*
X141865714Y-78511904D02*
X141770476Y-78464285D01*
X141770476Y-78464285D02*
X141675238Y-78369047D01*
X141675238Y-78369047D02*
X141627619Y-78226190D01*
X141627619Y-78226190D02*
X141627619Y-78130952D01*
X141627619Y-78130952D02*
X141675238Y-77988095D01*
X141675238Y-77988095D02*
X141722857Y-77940476D01*
X142627619Y-77369047D02*
X142580000Y-77464285D01*
X142580000Y-77464285D02*
X142532380Y-77511904D01*
X142532380Y-77511904D02*
X142437142Y-77559523D01*
X142437142Y-77559523D02*
X142151428Y-77559523D01*
X142151428Y-77559523D02*
X142056190Y-77511904D01*
X142056190Y-77511904D02*
X142008571Y-77464285D01*
X142008571Y-77464285D02*
X141960952Y-77369047D01*
X141960952Y-77369047D02*
X141960952Y-77226190D01*
X141960952Y-77226190D02*
X142008571Y-77130952D01*
X142008571Y-77130952D02*
X142056190Y-77083333D01*
X142056190Y-77083333D02*
X142151428Y-77035714D01*
X142151428Y-77035714D02*
X142437142Y-77035714D01*
X142437142Y-77035714D02*
X142532380Y-77083333D01*
X142532380Y-77083333D02*
X142580000Y-77130952D01*
X142580000Y-77130952D02*
X142627619Y-77226190D01*
X142627619Y-77226190D02*
X142627619Y-77369047D01*
X141960952Y-76607142D02*
X142627619Y-76607142D01*
X142056190Y-76607142D02*
X142008571Y-76559523D01*
X142008571Y-76559523D02*
X141960952Y-76464285D01*
X141960952Y-76464285D02*
X141960952Y-76321428D01*
X141960952Y-76321428D02*
X142008571Y-76226190D01*
X142008571Y-76226190D02*
X142103809Y-76178571D01*
X142103809Y-76178571D02*
X142627619Y-76178571D01*
X141960952Y-75845237D02*
X141960952Y-75464285D01*
X142627619Y-75702380D02*
X141770476Y-75702380D01*
X141770476Y-75702380D02*
X141675238Y-75654761D01*
X141675238Y-75654761D02*
X141627619Y-75559523D01*
X141627619Y-75559523D02*
X141627619Y-75464285D01*
X142627619Y-75130951D02*
X141960952Y-75130951D01*
X141627619Y-75130951D02*
X141675238Y-75178570D01*
X141675238Y-75178570D02*
X141722857Y-75130951D01*
X141722857Y-75130951D02*
X141675238Y-75083332D01*
X141675238Y-75083332D02*
X141627619Y-75130951D01*
X141627619Y-75130951D02*
X141722857Y-75130951D01*
X141960952Y-74226190D02*
X142770476Y-74226190D01*
X142770476Y-74226190D02*
X142865714Y-74273809D01*
X142865714Y-74273809D02*
X142913333Y-74321428D01*
X142913333Y-74321428D02*
X142960952Y-74416666D01*
X142960952Y-74416666D02*
X142960952Y-74559523D01*
X142960952Y-74559523D02*
X142913333Y-74654761D01*
X142580000Y-74226190D02*
X142627619Y-74321428D01*
X142627619Y-74321428D02*
X142627619Y-74511904D01*
X142627619Y-74511904D02*
X142580000Y-74607142D01*
X142580000Y-74607142D02*
X142532380Y-74654761D01*
X142532380Y-74654761D02*
X142437142Y-74702380D01*
X142437142Y-74702380D02*
X142151428Y-74702380D01*
X142151428Y-74702380D02*
X142056190Y-74654761D01*
X142056190Y-74654761D02*
X142008571Y-74607142D01*
X142008571Y-74607142D02*
X141960952Y-74511904D01*
X141960952Y-74511904D02*
X141960952Y-74321428D01*
X141960952Y-74321428D02*
X142008571Y-74226190D01*
D11*
%TO.C,D5*%
X116562619Y-108038094D02*
X115562619Y-108038094D01*
X115562619Y-108038094D02*
X115562619Y-107799999D01*
X115562619Y-107799999D02*
X115610238Y-107657142D01*
X115610238Y-107657142D02*
X115705476Y-107561904D01*
X115705476Y-107561904D02*
X115800714Y-107514285D01*
X115800714Y-107514285D02*
X115991190Y-107466666D01*
X115991190Y-107466666D02*
X116134047Y-107466666D01*
X116134047Y-107466666D02*
X116324523Y-107514285D01*
X116324523Y-107514285D02*
X116419761Y-107561904D01*
X116419761Y-107561904D02*
X116515000Y-107657142D01*
X116515000Y-107657142D02*
X116562619Y-107799999D01*
X116562619Y-107799999D02*
X116562619Y-108038094D01*
X115562619Y-106561904D02*
X115562619Y-107038094D01*
X115562619Y-107038094D02*
X116038809Y-107085713D01*
X116038809Y-107085713D02*
X115991190Y-107038094D01*
X115991190Y-107038094D02*
X115943571Y-106942856D01*
X115943571Y-106942856D02*
X115943571Y-106704761D01*
X115943571Y-106704761D02*
X115991190Y-106609523D01*
X115991190Y-106609523D02*
X116038809Y-106561904D01*
X116038809Y-106561904D02*
X116134047Y-106514285D01*
X116134047Y-106514285D02*
X116372142Y-106514285D01*
X116372142Y-106514285D02*
X116467380Y-106561904D01*
X116467380Y-106561904D02*
X116515000Y-106609523D01*
X116515000Y-106609523D02*
X116562619Y-106704761D01*
X116562619Y-106704761D02*
X116562619Y-106942856D01*
X116562619Y-106942856D02*
X116515000Y-107038094D01*
X116515000Y-107038094D02*
X116467380Y-107085713D01*
%TO.C,C19*%
X169157142Y-89767380D02*
X169109523Y-89815000D01*
X169109523Y-89815000D02*
X168966666Y-89862619D01*
X168966666Y-89862619D02*
X168871428Y-89862619D01*
X168871428Y-89862619D02*
X168728571Y-89815000D01*
X168728571Y-89815000D02*
X168633333Y-89719761D01*
X168633333Y-89719761D02*
X168585714Y-89624523D01*
X168585714Y-89624523D02*
X168538095Y-89434047D01*
X168538095Y-89434047D02*
X168538095Y-89291190D01*
X168538095Y-89291190D02*
X168585714Y-89100714D01*
X168585714Y-89100714D02*
X168633333Y-89005476D01*
X168633333Y-89005476D02*
X168728571Y-88910238D01*
X168728571Y-88910238D02*
X168871428Y-88862619D01*
X168871428Y-88862619D02*
X168966666Y-88862619D01*
X168966666Y-88862619D02*
X169109523Y-88910238D01*
X169109523Y-88910238D02*
X169157142Y-88957857D01*
X170109523Y-89862619D02*
X169538095Y-89862619D01*
X169823809Y-89862619D02*
X169823809Y-88862619D01*
X169823809Y-88862619D02*
X169728571Y-89005476D01*
X169728571Y-89005476D02*
X169633333Y-89100714D01*
X169633333Y-89100714D02*
X169538095Y-89148333D01*
X170585714Y-89862619D02*
X170776190Y-89862619D01*
X170776190Y-89862619D02*
X170871428Y-89815000D01*
X170871428Y-89815000D02*
X170919047Y-89767380D01*
X170919047Y-89767380D02*
X171014285Y-89624523D01*
X171014285Y-89624523D02*
X171061904Y-89434047D01*
X171061904Y-89434047D02*
X171061904Y-89053095D01*
X171061904Y-89053095D02*
X171014285Y-88957857D01*
X171014285Y-88957857D02*
X170966666Y-88910238D01*
X170966666Y-88910238D02*
X170871428Y-88862619D01*
X170871428Y-88862619D02*
X170680952Y-88862619D01*
X170680952Y-88862619D02*
X170585714Y-88910238D01*
X170585714Y-88910238D02*
X170538095Y-88957857D01*
X170538095Y-88957857D02*
X170490476Y-89053095D01*
X170490476Y-89053095D02*
X170490476Y-89291190D01*
X170490476Y-89291190D02*
X170538095Y-89386428D01*
X170538095Y-89386428D02*
X170585714Y-89434047D01*
X170585714Y-89434047D02*
X170680952Y-89481666D01*
X170680952Y-89481666D02*
X170871428Y-89481666D01*
X170871428Y-89481666D02*
X170966666Y-89434047D01*
X170966666Y-89434047D02*
X171014285Y-89386428D01*
X171014285Y-89386428D02*
X171061904Y-89291190D01*
%TO.C,TP34*%
X142514619Y-96988094D02*
X142514619Y-96416666D01*
X143514619Y-96702380D02*
X142514619Y-96702380D01*
X143514619Y-96083332D02*
X142514619Y-96083332D01*
X142514619Y-96083332D02*
X142514619Y-95702380D01*
X142514619Y-95702380D02*
X142562238Y-95607142D01*
X142562238Y-95607142D02*
X142609857Y-95559523D01*
X142609857Y-95559523D02*
X142705095Y-95511904D01*
X142705095Y-95511904D02*
X142847952Y-95511904D01*
X142847952Y-95511904D02*
X142943190Y-95559523D01*
X142943190Y-95559523D02*
X142990809Y-95607142D01*
X142990809Y-95607142D02*
X143038428Y-95702380D01*
X143038428Y-95702380D02*
X143038428Y-96083332D01*
X142514619Y-95178570D02*
X142514619Y-94559523D01*
X142514619Y-94559523D02*
X142895571Y-94892856D01*
X142895571Y-94892856D02*
X142895571Y-94749999D01*
X142895571Y-94749999D02*
X142943190Y-94654761D01*
X142943190Y-94654761D02*
X142990809Y-94607142D01*
X142990809Y-94607142D02*
X143086047Y-94559523D01*
X143086047Y-94559523D02*
X143324142Y-94559523D01*
X143324142Y-94559523D02*
X143419380Y-94607142D01*
X143419380Y-94607142D02*
X143467000Y-94654761D01*
X143467000Y-94654761D02*
X143514619Y-94749999D01*
X143514619Y-94749999D02*
X143514619Y-95035713D01*
X143514619Y-95035713D02*
X143467000Y-95130951D01*
X143467000Y-95130951D02*
X143419380Y-95178570D01*
X142847952Y-93702380D02*
X143514619Y-93702380D01*
X142467000Y-93940475D02*
X143181285Y-94178570D01*
X143181285Y-94178570D02*
X143181285Y-93559523D01*
%TO.C,C4*%
X177967380Y-93166666D02*
X178015000Y-93214285D01*
X178015000Y-93214285D02*
X178062619Y-93357142D01*
X178062619Y-93357142D02*
X178062619Y-93452380D01*
X178062619Y-93452380D02*
X178015000Y-93595237D01*
X178015000Y-93595237D02*
X177919761Y-93690475D01*
X177919761Y-93690475D02*
X177824523Y-93738094D01*
X177824523Y-93738094D02*
X177634047Y-93785713D01*
X177634047Y-93785713D02*
X177491190Y-93785713D01*
X177491190Y-93785713D02*
X177300714Y-93738094D01*
X177300714Y-93738094D02*
X177205476Y-93690475D01*
X177205476Y-93690475D02*
X177110238Y-93595237D01*
X177110238Y-93595237D02*
X177062619Y-93452380D01*
X177062619Y-93452380D02*
X177062619Y-93357142D01*
X177062619Y-93357142D02*
X177110238Y-93214285D01*
X177110238Y-93214285D02*
X177157857Y-93166666D01*
X177395952Y-92309523D02*
X178062619Y-92309523D01*
X177015000Y-92547618D02*
X177729285Y-92785713D01*
X177729285Y-92785713D02*
X177729285Y-92166666D01*
%TO.C,D4*%
X122562619Y-108238094D02*
X121562619Y-108238094D01*
X121562619Y-108238094D02*
X121562619Y-107999999D01*
X121562619Y-107999999D02*
X121610238Y-107857142D01*
X121610238Y-107857142D02*
X121705476Y-107761904D01*
X121705476Y-107761904D02*
X121800714Y-107714285D01*
X121800714Y-107714285D02*
X121991190Y-107666666D01*
X121991190Y-107666666D02*
X122134047Y-107666666D01*
X122134047Y-107666666D02*
X122324523Y-107714285D01*
X122324523Y-107714285D02*
X122419761Y-107761904D01*
X122419761Y-107761904D02*
X122515000Y-107857142D01*
X122515000Y-107857142D02*
X122562619Y-107999999D01*
X122562619Y-107999999D02*
X122562619Y-108238094D01*
X121895952Y-106809523D02*
X122562619Y-106809523D01*
X121515000Y-107047618D02*
X122229285Y-107285713D01*
X122229285Y-107285713D02*
X122229285Y-106666666D01*
%TO.C,C7*%
X146833333Y-95867380D02*
X146785714Y-95915000D01*
X146785714Y-95915000D02*
X146642857Y-95962619D01*
X146642857Y-95962619D02*
X146547619Y-95962619D01*
X146547619Y-95962619D02*
X146404762Y-95915000D01*
X146404762Y-95915000D02*
X146309524Y-95819761D01*
X146309524Y-95819761D02*
X146261905Y-95724523D01*
X146261905Y-95724523D02*
X146214286Y-95534047D01*
X146214286Y-95534047D02*
X146214286Y-95391190D01*
X146214286Y-95391190D02*
X146261905Y-95200714D01*
X146261905Y-95200714D02*
X146309524Y-95105476D01*
X146309524Y-95105476D02*
X146404762Y-95010238D01*
X146404762Y-95010238D02*
X146547619Y-94962619D01*
X146547619Y-94962619D02*
X146642857Y-94962619D01*
X146642857Y-94962619D02*
X146785714Y-95010238D01*
X146785714Y-95010238D02*
X146833333Y-95057857D01*
X147166667Y-94962619D02*
X147833333Y-94962619D01*
X147833333Y-94962619D02*
X147404762Y-95962619D01*
%TO.C,SW2*%
X188566667Y-93715000D02*
X188709524Y-93762619D01*
X188709524Y-93762619D02*
X188947619Y-93762619D01*
X188947619Y-93762619D02*
X189042857Y-93715000D01*
X189042857Y-93715000D02*
X189090476Y-93667380D01*
X189090476Y-93667380D02*
X189138095Y-93572142D01*
X189138095Y-93572142D02*
X189138095Y-93476904D01*
X189138095Y-93476904D02*
X189090476Y-93381666D01*
X189090476Y-93381666D02*
X189042857Y-93334047D01*
X189042857Y-93334047D02*
X188947619Y-93286428D01*
X188947619Y-93286428D02*
X188757143Y-93238809D01*
X188757143Y-93238809D02*
X188661905Y-93191190D01*
X188661905Y-93191190D02*
X188614286Y-93143571D01*
X188614286Y-93143571D02*
X188566667Y-93048333D01*
X188566667Y-93048333D02*
X188566667Y-92953095D01*
X188566667Y-92953095D02*
X188614286Y-92857857D01*
X188614286Y-92857857D02*
X188661905Y-92810238D01*
X188661905Y-92810238D02*
X188757143Y-92762619D01*
X188757143Y-92762619D02*
X188995238Y-92762619D01*
X188995238Y-92762619D02*
X189138095Y-92810238D01*
X189471429Y-92762619D02*
X189709524Y-93762619D01*
X189709524Y-93762619D02*
X189900000Y-93048333D01*
X189900000Y-93048333D02*
X190090476Y-93762619D01*
X190090476Y-93762619D02*
X190328572Y-92762619D01*
X190661905Y-92857857D02*
X190709524Y-92810238D01*
X190709524Y-92810238D02*
X190804762Y-92762619D01*
X190804762Y-92762619D02*
X191042857Y-92762619D01*
X191042857Y-92762619D02*
X191138095Y-92810238D01*
X191138095Y-92810238D02*
X191185714Y-92857857D01*
X191185714Y-92857857D02*
X191233333Y-92953095D01*
X191233333Y-92953095D02*
X191233333Y-93048333D01*
X191233333Y-93048333D02*
X191185714Y-93191190D01*
X191185714Y-93191190D02*
X190614286Y-93762619D01*
X190614286Y-93762619D02*
X191233333Y-93762619D01*
%TO.C,C8*%
X150833333Y-96267380D02*
X150785714Y-96315000D01*
X150785714Y-96315000D02*
X150642857Y-96362619D01*
X150642857Y-96362619D02*
X150547619Y-96362619D01*
X150547619Y-96362619D02*
X150404762Y-96315000D01*
X150404762Y-96315000D02*
X150309524Y-96219761D01*
X150309524Y-96219761D02*
X150261905Y-96124523D01*
X150261905Y-96124523D02*
X150214286Y-95934047D01*
X150214286Y-95934047D02*
X150214286Y-95791190D01*
X150214286Y-95791190D02*
X150261905Y-95600714D01*
X150261905Y-95600714D02*
X150309524Y-95505476D01*
X150309524Y-95505476D02*
X150404762Y-95410238D01*
X150404762Y-95410238D02*
X150547619Y-95362619D01*
X150547619Y-95362619D02*
X150642857Y-95362619D01*
X150642857Y-95362619D02*
X150785714Y-95410238D01*
X150785714Y-95410238D02*
X150833333Y-95457857D01*
X151404762Y-95791190D02*
X151309524Y-95743571D01*
X151309524Y-95743571D02*
X151261905Y-95695952D01*
X151261905Y-95695952D02*
X151214286Y-95600714D01*
X151214286Y-95600714D02*
X151214286Y-95553095D01*
X151214286Y-95553095D02*
X151261905Y-95457857D01*
X151261905Y-95457857D02*
X151309524Y-95410238D01*
X151309524Y-95410238D02*
X151404762Y-95362619D01*
X151404762Y-95362619D02*
X151595238Y-95362619D01*
X151595238Y-95362619D02*
X151690476Y-95410238D01*
X151690476Y-95410238D02*
X151738095Y-95457857D01*
X151738095Y-95457857D02*
X151785714Y-95553095D01*
X151785714Y-95553095D02*
X151785714Y-95600714D01*
X151785714Y-95600714D02*
X151738095Y-95695952D01*
X151738095Y-95695952D02*
X151690476Y-95743571D01*
X151690476Y-95743571D02*
X151595238Y-95791190D01*
X151595238Y-95791190D02*
X151404762Y-95791190D01*
X151404762Y-95791190D02*
X151309524Y-95838809D01*
X151309524Y-95838809D02*
X151261905Y-95886428D01*
X151261905Y-95886428D02*
X151214286Y-95981666D01*
X151214286Y-95981666D02*
X151214286Y-96172142D01*
X151214286Y-96172142D02*
X151261905Y-96267380D01*
X151261905Y-96267380D02*
X151309524Y-96315000D01*
X151309524Y-96315000D02*
X151404762Y-96362619D01*
X151404762Y-96362619D02*
X151595238Y-96362619D01*
X151595238Y-96362619D02*
X151690476Y-96315000D01*
X151690476Y-96315000D02*
X151738095Y-96267380D01*
X151738095Y-96267380D02*
X151785714Y-96172142D01*
X151785714Y-96172142D02*
X151785714Y-95981666D01*
X151785714Y-95981666D02*
X151738095Y-95886428D01*
X151738095Y-95886428D02*
X151690476Y-95838809D01*
X151690476Y-95838809D02*
X151595238Y-95791190D01*
%TO.C,C11*%
X123057142Y-76127380D02*
X123009523Y-76175000D01*
X123009523Y-76175000D02*
X122866666Y-76222619D01*
X122866666Y-76222619D02*
X122771428Y-76222619D01*
X122771428Y-76222619D02*
X122628571Y-76175000D01*
X122628571Y-76175000D02*
X122533333Y-76079761D01*
X122533333Y-76079761D02*
X122485714Y-75984523D01*
X122485714Y-75984523D02*
X122438095Y-75794047D01*
X122438095Y-75794047D02*
X122438095Y-75651190D01*
X122438095Y-75651190D02*
X122485714Y-75460714D01*
X122485714Y-75460714D02*
X122533333Y-75365476D01*
X122533333Y-75365476D02*
X122628571Y-75270238D01*
X122628571Y-75270238D02*
X122771428Y-75222619D01*
X122771428Y-75222619D02*
X122866666Y-75222619D01*
X122866666Y-75222619D02*
X123009523Y-75270238D01*
X123009523Y-75270238D02*
X123057142Y-75317857D01*
X124009523Y-76222619D02*
X123438095Y-76222619D01*
X123723809Y-76222619D02*
X123723809Y-75222619D01*
X123723809Y-75222619D02*
X123628571Y-75365476D01*
X123628571Y-75365476D02*
X123533333Y-75460714D01*
X123533333Y-75460714D02*
X123438095Y-75508333D01*
X124961904Y-76222619D02*
X124390476Y-76222619D01*
X124676190Y-76222619D02*
X124676190Y-75222619D01*
X124676190Y-75222619D02*
X124580952Y-75365476D01*
X124580952Y-75365476D02*
X124485714Y-75460714D01*
X124485714Y-75460714D02*
X124390476Y-75508333D01*
%TO.C,TP1*%
X185910619Y-91011904D02*
X185910619Y-90440476D01*
X186910619Y-90726190D02*
X185910619Y-90726190D01*
X186910619Y-90107142D02*
X185910619Y-90107142D01*
X185910619Y-90107142D02*
X185910619Y-89726190D01*
X185910619Y-89726190D02*
X185958238Y-89630952D01*
X185958238Y-89630952D02*
X186005857Y-89583333D01*
X186005857Y-89583333D02*
X186101095Y-89535714D01*
X186101095Y-89535714D02*
X186243952Y-89535714D01*
X186243952Y-89535714D02*
X186339190Y-89583333D01*
X186339190Y-89583333D02*
X186386809Y-89630952D01*
X186386809Y-89630952D02*
X186434428Y-89726190D01*
X186434428Y-89726190D02*
X186434428Y-90107142D01*
X186910619Y-88583333D02*
X186910619Y-89154761D01*
X186910619Y-88869047D02*
X185910619Y-88869047D01*
X185910619Y-88869047D02*
X186053476Y-88964285D01*
X186053476Y-88964285D02*
X186148714Y-89059523D01*
X186148714Y-89059523D02*
X186196333Y-89154761D01*
%TO.C,R2*%
X113462619Y-108166666D02*
X112986428Y-108499999D01*
X113462619Y-108738094D02*
X112462619Y-108738094D01*
X112462619Y-108738094D02*
X112462619Y-108357142D01*
X112462619Y-108357142D02*
X112510238Y-108261904D01*
X112510238Y-108261904D02*
X112557857Y-108214285D01*
X112557857Y-108214285D02*
X112653095Y-108166666D01*
X112653095Y-108166666D02*
X112795952Y-108166666D01*
X112795952Y-108166666D02*
X112891190Y-108214285D01*
X112891190Y-108214285D02*
X112938809Y-108261904D01*
X112938809Y-108261904D02*
X112986428Y-108357142D01*
X112986428Y-108357142D02*
X112986428Y-108738094D01*
X112557857Y-107785713D02*
X112510238Y-107738094D01*
X112510238Y-107738094D02*
X112462619Y-107642856D01*
X112462619Y-107642856D02*
X112462619Y-107404761D01*
X112462619Y-107404761D02*
X112510238Y-107309523D01*
X112510238Y-107309523D02*
X112557857Y-107261904D01*
X112557857Y-107261904D02*
X112653095Y-107214285D01*
X112653095Y-107214285D02*
X112748333Y-107214285D01*
X112748333Y-107214285D02*
X112891190Y-107261904D01*
X112891190Y-107261904D02*
X113462619Y-107833332D01*
X113462619Y-107833332D02*
X113462619Y-107214285D01*
%TO.C,R10*%
X179577619Y-93142857D02*
X179101428Y-93476190D01*
X179577619Y-93714285D02*
X178577619Y-93714285D01*
X178577619Y-93714285D02*
X178577619Y-93333333D01*
X178577619Y-93333333D02*
X178625238Y-93238095D01*
X178625238Y-93238095D02*
X178672857Y-93190476D01*
X178672857Y-93190476D02*
X178768095Y-93142857D01*
X178768095Y-93142857D02*
X178910952Y-93142857D01*
X178910952Y-93142857D02*
X179006190Y-93190476D01*
X179006190Y-93190476D02*
X179053809Y-93238095D01*
X179053809Y-93238095D02*
X179101428Y-93333333D01*
X179101428Y-93333333D02*
X179101428Y-93714285D01*
X179577619Y-92190476D02*
X179577619Y-92761904D01*
X179577619Y-92476190D02*
X178577619Y-92476190D01*
X178577619Y-92476190D02*
X178720476Y-92571428D01*
X178720476Y-92571428D02*
X178815714Y-92666666D01*
X178815714Y-92666666D02*
X178863333Y-92761904D01*
X178577619Y-91571428D02*
X178577619Y-91476190D01*
X178577619Y-91476190D02*
X178625238Y-91380952D01*
X178625238Y-91380952D02*
X178672857Y-91333333D01*
X178672857Y-91333333D02*
X178768095Y-91285714D01*
X178768095Y-91285714D02*
X178958571Y-91238095D01*
X178958571Y-91238095D02*
X179196666Y-91238095D01*
X179196666Y-91238095D02*
X179387142Y-91285714D01*
X179387142Y-91285714D02*
X179482380Y-91333333D01*
X179482380Y-91333333D02*
X179530000Y-91380952D01*
X179530000Y-91380952D02*
X179577619Y-91476190D01*
X179577619Y-91476190D02*
X179577619Y-91571428D01*
X179577619Y-91571428D02*
X179530000Y-91666666D01*
X179530000Y-91666666D02*
X179482380Y-91714285D01*
X179482380Y-91714285D02*
X179387142Y-91761904D01*
X179387142Y-91761904D02*
X179196666Y-91809523D01*
X179196666Y-91809523D02*
X178958571Y-91809523D01*
X178958571Y-91809523D02*
X178768095Y-91761904D01*
X178768095Y-91761904D02*
X178672857Y-91714285D01*
X178672857Y-91714285D02*
X178625238Y-91666666D01*
X178625238Y-91666666D02*
X178577619Y-91571428D01*
%TO.C,R21*%
X147312619Y-87092857D02*
X146836428Y-87426190D01*
X147312619Y-87664285D02*
X146312619Y-87664285D01*
X146312619Y-87664285D02*
X146312619Y-87283333D01*
X146312619Y-87283333D02*
X146360238Y-87188095D01*
X146360238Y-87188095D02*
X146407857Y-87140476D01*
X146407857Y-87140476D02*
X146503095Y-87092857D01*
X146503095Y-87092857D02*
X146645952Y-87092857D01*
X146645952Y-87092857D02*
X146741190Y-87140476D01*
X146741190Y-87140476D02*
X146788809Y-87188095D01*
X146788809Y-87188095D02*
X146836428Y-87283333D01*
X146836428Y-87283333D02*
X146836428Y-87664285D01*
X146407857Y-86711904D02*
X146360238Y-86664285D01*
X146360238Y-86664285D02*
X146312619Y-86569047D01*
X146312619Y-86569047D02*
X146312619Y-86330952D01*
X146312619Y-86330952D02*
X146360238Y-86235714D01*
X146360238Y-86235714D02*
X146407857Y-86188095D01*
X146407857Y-86188095D02*
X146503095Y-86140476D01*
X146503095Y-86140476D02*
X146598333Y-86140476D01*
X146598333Y-86140476D02*
X146741190Y-86188095D01*
X146741190Y-86188095D02*
X147312619Y-86759523D01*
X147312619Y-86759523D02*
X147312619Y-86140476D01*
X147312619Y-85188095D02*
X147312619Y-85759523D01*
X147312619Y-85473809D02*
X146312619Y-85473809D01*
X146312619Y-85473809D02*
X146455476Y-85569047D01*
X146455476Y-85569047D02*
X146550714Y-85664285D01*
X146550714Y-85664285D02*
X146598333Y-85759523D01*
%TO.C,R5*%
X145083333Y-83212619D02*
X144750000Y-82736428D01*
X144511905Y-83212619D02*
X144511905Y-82212619D01*
X144511905Y-82212619D02*
X144892857Y-82212619D01*
X144892857Y-82212619D02*
X144988095Y-82260238D01*
X144988095Y-82260238D02*
X145035714Y-82307857D01*
X145035714Y-82307857D02*
X145083333Y-82403095D01*
X145083333Y-82403095D02*
X145083333Y-82545952D01*
X145083333Y-82545952D02*
X145035714Y-82641190D01*
X145035714Y-82641190D02*
X144988095Y-82688809D01*
X144988095Y-82688809D02*
X144892857Y-82736428D01*
X144892857Y-82736428D02*
X144511905Y-82736428D01*
X145988095Y-82212619D02*
X145511905Y-82212619D01*
X145511905Y-82212619D02*
X145464286Y-82688809D01*
X145464286Y-82688809D02*
X145511905Y-82641190D01*
X145511905Y-82641190D02*
X145607143Y-82593571D01*
X145607143Y-82593571D02*
X145845238Y-82593571D01*
X145845238Y-82593571D02*
X145940476Y-82641190D01*
X145940476Y-82641190D02*
X145988095Y-82688809D01*
X145988095Y-82688809D02*
X146035714Y-82784047D01*
X146035714Y-82784047D02*
X146035714Y-83022142D01*
X146035714Y-83022142D02*
X145988095Y-83117380D01*
X145988095Y-83117380D02*
X145940476Y-83165000D01*
X145940476Y-83165000D02*
X145845238Y-83212619D01*
X145845238Y-83212619D02*
X145607143Y-83212619D01*
X145607143Y-83212619D02*
X145511905Y-83165000D01*
X145511905Y-83165000D02*
X145464286Y-83117380D01*
%TO.C,R13*%
X165357142Y-89862619D02*
X165023809Y-89386428D01*
X164785714Y-89862619D02*
X164785714Y-88862619D01*
X164785714Y-88862619D02*
X165166666Y-88862619D01*
X165166666Y-88862619D02*
X165261904Y-88910238D01*
X165261904Y-88910238D02*
X165309523Y-88957857D01*
X165309523Y-88957857D02*
X165357142Y-89053095D01*
X165357142Y-89053095D02*
X165357142Y-89195952D01*
X165357142Y-89195952D02*
X165309523Y-89291190D01*
X165309523Y-89291190D02*
X165261904Y-89338809D01*
X165261904Y-89338809D02*
X165166666Y-89386428D01*
X165166666Y-89386428D02*
X164785714Y-89386428D01*
X166309523Y-89862619D02*
X165738095Y-89862619D01*
X166023809Y-89862619D02*
X166023809Y-88862619D01*
X166023809Y-88862619D02*
X165928571Y-89005476D01*
X165928571Y-89005476D02*
X165833333Y-89100714D01*
X165833333Y-89100714D02*
X165738095Y-89148333D01*
X166642857Y-88862619D02*
X167261904Y-88862619D01*
X167261904Y-88862619D02*
X166928571Y-89243571D01*
X166928571Y-89243571D02*
X167071428Y-89243571D01*
X167071428Y-89243571D02*
X167166666Y-89291190D01*
X167166666Y-89291190D02*
X167214285Y-89338809D01*
X167214285Y-89338809D02*
X167261904Y-89434047D01*
X167261904Y-89434047D02*
X167261904Y-89672142D01*
X167261904Y-89672142D02*
X167214285Y-89767380D01*
X167214285Y-89767380D02*
X167166666Y-89815000D01*
X167166666Y-89815000D02*
X167071428Y-89862619D01*
X167071428Y-89862619D02*
X166785714Y-89862619D01*
X166785714Y-89862619D02*
X166690476Y-89815000D01*
X166690476Y-89815000D02*
X166642857Y-89767380D01*
%TO.C,TP12*%
X188061905Y-105014619D02*
X188633333Y-105014619D01*
X188347619Y-106014619D02*
X188347619Y-105014619D01*
X188966667Y-106014619D02*
X188966667Y-105014619D01*
X188966667Y-105014619D02*
X189347619Y-105014619D01*
X189347619Y-105014619D02*
X189442857Y-105062238D01*
X189442857Y-105062238D02*
X189490476Y-105109857D01*
X189490476Y-105109857D02*
X189538095Y-105205095D01*
X189538095Y-105205095D02*
X189538095Y-105347952D01*
X189538095Y-105347952D02*
X189490476Y-105443190D01*
X189490476Y-105443190D02*
X189442857Y-105490809D01*
X189442857Y-105490809D02*
X189347619Y-105538428D01*
X189347619Y-105538428D02*
X188966667Y-105538428D01*
X190490476Y-106014619D02*
X189919048Y-106014619D01*
X190204762Y-106014619D02*
X190204762Y-105014619D01*
X190204762Y-105014619D02*
X190109524Y-105157476D01*
X190109524Y-105157476D02*
X190014286Y-105252714D01*
X190014286Y-105252714D02*
X189919048Y-105300333D01*
X190871429Y-105109857D02*
X190919048Y-105062238D01*
X190919048Y-105062238D02*
X191014286Y-105014619D01*
X191014286Y-105014619D02*
X191252381Y-105014619D01*
X191252381Y-105014619D02*
X191347619Y-105062238D01*
X191347619Y-105062238D02*
X191395238Y-105109857D01*
X191395238Y-105109857D02*
X191442857Y-105205095D01*
X191442857Y-105205095D02*
X191442857Y-105300333D01*
X191442857Y-105300333D02*
X191395238Y-105443190D01*
X191395238Y-105443190D02*
X190823810Y-106014619D01*
X190823810Y-106014619D02*
X191442857Y-106014619D01*
%TO.C,R14*%
X173512619Y-86392857D02*
X173036428Y-86726190D01*
X173512619Y-86964285D02*
X172512619Y-86964285D01*
X172512619Y-86964285D02*
X172512619Y-86583333D01*
X172512619Y-86583333D02*
X172560238Y-86488095D01*
X172560238Y-86488095D02*
X172607857Y-86440476D01*
X172607857Y-86440476D02*
X172703095Y-86392857D01*
X172703095Y-86392857D02*
X172845952Y-86392857D01*
X172845952Y-86392857D02*
X172941190Y-86440476D01*
X172941190Y-86440476D02*
X172988809Y-86488095D01*
X172988809Y-86488095D02*
X173036428Y-86583333D01*
X173036428Y-86583333D02*
X173036428Y-86964285D01*
X173512619Y-85440476D02*
X173512619Y-86011904D01*
X173512619Y-85726190D02*
X172512619Y-85726190D01*
X172512619Y-85726190D02*
X172655476Y-85821428D01*
X172655476Y-85821428D02*
X172750714Y-85916666D01*
X172750714Y-85916666D02*
X172798333Y-86011904D01*
X172845952Y-84583333D02*
X173512619Y-84583333D01*
X172465000Y-84821428D02*
X173179285Y-85059523D01*
X173179285Y-85059523D02*
X173179285Y-84440476D01*
%TO.C,Q1*%
X127204761Y-102457857D02*
X127109523Y-102410238D01*
X127109523Y-102410238D02*
X127014285Y-102315000D01*
X127014285Y-102315000D02*
X126871428Y-102172142D01*
X126871428Y-102172142D02*
X126776190Y-102124523D01*
X126776190Y-102124523D02*
X126680952Y-102124523D01*
X126728571Y-102362619D02*
X126633333Y-102315000D01*
X126633333Y-102315000D02*
X126538095Y-102219761D01*
X126538095Y-102219761D02*
X126490476Y-102029285D01*
X126490476Y-102029285D02*
X126490476Y-101695952D01*
X126490476Y-101695952D02*
X126538095Y-101505476D01*
X126538095Y-101505476D02*
X126633333Y-101410238D01*
X126633333Y-101410238D02*
X126728571Y-101362619D01*
X126728571Y-101362619D02*
X126919047Y-101362619D01*
X126919047Y-101362619D02*
X127014285Y-101410238D01*
X127014285Y-101410238D02*
X127109523Y-101505476D01*
X127109523Y-101505476D02*
X127157142Y-101695952D01*
X127157142Y-101695952D02*
X127157142Y-102029285D01*
X127157142Y-102029285D02*
X127109523Y-102219761D01*
X127109523Y-102219761D02*
X127014285Y-102315000D01*
X127014285Y-102315000D02*
X126919047Y-102362619D01*
X126919047Y-102362619D02*
X126728571Y-102362619D01*
X128109523Y-102362619D02*
X127538095Y-102362619D01*
X127823809Y-102362619D02*
X127823809Y-101362619D01*
X127823809Y-101362619D02*
X127728571Y-101505476D01*
X127728571Y-101505476D02*
X127633333Y-101600714D01*
X127633333Y-101600714D02*
X127538095Y-101648333D01*
%TO.C,TP11*%
X187761905Y-89264619D02*
X188333333Y-89264619D01*
X188047619Y-90264619D02*
X188047619Y-89264619D01*
X188666667Y-90264619D02*
X188666667Y-89264619D01*
X188666667Y-89264619D02*
X189047619Y-89264619D01*
X189047619Y-89264619D02*
X189142857Y-89312238D01*
X189142857Y-89312238D02*
X189190476Y-89359857D01*
X189190476Y-89359857D02*
X189238095Y-89455095D01*
X189238095Y-89455095D02*
X189238095Y-89597952D01*
X189238095Y-89597952D02*
X189190476Y-89693190D01*
X189190476Y-89693190D02*
X189142857Y-89740809D01*
X189142857Y-89740809D02*
X189047619Y-89788428D01*
X189047619Y-89788428D02*
X188666667Y-89788428D01*
X190190476Y-90264619D02*
X189619048Y-90264619D01*
X189904762Y-90264619D02*
X189904762Y-89264619D01*
X189904762Y-89264619D02*
X189809524Y-89407476D01*
X189809524Y-89407476D02*
X189714286Y-89502714D01*
X189714286Y-89502714D02*
X189619048Y-89550333D01*
X191142857Y-90264619D02*
X190571429Y-90264619D01*
X190857143Y-90264619D02*
X190857143Y-89264619D01*
X190857143Y-89264619D02*
X190761905Y-89407476D01*
X190761905Y-89407476D02*
X190666667Y-89502714D01*
X190666667Y-89502714D02*
X190571429Y-89550333D01*
%TO.C,C6*%
X175698333Y-96117380D02*
X175650714Y-96165000D01*
X175650714Y-96165000D02*
X175507857Y-96212619D01*
X175507857Y-96212619D02*
X175412619Y-96212619D01*
X175412619Y-96212619D02*
X175269762Y-96165000D01*
X175269762Y-96165000D02*
X175174524Y-96069761D01*
X175174524Y-96069761D02*
X175126905Y-95974523D01*
X175126905Y-95974523D02*
X175079286Y-95784047D01*
X175079286Y-95784047D02*
X175079286Y-95641190D01*
X175079286Y-95641190D02*
X175126905Y-95450714D01*
X175126905Y-95450714D02*
X175174524Y-95355476D01*
X175174524Y-95355476D02*
X175269762Y-95260238D01*
X175269762Y-95260238D02*
X175412619Y-95212619D01*
X175412619Y-95212619D02*
X175507857Y-95212619D01*
X175507857Y-95212619D02*
X175650714Y-95260238D01*
X175650714Y-95260238D02*
X175698333Y-95307857D01*
X176555476Y-95212619D02*
X176365000Y-95212619D01*
X176365000Y-95212619D02*
X176269762Y-95260238D01*
X176269762Y-95260238D02*
X176222143Y-95307857D01*
X176222143Y-95307857D02*
X176126905Y-95450714D01*
X176126905Y-95450714D02*
X176079286Y-95641190D01*
X176079286Y-95641190D02*
X176079286Y-96022142D01*
X176079286Y-96022142D02*
X176126905Y-96117380D01*
X176126905Y-96117380D02*
X176174524Y-96165000D01*
X176174524Y-96165000D02*
X176269762Y-96212619D01*
X176269762Y-96212619D02*
X176460238Y-96212619D01*
X176460238Y-96212619D02*
X176555476Y-96165000D01*
X176555476Y-96165000D02*
X176603095Y-96117380D01*
X176603095Y-96117380D02*
X176650714Y-96022142D01*
X176650714Y-96022142D02*
X176650714Y-95784047D01*
X176650714Y-95784047D02*
X176603095Y-95688809D01*
X176603095Y-95688809D02*
X176555476Y-95641190D01*
X176555476Y-95641190D02*
X176460238Y-95593571D01*
X176460238Y-95593571D02*
X176269762Y-95593571D01*
X176269762Y-95593571D02*
X176174524Y-95641190D01*
X176174524Y-95641190D02*
X176126905Y-95688809D01*
X176126905Y-95688809D02*
X176079286Y-95784047D01*
%TO.C,R23*%
X140077619Y-85382857D02*
X139601428Y-85716190D01*
X140077619Y-85954285D02*
X139077619Y-85954285D01*
X139077619Y-85954285D02*
X139077619Y-85573333D01*
X139077619Y-85573333D02*
X139125238Y-85478095D01*
X139125238Y-85478095D02*
X139172857Y-85430476D01*
X139172857Y-85430476D02*
X139268095Y-85382857D01*
X139268095Y-85382857D02*
X139410952Y-85382857D01*
X139410952Y-85382857D02*
X139506190Y-85430476D01*
X139506190Y-85430476D02*
X139553809Y-85478095D01*
X139553809Y-85478095D02*
X139601428Y-85573333D01*
X139601428Y-85573333D02*
X139601428Y-85954285D01*
X139172857Y-85001904D02*
X139125238Y-84954285D01*
X139125238Y-84954285D02*
X139077619Y-84859047D01*
X139077619Y-84859047D02*
X139077619Y-84620952D01*
X139077619Y-84620952D02*
X139125238Y-84525714D01*
X139125238Y-84525714D02*
X139172857Y-84478095D01*
X139172857Y-84478095D02*
X139268095Y-84430476D01*
X139268095Y-84430476D02*
X139363333Y-84430476D01*
X139363333Y-84430476D02*
X139506190Y-84478095D01*
X139506190Y-84478095D02*
X140077619Y-85049523D01*
X140077619Y-85049523D02*
X140077619Y-84430476D01*
X139077619Y-84097142D02*
X139077619Y-83478095D01*
X139077619Y-83478095D02*
X139458571Y-83811428D01*
X139458571Y-83811428D02*
X139458571Y-83668571D01*
X139458571Y-83668571D02*
X139506190Y-83573333D01*
X139506190Y-83573333D02*
X139553809Y-83525714D01*
X139553809Y-83525714D02*
X139649047Y-83478095D01*
X139649047Y-83478095D02*
X139887142Y-83478095D01*
X139887142Y-83478095D02*
X139982380Y-83525714D01*
X139982380Y-83525714D02*
X140030000Y-83573333D01*
X140030000Y-83573333D02*
X140077619Y-83668571D01*
X140077619Y-83668571D02*
X140077619Y-83954285D01*
X140077619Y-83954285D02*
X140030000Y-84049523D01*
X140030000Y-84049523D02*
X139982380Y-84097142D01*
%TO.C,Y1*%
X152089809Y-102598428D02*
X152089809Y-103074619D01*
X151756476Y-102074619D02*
X152089809Y-102598428D01*
X152089809Y-102598428D02*
X152423142Y-102074619D01*
X153280285Y-103074619D02*
X152708857Y-103074619D01*
X152994571Y-103074619D02*
X152994571Y-102074619D01*
X152994571Y-102074619D02*
X152899333Y-102217476D01*
X152899333Y-102217476D02*
X152804095Y-102312714D01*
X152804095Y-102312714D02*
X152708857Y-102360333D01*
%TO.C,J2*%
X161082619Y-76583333D02*
X161796904Y-76583333D01*
X161796904Y-76583333D02*
X161939761Y-76630952D01*
X161939761Y-76630952D02*
X162035000Y-76726190D01*
X162035000Y-76726190D02*
X162082619Y-76869047D01*
X162082619Y-76869047D02*
X162082619Y-76964285D01*
X161177857Y-76154761D02*
X161130238Y-76107142D01*
X161130238Y-76107142D02*
X161082619Y-76011904D01*
X161082619Y-76011904D02*
X161082619Y-75773809D01*
X161082619Y-75773809D02*
X161130238Y-75678571D01*
X161130238Y-75678571D02*
X161177857Y-75630952D01*
X161177857Y-75630952D02*
X161273095Y-75583333D01*
X161273095Y-75583333D02*
X161368333Y-75583333D01*
X161368333Y-75583333D02*
X161511190Y-75630952D01*
X161511190Y-75630952D02*
X162082619Y-76202380D01*
X162082619Y-76202380D02*
X162082619Y-75583333D01*
%TO.C,U3*%
X181097619Y-102486904D02*
X181907142Y-102486904D01*
X181907142Y-102486904D02*
X182002380Y-102439285D01*
X182002380Y-102439285D02*
X182050000Y-102391666D01*
X182050000Y-102391666D02*
X182097619Y-102296428D01*
X182097619Y-102296428D02*
X182097619Y-102105952D01*
X182097619Y-102105952D02*
X182050000Y-102010714D01*
X182050000Y-102010714D02*
X182002380Y-101963095D01*
X182002380Y-101963095D02*
X181907142Y-101915476D01*
X181907142Y-101915476D02*
X181097619Y-101915476D01*
X181097619Y-101534523D02*
X181097619Y-100915476D01*
X181097619Y-100915476D02*
X181478571Y-101248809D01*
X181478571Y-101248809D02*
X181478571Y-101105952D01*
X181478571Y-101105952D02*
X181526190Y-101010714D01*
X181526190Y-101010714D02*
X181573809Y-100963095D01*
X181573809Y-100963095D02*
X181669047Y-100915476D01*
X181669047Y-100915476D02*
X181907142Y-100915476D01*
X181907142Y-100915476D02*
X182002380Y-100963095D01*
X182002380Y-100963095D02*
X182050000Y-101010714D01*
X182050000Y-101010714D02*
X182097619Y-101105952D01*
X182097619Y-101105952D02*
X182097619Y-101391666D01*
X182097619Y-101391666D02*
X182050000Y-101486904D01*
X182050000Y-101486904D02*
X182002380Y-101534523D01*
%TO.C,R16*%
X173382619Y-79892857D02*
X172906428Y-80226190D01*
X173382619Y-80464285D02*
X172382619Y-80464285D01*
X172382619Y-80464285D02*
X172382619Y-80083333D01*
X172382619Y-80083333D02*
X172430238Y-79988095D01*
X172430238Y-79988095D02*
X172477857Y-79940476D01*
X172477857Y-79940476D02*
X172573095Y-79892857D01*
X172573095Y-79892857D02*
X172715952Y-79892857D01*
X172715952Y-79892857D02*
X172811190Y-79940476D01*
X172811190Y-79940476D02*
X172858809Y-79988095D01*
X172858809Y-79988095D02*
X172906428Y-80083333D01*
X172906428Y-80083333D02*
X172906428Y-80464285D01*
X173382619Y-78940476D02*
X173382619Y-79511904D01*
X173382619Y-79226190D02*
X172382619Y-79226190D01*
X172382619Y-79226190D02*
X172525476Y-79321428D01*
X172525476Y-79321428D02*
X172620714Y-79416666D01*
X172620714Y-79416666D02*
X172668333Y-79511904D01*
X172382619Y-78083333D02*
X172382619Y-78273809D01*
X172382619Y-78273809D02*
X172430238Y-78369047D01*
X172430238Y-78369047D02*
X172477857Y-78416666D01*
X172477857Y-78416666D02*
X172620714Y-78511904D01*
X172620714Y-78511904D02*
X172811190Y-78559523D01*
X172811190Y-78559523D02*
X173192142Y-78559523D01*
X173192142Y-78559523D02*
X173287380Y-78511904D01*
X173287380Y-78511904D02*
X173335000Y-78464285D01*
X173335000Y-78464285D02*
X173382619Y-78369047D01*
X173382619Y-78369047D02*
X173382619Y-78178571D01*
X173382619Y-78178571D02*
X173335000Y-78083333D01*
X173335000Y-78083333D02*
X173287380Y-78035714D01*
X173287380Y-78035714D02*
X173192142Y-77988095D01*
X173192142Y-77988095D02*
X172954047Y-77988095D01*
X172954047Y-77988095D02*
X172858809Y-78035714D01*
X172858809Y-78035714D02*
X172811190Y-78083333D01*
X172811190Y-78083333D02*
X172763571Y-78178571D01*
X172763571Y-78178571D02*
X172763571Y-78369047D01*
X172763571Y-78369047D02*
X172811190Y-78464285D01*
X172811190Y-78464285D02*
X172858809Y-78511904D01*
X172858809Y-78511904D02*
X172954047Y-78559523D01*
%TO.C,R27*%
X118562619Y-108142857D02*
X118086428Y-108476190D01*
X118562619Y-108714285D02*
X117562619Y-108714285D01*
X117562619Y-108714285D02*
X117562619Y-108333333D01*
X117562619Y-108333333D02*
X117610238Y-108238095D01*
X117610238Y-108238095D02*
X117657857Y-108190476D01*
X117657857Y-108190476D02*
X117753095Y-108142857D01*
X117753095Y-108142857D02*
X117895952Y-108142857D01*
X117895952Y-108142857D02*
X117991190Y-108190476D01*
X117991190Y-108190476D02*
X118038809Y-108238095D01*
X118038809Y-108238095D02*
X118086428Y-108333333D01*
X118086428Y-108333333D02*
X118086428Y-108714285D01*
X117657857Y-107761904D02*
X117610238Y-107714285D01*
X117610238Y-107714285D02*
X117562619Y-107619047D01*
X117562619Y-107619047D02*
X117562619Y-107380952D01*
X117562619Y-107380952D02*
X117610238Y-107285714D01*
X117610238Y-107285714D02*
X117657857Y-107238095D01*
X117657857Y-107238095D02*
X117753095Y-107190476D01*
X117753095Y-107190476D02*
X117848333Y-107190476D01*
X117848333Y-107190476D02*
X117991190Y-107238095D01*
X117991190Y-107238095D02*
X118562619Y-107809523D01*
X118562619Y-107809523D02*
X118562619Y-107190476D01*
X117562619Y-106857142D02*
X117562619Y-106190476D01*
X117562619Y-106190476D02*
X118562619Y-106619047D01*
%TO.C,R3*%
X146083333Y-79712619D02*
X145750000Y-79236428D01*
X145511905Y-79712619D02*
X145511905Y-78712619D01*
X145511905Y-78712619D02*
X145892857Y-78712619D01*
X145892857Y-78712619D02*
X145988095Y-78760238D01*
X145988095Y-78760238D02*
X146035714Y-78807857D01*
X146035714Y-78807857D02*
X146083333Y-78903095D01*
X146083333Y-78903095D02*
X146083333Y-79045952D01*
X146083333Y-79045952D02*
X146035714Y-79141190D01*
X146035714Y-79141190D02*
X145988095Y-79188809D01*
X145988095Y-79188809D02*
X145892857Y-79236428D01*
X145892857Y-79236428D02*
X145511905Y-79236428D01*
X146416667Y-78712619D02*
X147035714Y-78712619D01*
X147035714Y-78712619D02*
X146702381Y-79093571D01*
X146702381Y-79093571D02*
X146845238Y-79093571D01*
X146845238Y-79093571D02*
X146940476Y-79141190D01*
X146940476Y-79141190D02*
X146988095Y-79188809D01*
X146988095Y-79188809D02*
X147035714Y-79284047D01*
X147035714Y-79284047D02*
X147035714Y-79522142D01*
X147035714Y-79522142D02*
X146988095Y-79617380D01*
X146988095Y-79617380D02*
X146940476Y-79665000D01*
X146940476Y-79665000D02*
X146845238Y-79712619D01*
X146845238Y-79712619D02*
X146559524Y-79712619D01*
X146559524Y-79712619D02*
X146464286Y-79665000D01*
X146464286Y-79665000D02*
X146416667Y-79617380D01*
%TO.C,R1*%
X144593333Y-93462619D02*
X144260000Y-92986428D01*
X144021905Y-93462619D02*
X144021905Y-92462619D01*
X144021905Y-92462619D02*
X144402857Y-92462619D01*
X144402857Y-92462619D02*
X144498095Y-92510238D01*
X144498095Y-92510238D02*
X144545714Y-92557857D01*
X144545714Y-92557857D02*
X144593333Y-92653095D01*
X144593333Y-92653095D02*
X144593333Y-92795952D01*
X144593333Y-92795952D02*
X144545714Y-92891190D01*
X144545714Y-92891190D02*
X144498095Y-92938809D01*
X144498095Y-92938809D02*
X144402857Y-92986428D01*
X144402857Y-92986428D02*
X144021905Y-92986428D01*
X145545714Y-93462619D02*
X144974286Y-93462619D01*
X145260000Y-93462619D02*
X145260000Y-92462619D01*
X145260000Y-92462619D02*
X145164762Y-92605476D01*
X145164762Y-92605476D02*
X145069524Y-92700714D01*
X145069524Y-92700714D02*
X144974286Y-92748333D01*
%TO.C,C3*%
X162389380Y-95766666D02*
X162437000Y-95814285D01*
X162437000Y-95814285D02*
X162484619Y-95957142D01*
X162484619Y-95957142D02*
X162484619Y-96052380D01*
X162484619Y-96052380D02*
X162437000Y-96195237D01*
X162437000Y-96195237D02*
X162341761Y-96290475D01*
X162341761Y-96290475D02*
X162246523Y-96338094D01*
X162246523Y-96338094D02*
X162056047Y-96385713D01*
X162056047Y-96385713D02*
X161913190Y-96385713D01*
X161913190Y-96385713D02*
X161722714Y-96338094D01*
X161722714Y-96338094D02*
X161627476Y-96290475D01*
X161627476Y-96290475D02*
X161532238Y-96195237D01*
X161532238Y-96195237D02*
X161484619Y-96052380D01*
X161484619Y-96052380D02*
X161484619Y-95957142D01*
X161484619Y-95957142D02*
X161532238Y-95814285D01*
X161532238Y-95814285D02*
X161579857Y-95766666D01*
X161484619Y-95433332D02*
X161484619Y-94814285D01*
X161484619Y-94814285D02*
X161865571Y-95147618D01*
X161865571Y-95147618D02*
X161865571Y-95004761D01*
X161865571Y-95004761D02*
X161913190Y-94909523D01*
X161913190Y-94909523D02*
X161960809Y-94861904D01*
X161960809Y-94861904D02*
X162056047Y-94814285D01*
X162056047Y-94814285D02*
X162294142Y-94814285D01*
X162294142Y-94814285D02*
X162389380Y-94861904D01*
X162389380Y-94861904D02*
X162437000Y-94909523D01*
X162437000Y-94909523D02*
X162484619Y-95004761D01*
X162484619Y-95004761D02*
X162484619Y-95290475D01*
X162484619Y-95290475D02*
X162437000Y-95385713D01*
X162437000Y-95385713D02*
X162389380Y-95433332D01*
%TO.C,C2*%
X158181380Y-99576666D02*
X158229000Y-99624285D01*
X158229000Y-99624285D02*
X158276619Y-99767142D01*
X158276619Y-99767142D02*
X158276619Y-99862380D01*
X158276619Y-99862380D02*
X158229000Y-100005237D01*
X158229000Y-100005237D02*
X158133761Y-100100475D01*
X158133761Y-100100475D02*
X158038523Y-100148094D01*
X158038523Y-100148094D02*
X157848047Y-100195713D01*
X157848047Y-100195713D02*
X157705190Y-100195713D01*
X157705190Y-100195713D02*
X157514714Y-100148094D01*
X157514714Y-100148094D02*
X157419476Y-100100475D01*
X157419476Y-100100475D02*
X157324238Y-100005237D01*
X157324238Y-100005237D02*
X157276619Y-99862380D01*
X157276619Y-99862380D02*
X157276619Y-99767142D01*
X157276619Y-99767142D02*
X157324238Y-99624285D01*
X157324238Y-99624285D02*
X157371857Y-99576666D01*
X157371857Y-99195713D02*
X157324238Y-99148094D01*
X157324238Y-99148094D02*
X157276619Y-99052856D01*
X157276619Y-99052856D02*
X157276619Y-98814761D01*
X157276619Y-98814761D02*
X157324238Y-98719523D01*
X157324238Y-98719523D02*
X157371857Y-98671904D01*
X157371857Y-98671904D02*
X157467095Y-98624285D01*
X157467095Y-98624285D02*
X157562333Y-98624285D01*
X157562333Y-98624285D02*
X157705190Y-98671904D01*
X157705190Y-98671904D02*
X158276619Y-99243332D01*
X158276619Y-99243332D02*
X158276619Y-98624285D01*
%TO.C,C13*%
X183262380Y-104867857D02*
X183310000Y-104915476D01*
X183310000Y-104915476D02*
X183357619Y-105058333D01*
X183357619Y-105058333D02*
X183357619Y-105153571D01*
X183357619Y-105153571D02*
X183310000Y-105296428D01*
X183310000Y-105296428D02*
X183214761Y-105391666D01*
X183214761Y-105391666D02*
X183119523Y-105439285D01*
X183119523Y-105439285D02*
X182929047Y-105486904D01*
X182929047Y-105486904D02*
X182786190Y-105486904D01*
X182786190Y-105486904D02*
X182595714Y-105439285D01*
X182595714Y-105439285D02*
X182500476Y-105391666D01*
X182500476Y-105391666D02*
X182405238Y-105296428D01*
X182405238Y-105296428D02*
X182357619Y-105153571D01*
X182357619Y-105153571D02*
X182357619Y-105058333D01*
X182357619Y-105058333D02*
X182405238Y-104915476D01*
X182405238Y-104915476D02*
X182452857Y-104867857D01*
X183357619Y-103915476D02*
X183357619Y-104486904D01*
X183357619Y-104201190D02*
X182357619Y-104201190D01*
X182357619Y-104201190D02*
X182500476Y-104296428D01*
X182500476Y-104296428D02*
X182595714Y-104391666D01*
X182595714Y-104391666D02*
X182643333Y-104486904D01*
X182357619Y-103582142D02*
X182357619Y-102963095D01*
X182357619Y-102963095D02*
X182738571Y-103296428D01*
X182738571Y-103296428D02*
X182738571Y-103153571D01*
X182738571Y-103153571D02*
X182786190Y-103058333D01*
X182786190Y-103058333D02*
X182833809Y-103010714D01*
X182833809Y-103010714D02*
X182929047Y-102963095D01*
X182929047Y-102963095D02*
X183167142Y-102963095D01*
X183167142Y-102963095D02*
X183262380Y-103010714D01*
X183262380Y-103010714D02*
X183310000Y-103058333D01*
X183310000Y-103058333D02*
X183357619Y-103153571D01*
X183357619Y-103153571D02*
X183357619Y-103439285D01*
X183357619Y-103439285D02*
X183310000Y-103534523D01*
X183310000Y-103534523D02*
X183262380Y-103582142D01*
%TO.C,C20*%
X138382380Y-84782857D02*
X138430000Y-84830476D01*
X138430000Y-84830476D02*
X138477619Y-84973333D01*
X138477619Y-84973333D02*
X138477619Y-85068571D01*
X138477619Y-85068571D02*
X138430000Y-85211428D01*
X138430000Y-85211428D02*
X138334761Y-85306666D01*
X138334761Y-85306666D02*
X138239523Y-85354285D01*
X138239523Y-85354285D02*
X138049047Y-85401904D01*
X138049047Y-85401904D02*
X137906190Y-85401904D01*
X137906190Y-85401904D02*
X137715714Y-85354285D01*
X137715714Y-85354285D02*
X137620476Y-85306666D01*
X137620476Y-85306666D02*
X137525238Y-85211428D01*
X137525238Y-85211428D02*
X137477619Y-85068571D01*
X137477619Y-85068571D02*
X137477619Y-84973333D01*
X137477619Y-84973333D02*
X137525238Y-84830476D01*
X137525238Y-84830476D02*
X137572857Y-84782857D01*
X137572857Y-84401904D02*
X137525238Y-84354285D01*
X137525238Y-84354285D02*
X137477619Y-84259047D01*
X137477619Y-84259047D02*
X137477619Y-84020952D01*
X137477619Y-84020952D02*
X137525238Y-83925714D01*
X137525238Y-83925714D02*
X137572857Y-83878095D01*
X137572857Y-83878095D02*
X137668095Y-83830476D01*
X137668095Y-83830476D02*
X137763333Y-83830476D01*
X137763333Y-83830476D02*
X137906190Y-83878095D01*
X137906190Y-83878095D02*
X138477619Y-84449523D01*
X138477619Y-84449523D02*
X138477619Y-83830476D01*
X137477619Y-83211428D02*
X137477619Y-83116190D01*
X137477619Y-83116190D02*
X137525238Y-83020952D01*
X137525238Y-83020952D02*
X137572857Y-82973333D01*
X137572857Y-82973333D02*
X137668095Y-82925714D01*
X137668095Y-82925714D02*
X137858571Y-82878095D01*
X137858571Y-82878095D02*
X138096666Y-82878095D01*
X138096666Y-82878095D02*
X138287142Y-82925714D01*
X138287142Y-82925714D02*
X138382380Y-82973333D01*
X138382380Y-82973333D02*
X138430000Y-83020952D01*
X138430000Y-83020952D02*
X138477619Y-83116190D01*
X138477619Y-83116190D02*
X138477619Y-83211428D01*
X138477619Y-83211428D02*
X138430000Y-83306666D01*
X138430000Y-83306666D02*
X138382380Y-83354285D01*
X138382380Y-83354285D02*
X138287142Y-83401904D01*
X138287142Y-83401904D02*
X138096666Y-83449523D01*
X138096666Y-83449523D02*
X137858571Y-83449523D01*
X137858571Y-83449523D02*
X137668095Y-83401904D01*
X137668095Y-83401904D02*
X137572857Y-83354285D01*
X137572857Y-83354285D02*
X137525238Y-83306666D01*
X137525238Y-83306666D02*
X137477619Y-83211428D01*
%TO.C,TP15*%
X166511905Y-99014619D02*
X167083333Y-99014619D01*
X166797619Y-100014619D02*
X166797619Y-99014619D01*
X167416667Y-100014619D02*
X167416667Y-99014619D01*
X167416667Y-99014619D02*
X167797619Y-99014619D01*
X167797619Y-99014619D02*
X167892857Y-99062238D01*
X167892857Y-99062238D02*
X167940476Y-99109857D01*
X167940476Y-99109857D02*
X167988095Y-99205095D01*
X167988095Y-99205095D02*
X167988095Y-99347952D01*
X167988095Y-99347952D02*
X167940476Y-99443190D01*
X167940476Y-99443190D02*
X167892857Y-99490809D01*
X167892857Y-99490809D02*
X167797619Y-99538428D01*
X167797619Y-99538428D02*
X167416667Y-99538428D01*
X168940476Y-100014619D02*
X168369048Y-100014619D01*
X168654762Y-100014619D02*
X168654762Y-99014619D01*
X168654762Y-99014619D02*
X168559524Y-99157476D01*
X168559524Y-99157476D02*
X168464286Y-99252714D01*
X168464286Y-99252714D02*
X168369048Y-99300333D01*
X169845238Y-99014619D02*
X169369048Y-99014619D01*
X169369048Y-99014619D02*
X169321429Y-99490809D01*
X169321429Y-99490809D02*
X169369048Y-99443190D01*
X169369048Y-99443190D02*
X169464286Y-99395571D01*
X169464286Y-99395571D02*
X169702381Y-99395571D01*
X169702381Y-99395571D02*
X169797619Y-99443190D01*
X169797619Y-99443190D02*
X169845238Y-99490809D01*
X169845238Y-99490809D02*
X169892857Y-99586047D01*
X169892857Y-99586047D02*
X169892857Y-99824142D01*
X169892857Y-99824142D02*
X169845238Y-99919380D01*
X169845238Y-99919380D02*
X169797619Y-99967000D01*
X169797619Y-99967000D02*
X169702381Y-100014619D01*
X169702381Y-100014619D02*
X169464286Y-100014619D01*
X169464286Y-100014619D02*
X169369048Y-99967000D01*
X169369048Y-99967000D02*
X169321429Y-99919380D01*
%TO.C,R26*%
X117562619Y-99542857D02*
X117086428Y-99876190D01*
X117562619Y-100114285D02*
X116562619Y-100114285D01*
X116562619Y-100114285D02*
X116562619Y-99733333D01*
X116562619Y-99733333D02*
X116610238Y-99638095D01*
X116610238Y-99638095D02*
X116657857Y-99590476D01*
X116657857Y-99590476D02*
X116753095Y-99542857D01*
X116753095Y-99542857D02*
X116895952Y-99542857D01*
X116895952Y-99542857D02*
X116991190Y-99590476D01*
X116991190Y-99590476D02*
X117038809Y-99638095D01*
X117038809Y-99638095D02*
X117086428Y-99733333D01*
X117086428Y-99733333D02*
X117086428Y-100114285D01*
X116657857Y-99161904D02*
X116610238Y-99114285D01*
X116610238Y-99114285D02*
X116562619Y-99019047D01*
X116562619Y-99019047D02*
X116562619Y-98780952D01*
X116562619Y-98780952D02*
X116610238Y-98685714D01*
X116610238Y-98685714D02*
X116657857Y-98638095D01*
X116657857Y-98638095D02*
X116753095Y-98590476D01*
X116753095Y-98590476D02*
X116848333Y-98590476D01*
X116848333Y-98590476D02*
X116991190Y-98638095D01*
X116991190Y-98638095D02*
X117562619Y-99209523D01*
X117562619Y-99209523D02*
X117562619Y-98590476D01*
X116562619Y-97733333D02*
X116562619Y-97923809D01*
X116562619Y-97923809D02*
X116610238Y-98019047D01*
X116610238Y-98019047D02*
X116657857Y-98066666D01*
X116657857Y-98066666D02*
X116800714Y-98161904D01*
X116800714Y-98161904D02*
X116991190Y-98209523D01*
X116991190Y-98209523D02*
X117372142Y-98209523D01*
X117372142Y-98209523D02*
X117467380Y-98161904D01*
X117467380Y-98161904D02*
X117515000Y-98114285D01*
X117515000Y-98114285D02*
X117562619Y-98019047D01*
X117562619Y-98019047D02*
X117562619Y-97828571D01*
X117562619Y-97828571D02*
X117515000Y-97733333D01*
X117515000Y-97733333D02*
X117467380Y-97685714D01*
X117467380Y-97685714D02*
X117372142Y-97638095D01*
X117372142Y-97638095D02*
X117134047Y-97638095D01*
X117134047Y-97638095D02*
X117038809Y-97685714D01*
X117038809Y-97685714D02*
X116991190Y-97733333D01*
X116991190Y-97733333D02*
X116943571Y-97828571D01*
X116943571Y-97828571D02*
X116943571Y-98019047D01*
X116943571Y-98019047D02*
X116991190Y-98114285D01*
X116991190Y-98114285D02*
X117038809Y-98161904D01*
X117038809Y-98161904D02*
X117134047Y-98209523D01*
D16*
%TO.C,J6*%
X192288667Y-71567526D02*
X192288667Y-72474669D01*
X192288667Y-72474669D02*
X192228190Y-72656097D01*
X192228190Y-72656097D02*
X192107238Y-72777050D01*
X192107238Y-72777050D02*
X191925809Y-72837526D01*
X191925809Y-72837526D02*
X191804857Y-72837526D01*
X193437714Y-71567526D02*
X193195809Y-71567526D01*
X193195809Y-71567526D02*
X193074857Y-71628002D01*
X193074857Y-71628002D02*
X193014381Y-71688478D01*
X193014381Y-71688478D02*
X192893428Y-71869907D01*
X192893428Y-71869907D02*
X192832952Y-72111811D01*
X192832952Y-72111811D02*
X192832952Y-72595621D01*
X192832952Y-72595621D02*
X192893428Y-72716573D01*
X192893428Y-72716573D02*
X192953905Y-72777050D01*
X192953905Y-72777050D02*
X193074857Y-72837526D01*
X193074857Y-72837526D02*
X193316762Y-72837526D01*
X193316762Y-72837526D02*
X193437714Y-72777050D01*
X193437714Y-72777050D02*
X193498190Y-72716573D01*
X193498190Y-72716573D02*
X193558667Y-72595621D01*
X193558667Y-72595621D02*
X193558667Y-72293240D01*
X193558667Y-72293240D02*
X193498190Y-72172288D01*
X193498190Y-72172288D02*
X193437714Y-72111811D01*
X193437714Y-72111811D02*
X193316762Y-72051335D01*
X193316762Y-72051335D02*
X193074857Y-72051335D01*
X193074857Y-72051335D02*
X192953905Y-72111811D01*
X192953905Y-72111811D02*
X192893428Y-72172288D01*
X192893428Y-72172288D02*
X192832952Y-72293240D01*
D11*
%TO.C,C21*%
X141107142Y-86117380D02*
X141059523Y-86165000D01*
X141059523Y-86165000D02*
X140916666Y-86212619D01*
X140916666Y-86212619D02*
X140821428Y-86212619D01*
X140821428Y-86212619D02*
X140678571Y-86165000D01*
X140678571Y-86165000D02*
X140583333Y-86069761D01*
X140583333Y-86069761D02*
X140535714Y-85974523D01*
X140535714Y-85974523D02*
X140488095Y-85784047D01*
X140488095Y-85784047D02*
X140488095Y-85641190D01*
X140488095Y-85641190D02*
X140535714Y-85450714D01*
X140535714Y-85450714D02*
X140583333Y-85355476D01*
X140583333Y-85355476D02*
X140678571Y-85260238D01*
X140678571Y-85260238D02*
X140821428Y-85212619D01*
X140821428Y-85212619D02*
X140916666Y-85212619D01*
X140916666Y-85212619D02*
X141059523Y-85260238D01*
X141059523Y-85260238D02*
X141107142Y-85307857D01*
X141488095Y-85307857D02*
X141535714Y-85260238D01*
X141535714Y-85260238D02*
X141630952Y-85212619D01*
X141630952Y-85212619D02*
X141869047Y-85212619D01*
X141869047Y-85212619D02*
X141964285Y-85260238D01*
X141964285Y-85260238D02*
X142011904Y-85307857D01*
X142011904Y-85307857D02*
X142059523Y-85403095D01*
X142059523Y-85403095D02*
X142059523Y-85498333D01*
X142059523Y-85498333D02*
X142011904Y-85641190D01*
X142011904Y-85641190D02*
X141440476Y-86212619D01*
X141440476Y-86212619D02*
X142059523Y-86212619D01*
X143011904Y-86212619D02*
X142440476Y-86212619D01*
X142726190Y-86212619D02*
X142726190Y-85212619D01*
X142726190Y-85212619D02*
X142630952Y-85355476D01*
X142630952Y-85355476D02*
X142535714Y-85450714D01*
X142535714Y-85450714D02*
X142440476Y-85498333D01*
%TO.C,TP13*%
X184261905Y-104062619D02*
X184833333Y-104062619D01*
X184547619Y-105062619D02*
X184547619Y-104062619D01*
X185166667Y-105062619D02*
X185166667Y-104062619D01*
X185166667Y-104062619D02*
X185547619Y-104062619D01*
X185547619Y-104062619D02*
X185642857Y-104110238D01*
X185642857Y-104110238D02*
X185690476Y-104157857D01*
X185690476Y-104157857D02*
X185738095Y-104253095D01*
X185738095Y-104253095D02*
X185738095Y-104395952D01*
X185738095Y-104395952D02*
X185690476Y-104491190D01*
X185690476Y-104491190D02*
X185642857Y-104538809D01*
X185642857Y-104538809D02*
X185547619Y-104586428D01*
X185547619Y-104586428D02*
X185166667Y-104586428D01*
X186690476Y-105062619D02*
X186119048Y-105062619D01*
X186404762Y-105062619D02*
X186404762Y-104062619D01*
X186404762Y-104062619D02*
X186309524Y-104205476D01*
X186309524Y-104205476D02*
X186214286Y-104300714D01*
X186214286Y-104300714D02*
X186119048Y-104348333D01*
X187023810Y-104062619D02*
X187642857Y-104062619D01*
X187642857Y-104062619D02*
X187309524Y-104443571D01*
X187309524Y-104443571D02*
X187452381Y-104443571D01*
X187452381Y-104443571D02*
X187547619Y-104491190D01*
X187547619Y-104491190D02*
X187595238Y-104538809D01*
X187595238Y-104538809D02*
X187642857Y-104634047D01*
X187642857Y-104634047D02*
X187642857Y-104872142D01*
X187642857Y-104872142D02*
X187595238Y-104967380D01*
X187595238Y-104967380D02*
X187547619Y-105015000D01*
X187547619Y-105015000D02*
X187452381Y-105062619D01*
X187452381Y-105062619D02*
X187166667Y-105062619D01*
X187166667Y-105062619D02*
X187071429Y-105015000D01*
X187071429Y-105015000D02*
X187023810Y-104967380D01*
%TO.C,C9*%
X155583333Y-98367380D02*
X155535714Y-98415000D01*
X155535714Y-98415000D02*
X155392857Y-98462619D01*
X155392857Y-98462619D02*
X155297619Y-98462619D01*
X155297619Y-98462619D02*
X155154762Y-98415000D01*
X155154762Y-98415000D02*
X155059524Y-98319761D01*
X155059524Y-98319761D02*
X155011905Y-98224523D01*
X155011905Y-98224523D02*
X154964286Y-98034047D01*
X154964286Y-98034047D02*
X154964286Y-97891190D01*
X154964286Y-97891190D02*
X155011905Y-97700714D01*
X155011905Y-97700714D02*
X155059524Y-97605476D01*
X155059524Y-97605476D02*
X155154762Y-97510238D01*
X155154762Y-97510238D02*
X155297619Y-97462619D01*
X155297619Y-97462619D02*
X155392857Y-97462619D01*
X155392857Y-97462619D02*
X155535714Y-97510238D01*
X155535714Y-97510238D02*
X155583333Y-97557857D01*
X156059524Y-98462619D02*
X156250000Y-98462619D01*
X156250000Y-98462619D02*
X156345238Y-98415000D01*
X156345238Y-98415000D02*
X156392857Y-98367380D01*
X156392857Y-98367380D02*
X156488095Y-98224523D01*
X156488095Y-98224523D02*
X156535714Y-98034047D01*
X156535714Y-98034047D02*
X156535714Y-97653095D01*
X156535714Y-97653095D02*
X156488095Y-97557857D01*
X156488095Y-97557857D02*
X156440476Y-97510238D01*
X156440476Y-97510238D02*
X156345238Y-97462619D01*
X156345238Y-97462619D02*
X156154762Y-97462619D01*
X156154762Y-97462619D02*
X156059524Y-97510238D01*
X156059524Y-97510238D02*
X156011905Y-97557857D01*
X156011905Y-97557857D02*
X155964286Y-97653095D01*
X155964286Y-97653095D02*
X155964286Y-97891190D01*
X155964286Y-97891190D02*
X156011905Y-97986428D01*
X156011905Y-97986428D02*
X156059524Y-98034047D01*
X156059524Y-98034047D02*
X156154762Y-98081666D01*
X156154762Y-98081666D02*
X156345238Y-98081666D01*
X156345238Y-98081666D02*
X156440476Y-98034047D01*
X156440476Y-98034047D02*
X156488095Y-97986428D01*
X156488095Y-97986428D02*
X156535714Y-97891190D01*
%TO.C,TP35*%
X110511905Y-99264619D02*
X111083333Y-99264619D01*
X110797619Y-100264619D02*
X110797619Y-99264619D01*
X111416667Y-100264619D02*
X111416667Y-99264619D01*
X111416667Y-99264619D02*
X111797619Y-99264619D01*
X111797619Y-99264619D02*
X111892857Y-99312238D01*
X111892857Y-99312238D02*
X111940476Y-99359857D01*
X111940476Y-99359857D02*
X111988095Y-99455095D01*
X111988095Y-99455095D02*
X111988095Y-99597952D01*
X111988095Y-99597952D02*
X111940476Y-99693190D01*
X111940476Y-99693190D02*
X111892857Y-99740809D01*
X111892857Y-99740809D02*
X111797619Y-99788428D01*
X111797619Y-99788428D02*
X111416667Y-99788428D01*
X112321429Y-99264619D02*
X112940476Y-99264619D01*
X112940476Y-99264619D02*
X112607143Y-99645571D01*
X112607143Y-99645571D02*
X112750000Y-99645571D01*
X112750000Y-99645571D02*
X112845238Y-99693190D01*
X112845238Y-99693190D02*
X112892857Y-99740809D01*
X112892857Y-99740809D02*
X112940476Y-99836047D01*
X112940476Y-99836047D02*
X112940476Y-100074142D01*
X112940476Y-100074142D02*
X112892857Y-100169380D01*
X112892857Y-100169380D02*
X112845238Y-100217000D01*
X112845238Y-100217000D02*
X112750000Y-100264619D01*
X112750000Y-100264619D02*
X112464286Y-100264619D01*
X112464286Y-100264619D02*
X112369048Y-100217000D01*
X112369048Y-100217000D02*
X112321429Y-100169380D01*
X113845238Y-99264619D02*
X113369048Y-99264619D01*
X113369048Y-99264619D02*
X113321429Y-99740809D01*
X113321429Y-99740809D02*
X113369048Y-99693190D01*
X113369048Y-99693190D02*
X113464286Y-99645571D01*
X113464286Y-99645571D02*
X113702381Y-99645571D01*
X113702381Y-99645571D02*
X113797619Y-99693190D01*
X113797619Y-99693190D02*
X113845238Y-99740809D01*
X113845238Y-99740809D02*
X113892857Y-99836047D01*
X113892857Y-99836047D02*
X113892857Y-100074142D01*
X113892857Y-100074142D02*
X113845238Y-100169380D01*
X113845238Y-100169380D02*
X113797619Y-100217000D01*
X113797619Y-100217000D02*
X113702381Y-100264619D01*
X113702381Y-100264619D02*
X113464286Y-100264619D01*
X113464286Y-100264619D02*
X113369048Y-100217000D01*
X113369048Y-100217000D02*
X113321429Y-100169380D01*
%TO.C,R19*%
X164607142Y-98302619D02*
X164273809Y-97826428D01*
X164035714Y-98302619D02*
X164035714Y-97302619D01*
X164035714Y-97302619D02*
X164416666Y-97302619D01*
X164416666Y-97302619D02*
X164511904Y-97350238D01*
X164511904Y-97350238D02*
X164559523Y-97397857D01*
X164559523Y-97397857D02*
X164607142Y-97493095D01*
X164607142Y-97493095D02*
X164607142Y-97635952D01*
X164607142Y-97635952D02*
X164559523Y-97731190D01*
X164559523Y-97731190D02*
X164511904Y-97778809D01*
X164511904Y-97778809D02*
X164416666Y-97826428D01*
X164416666Y-97826428D02*
X164035714Y-97826428D01*
X165559523Y-98302619D02*
X164988095Y-98302619D01*
X165273809Y-98302619D02*
X165273809Y-97302619D01*
X165273809Y-97302619D02*
X165178571Y-97445476D01*
X165178571Y-97445476D02*
X165083333Y-97540714D01*
X165083333Y-97540714D02*
X164988095Y-97588333D01*
X166035714Y-98302619D02*
X166226190Y-98302619D01*
X166226190Y-98302619D02*
X166321428Y-98255000D01*
X166321428Y-98255000D02*
X166369047Y-98207380D01*
X166369047Y-98207380D02*
X166464285Y-98064523D01*
X166464285Y-98064523D02*
X166511904Y-97874047D01*
X166511904Y-97874047D02*
X166511904Y-97493095D01*
X166511904Y-97493095D02*
X166464285Y-97397857D01*
X166464285Y-97397857D02*
X166416666Y-97350238D01*
X166416666Y-97350238D02*
X166321428Y-97302619D01*
X166321428Y-97302619D02*
X166130952Y-97302619D01*
X166130952Y-97302619D02*
X166035714Y-97350238D01*
X166035714Y-97350238D02*
X165988095Y-97397857D01*
X165988095Y-97397857D02*
X165940476Y-97493095D01*
X165940476Y-97493095D02*
X165940476Y-97731190D01*
X165940476Y-97731190D02*
X165988095Y-97826428D01*
X165988095Y-97826428D02*
X166035714Y-97874047D01*
X166035714Y-97874047D02*
X166130952Y-97921666D01*
X166130952Y-97921666D02*
X166321428Y-97921666D01*
X166321428Y-97921666D02*
X166416666Y-97874047D01*
X166416666Y-97874047D02*
X166464285Y-97826428D01*
X166464285Y-97826428D02*
X166511904Y-97731190D01*
%TO.C,R15*%
X173462619Y-83402857D02*
X172986428Y-83736190D01*
X173462619Y-83974285D02*
X172462619Y-83974285D01*
X172462619Y-83974285D02*
X172462619Y-83593333D01*
X172462619Y-83593333D02*
X172510238Y-83498095D01*
X172510238Y-83498095D02*
X172557857Y-83450476D01*
X172557857Y-83450476D02*
X172653095Y-83402857D01*
X172653095Y-83402857D02*
X172795952Y-83402857D01*
X172795952Y-83402857D02*
X172891190Y-83450476D01*
X172891190Y-83450476D02*
X172938809Y-83498095D01*
X172938809Y-83498095D02*
X172986428Y-83593333D01*
X172986428Y-83593333D02*
X172986428Y-83974285D01*
X173462619Y-82450476D02*
X173462619Y-83021904D01*
X173462619Y-82736190D02*
X172462619Y-82736190D01*
X172462619Y-82736190D02*
X172605476Y-82831428D01*
X172605476Y-82831428D02*
X172700714Y-82926666D01*
X172700714Y-82926666D02*
X172748333Y-83021904D01*
X172462619Y-81545714D02*
X172462619Y-82021904D01*
X172462619Y-82021904D02*
X172938809Y-82069523D01*
X172938809Y-82069523D02*
X172891190Y-82021904D01*
X172891190Y-82021904D02*
X172843571Y-81926666D01*
X172843571Y-81926666D02*
X172843571Y-81688571D01*
X172843571Y-81688571D02*
X172891190Y-81593333D01*
X172891190Y-81593333D02*
X172938809Y-81545714D01*
X172938809Y-81545714D02*
X173034047Y-81498095D01*
X173034047Y-81498095D02*
X173272142Y-81498095D01*
X173272142Y-81498095D02*
X173367380Y-81545714D01*
X173367380Y-81545714D02*
X173415000Y-81593333D01*
X173415000Y-81593333D02*
X173462619Y-81688571D01*
X173462619Y-81688571D02*
X173462619Y-81926666D01*
X173462619Y-81926666D02*
X173415000Y-82021904D01*
X173415000Y-82021904D02*
X173367380Y-82069523D01*
%TO.C,SW1*%
X136416667Y-82165000D02*
X136559524Y-82212619D01*
X136559524Y-82212619D02*
X136797619Y-82212619D01*
X136797619Y-82212619D02*
X136892857Y-82165000D01*
X136892857Y-82165000D02*
X136940476Y-82117380D01*
X136940476Y-82117380D02*
X136988095Y-82022142D01*
X136988095Y-82022142D02*
X136988095Y-81926904D01*
X136988095Y-81926904D02*
X136940476Y-81831666D01*
X136940476Y-81831666D02*
X136892857Y-81784047D01*
X136892857Y-81784047D02*
X136797619Y-81736428D01*
X136797619Y-81736428D02*
X136607143Y-81688809D01*
X136607143Y-81688809D02*
X136511905Y-81641190D01*
X136511905Y-81641190D02*
X136464286Y-81593571D01*
X136464286Y-81593571D02*
X136416667Y-81498333D01*
X136416667Y-81498333D02*
X136416667Y-81403095D01*
X136416667Y-81403095D02*
X136464286Y-81307857D01*
X136464286Y-81307857D02*
X136511905Y-81260238D01*
X136511905Y-81260238D02*
X136607143Y-81212619D01*
X136607143Y-81212619D02*
X136845238Y-81212619D01*
X136845238Y-81212619D02*
X136988095Y-81260238D01*
X137321429Y-81212619D02*
X137559524Y-82212619D01*
X137559524Y-82212619D02*
X137750000Y-81498333D01*
X137750000Y-81498333D02*
X137940476Y-82212619D01*
X137940476Y-82212619D02*
X138178572Y-81212619D01*
X139083333Y-82212619D02*
X138511905Y-82212619D01*
X138797619Y-82212619D02*
X138797619Y-81212619D01*
X138797619Y-81212619D02*
X138702381Y-81355476D01*
X138702381Y-81355476D02*
X138607143Y-81450714D01*
X138607143Y-81450714D02*
X138511905Y-81498333D01*
%TO.C,FB1*%
X158166666Y-93760809D02*
X157833333Y-93760809D01*
X157833333Y-94284619D02*
X157833333Y-93284619D01*
X157833333Y-93284619D02*
X158309523Y-93284619D01*
X159023809Y-93760809D02*
X159166666Y-93808428D01*
X159166666Y-93808428D02*
X159214285Y-93856047D01*
X159214285Y-93856047D02*
X159261904Y-93951285D01*
X159261904Y-93951285D02*
X159261904Y-94094142D01*
X159261904Y-94094142D02*
X159214285Y-94189380D01*
X159214285Y-94189380D02*
X159166666Y-94237000D01*
X159166666Y-94237000D02*
X159071428Y-94284619D01*
X159071428Y-94284619D02*
X158690476Y-94284619D01*
X158690476Y-94284619D02*
X158690476Y-93284619D01*
X158690476Y-93284619D02*
X159023809Y-93284619D01*
X159023809Y-93284619D02*
X159119047Y-93332238D01*
X159119047Y-93332238D02*
X159166666Y-93379857D01*
X159166666Y-93379857D02*
X159214285Y-93475095D01*
X159214285Y-93475095D02*
X159214285Y-93570333D01*
X159214285Y-93570333D02*
X159166666Y-93665571D01*
X159166666Y-93665571D02*
X159119047Y-93713190D01*
X159119047Y-93713190D02*
X159023809Y-93760809D01*
X159023809Y-93760809D02*
X158690476Y-93760809D01*
X160214285Y-94284619D02*
X159642857Y-94284619D01*
X159928571Y-94284619D02*
X159928571Y-93284619D01*
X159928571Y-93284619D02*
X159833333Y-93427476D01*
X159833333Y-93427476D02*
X159738095Y-93522714D01*
X159738095Y-93522714D02*
X159642857Y-93570333D01*
D16*
%TO.C,J5*%
X193326667Y-108067526D02*
X193326667Y-108974669D01*
X193326667Y-108974669D02*
X193266190Y-109156097D01*
X193266190Y-109156097D02*
X193145238Y-109277050D01*
X193145238Y-109277050D02*
X192963809Y-109337526D01*
X192963809Y-109337526D02*
X192842857Y-109337526D01*
X194536190Y-108067526D02*
X193931428Y-108067526D01*
X193931428Y-108067526D02*
X193870952Y-108672288D01*
X193870952Y-108672288D02*
X193931428Y-108611811D01*
X193931428Y-108611811D02*
X194052381Y-108551335D01*
X194052381Y-108551335D02*
X194354762Y-108551335D01*
X194354762Y-108551335D02*
X194475714Y-108611811D01*
X194475714Y-108611811D02*
X194536190Y-108672288D01*
X194536190Y-108672288D02*
X194596667Y-108793240D01*
X194596667Y-108793240D02*
X194596667Y-109095621D01*
X194596667Y-109095621D02*
X194536190Y-109216573D01*
X194536190Y-109216573D02*
X194475714Y-109277050D01*
X194475714Y-109277050D02*
X194354762Y-109337526D01*
X194354762Y-109337526D02*
X194052381Y-109337526D01*
X194052381Y-109337526D02*
X193931428Y-109277050D01*
X193931428Y-109277050D02*
X193870952Y-109216573D01*
D11*
%TO.C,U1*%
X148488095Y-84137619D02*
X148488095Y-84947142D01*
X148488095Y-84947142D02*
X148535714Y-85042380D01*
X148535714Y-85042380D02*
X148583333Y-85090000D01*
X148583333Y-85090000D02*
X148678571Y-85137619D01*
X148678571Y-85137619D02*
X148869047Y-85137619D01*
X148869047Y-85137619D02*
X148964285Y-85090000D01*
X148964285Y-85090000D02*
X149011904Y-85042380D01*
X149011904Y-85042380D02*
X149059523Y-84947142D01*
X149059523Y-84947142D02*
X149059523Y-84137619D01*
X150059523Y-85137619D02*
X149488095Y-85137619D01*
X149773809Y-85137619D02*
X149773809Y-84137619D01*
X149773809Y-84137619D02*
X149678571Y-84280476D01*
X149678571Y-84280476D02*
X149583333Y-84375714D01*
X149583333Y-84375714D02*
X149488095Y-84423333D01*
%TO.C,C5*%
X181033333Y-97767380D02*
X180985714Y-97815000D01*
X180985714Y-97815000D02*
X180842857Y-97862619D01*
X180842857Y-97862619D02*
X180747619Y-97862619D01*
X180747619Y-97862619D02*
X180604762Y-97815000D01*
X180604762Y-97815000D02*
X180509524Y-97719761D01*
X180509524Y-97719761D02*
X180461905Y-97624523D01*
X180461905Y-97624523D02*
X180414286Y-97434047D01*
X180414286Y-97434047D02*
X180414286Y-97291190D01*
X180414286Y-97291190D02*
X180461905Y-97100714D01*
X180461905Y-97100714D02*
X180509524Y-97005476D01*
X180509524Y-97005476D02*
X180604762Y-96910238D01*
X180604762Y-96910238D02*
X180747619Y-96862619D01*
X180747619Y-96862619D02*
X180842857Y-96862619D01*
X180842857Y-96862619D02*
X180985714Y-96910238D01*
X180985714Y-96910238D02*
X181033333Y-96957857D01*
X181938095Y-96862619D02*
X181461905Y-96862619D01*
X181461905Y-96862619D02*
X181414286Y-97338809D01*
X181414286Y-97338809D02*
X181461905Y-97291190D01*
X181461905Y-97291190D02*
X181557143Y-97243571D01*
X181557143Y-97243571D02*
X181795238Y-97243571D01*
X181795238Y-97243571D02*
X181890476Y-97291190D01*
X181890476Y-97291190D02*
X181938095Y-97338809D01*
X181938095Y-97338809D02*
X181985714Y-97434047D01*
X181985714Y-97434047D02*
X181985714Y-97672142D01*
X181985714Y-97672142D02*
X181938095Y-97767380D01*
X181938095Y-97767380D02*
X181890476Y-97815000D01*
X181890476Y-97815000D02*
X181795238Y-97862619D01*
X181795238Y-97862619D02*
X181557143Y-97862619D01*
X181557143Y-97862619D02*
X181461905Y-97815000D01*
X181461905Y-97815000D02*
X181414286Y-97767380D01*
%TO.C,R18*%
X124462619Y-108142857D02*
X123986428Y-108476190D01*
X124462619Y-108714285D02*
X123462619Y-108714285D01*
X123462619Y-108714285D02*
X123462619Y-108333333D01*
X123462619Y-108333333D02*
X123510238Y-108238095D01*
X123510238Y-108238095D02*
X123557857Y-108190476D01*
X123557857Y-108190476D02*
X123653095Y-108142857D01*
X123653095Y-108142857D02*
X123795952Y-108142857D01*
X123795952Y-108142857D02*
X123891190Y-108190476D01*
X123891190Y-108190476D02*
X123938809Y-108238095D01*
X123938809Y-108238095D02*
X123986428Y-108333333D01*
X123986428Y-108333333D02*
X123986428Y-108714285D01*
X124462619Y-107190476D02*
X124462619Y-107761904D01*
X124462619Y-107476190D02*
X123462619Y-107476190D01*
X123462619Y-107476190D02*
X123605476Y-107571428D01*
X123605476Y-107571428D02*
X123700714Y-107666666D01*
X123700714Y-107666666D02*
X123748333Y-107761904D01*
X123891190Y-106619047D02*
X123843571Y-106714285D01*
X123843571Y-106714285D02*
X123795952Y-106761904D01*
X123795952Y-106761904D02*
X123700714Y-106809523D01*
X123700714Y-106809523D02*
X123653095Y-106809523D01*
X123653095Y-106809523D02*
X123557857Y-106761904D01*
X123557857Y-106761904D02*
X123510238Y-106714285D01*
X123510238Y-106714285D02*
X123462619Y-106619047D01*
X123462619Y-106619047D02*
X123462619Y-106428571D01*
X123462619Y-106428571D02*
X123510238Y-106333333D01*
X123510238Y-106333333D02*
X123557857Y-106285714D01*
X123557857Y-106285714D02*
X123653095Y-106238095D01*
X123653095Y-106238095D02*
X123700714Y-106238095D01*
X123700714Y-106238095D02*
X123795952Y-106285714D01*
X123795952Y-106285714D02*
X123843571Y-106333333D01*
X123843571Y-106333333D02*
X123891190Y-106428571D01*
X123891190Y-106428571D02*
X123891190Y-106619047D01*
X123891190Y-106619047D02*
X123938809Y-106714285D01*
X123938809Y-106714285D02*
X123986428Y-106761904D01*
X123986428Y-106761904D02*
X124081666Y-106809523D01*
X124081666Y-106809523D02*
X124272142Y-106809523D01*
X124272142Y-106809523D02*
X124367380Y-106761904D01*
X124367380Y-106761904D02*
X124415000Y-106714285D01*
X124415000Y-106714285D02*
X124462619Y-106619047D01*
X124462619Y-106619047D02*
X124462619Y-106428571D01*
X124462619Y-106428571D02*
X124415000Y-106333333D01*
X124415000Y-106333333D02*
X124367380Y-106285714D01*
X124367380Y-106285714D02*
X124272142Y-106238095D01*
X124272142Y-106238095D02*
X124081666Y-106238095D01*
X124081666Y-106238095D02*
X123986428Y-106285714D01*
X123986428Y-106285714D02*
X123938809Y-106333333D01*
X123938809Y-106333333D02*
X123891190Y-106428571D01*
%TO.C,TP7*%
X176810619Y-91261904D02*
X176810619Y-90690476D01*
X177810619Y-90976190D02*
X176810619Y-90976190D01*
X177810619Y-90357142D02*
X176810619Y-90357142D01*
X176810619Y-90357142D02*
X176810619Y-89976190D01*
X176810619Y-89976190D02*
X176858238Y-89880952D01*
X176858238Y-89880952D02*
X176905857Y-89833333D01*
X176905857Y-89833333D02*
X177001095Y-89785714D01*
X177001095Y-89785714D02*
X177143952Y-89785714D01*
X177143952Y-89785714D02*
X177239190Y-89833333D01*
X177239190Y-89833333D02*
X177286809Y-89880952D01*
X177286809Y-89880952D02*
X177334428Y-89976190D01*
X177334428Y-89976190D02*
X177334428Y-90357142D01*
X176810619Y-89452380D02*
X176810619Y-88785714D01*
X176810619Y-88785714D02*
X177810619Y-89214285D01*
%TO.C,TP16*%
X164511905Y-106264619D02*
X165083333Y-106264619D01*
X164797619Y-107264619D02*
X164797619Y-106264619D01*
X165416667Y-107264619D02*
X165416667Y-106264619D01*
X165416667Y-106264619D02*
X165797619Y-106264619D01*
X165797619Y-106264619D02*
X165892857Y-106312238D01*
X165892857Y-106312238D02*
X165940476Y-106359857D01*
X165940476Y-106359857D02*
X165988095Y-106455095D01*
X165988095Y-106455095D02*
X165988095Y-106597952D01*
X165988095Y-106597952D02*
X165940476Y-106693190D01*
X165940476Y-106693190D02*
X165892857Y-106740809D01*
X165892857Y-106740809D02*
X165797619Y-106788428D01*
X165797619Y-106788428D02*
X165416667Y-106788428D01*
X166940476Y-107264619D02*
X166369048Y-107264619D01*
X166654762Y-107264619D02*
X166654762Y-106264619D01*
X166654762Y-106264619D02*
X166559524Y-106407476D01*
X166559524Y-106407476D02*
X166464286Y-106502714D01*
X166464286Y-106502714D02*
X166369048Y-106550333D01*
X167797619Y-106264619D02*
X167607143Y-106264619D01*
X167607143Y-106264619D02*
X167511905Y-106312238D01*
X167511905Y-106312238D02*
X167464286Y-106359857D01*
X167464286Y-106359857D02*
X167369048Y-106502714D01*
X167369048Y-106502714D02*
X167321429Y-106693190D01*
X167321429Y-106693190D02*
X167321429Y-107074142D01*
X167321429Y-107074142D02*
X167369048Y-107169380D01*
X167369048Y-107169380D02*
X167416667Y-107217000D01*
X167416667Y-107217000D02*
X167511905Y-107264619D01*
X167511905Y-107264619D02*
X167702381Y-107264619D01*
X167702381Y-107264619D02*
X167797619Y-107217000D01*
X167797619Y-107217000D02*
X167845238Y-107169380D01*
X167845238Y-107169380D02*
X167892857Y-107074142D01*
X167892857Y-107074142D02*
X167892857Y-106836047D01*
X167892857Y-106836047D02*
X167845238Y-106740809D01*
X167845238Y-106740809D02*
X167797619Y-106693190D01*
X167797619Y-106693190D02*
X167702381Y-106645571D01*
X167702381Y-106645571D02*
X167511905Y-106645571D01*
X167511905Y-106645571D02*
X167416667Y-106693190D01*
X167416667Y-106693190D02*
X167369048Y-106740809D01*
X167369048Y-106740809D02*
X167321429Y-106836047D01*
%TO.C,R4*%
X145023333Y-84912619D02*
X144690000Y-84436428D01*
X144451905Y-84912619D02*
X144451905Y-83912619D01*
X144451905Y-83912619D02*
X144832857Y-83912619D01*
X144832857Y-83912619D02*
X144928095Y-83960238D01*
X144928095Y-83960238D02*
X144975714Y-84007857D01*
X144975714Y-84007857D02*
X145023333Y-84103095D01*
X145023333Y-84103095D02*
X145023333Y-84245952D01*
X145023333Y-84245952D02*
X144975714Y-84341190D01*
X144975714Y-84341190D02*
X144928095Y-84388809D01*
X144928095Y-84388809D02*
X144832857Y-84436428D01*
X144832857Y-84436428D02*
X144451905Y-84436428D01*
X145880476Y-84245952D02*
X145880476Y-84912619D01*
X145642381Y-83865000D02*
X145404286Y-84579285D01*
X145404286Y-84579285D02*
X146023333Y-84579285D01*
D14*
%TO.C,J8*%
X108666666Y-95262619D02*
X108666666Y-95976904D01*
X108666666Y-95976904D02*
X108619047Y-96119761D01*
X108619047Y-96119761D02*
X108523809Y-96215000D01*
X108523809Y-96215000D02*
X108380952Y-96262619D01*
X108380952Y-96262619D02*
X108285714Y-96262619D01*
X109285714Y-95691190D02*
X109190476Y-95643571D01*
X109190476Y-95643571D02*
X109142857Y-95595952D01*
X109142857Y-95595952D02*
X109095238Y-95500714D01*
X109095238Y-95500714D02*
X109095238Y-95453095D01*
X109095238Y-95453095D02*
X109142857Y-95357857D01*
X109142857Y-95357857D02*
X109190476Y-95310238D01*
X109190476Y-95310238D02*
X109285714Y-95262619D01*
X109285714Y-95262619D02*
X109476190Y-95262619D01*
X109476190Y-95262619D02*
X109571428Y-95310238D01*
X109571428Y-95310238D02*
X109619047Y-95357857D01*
X109619047Y-95357857D02*
X109666666Y-95453095D01*
X109666666Y-95453095D02*
X109666666Y-95500714D01*
X109666666Y-95500714D02*
X109619047Y-95595952D01*
X109619047Y-95595952D02*
X109571428Y-95643571D01*
X109571428Y-95643571D02*
X109476190Y-95691190D01*
X109476190Y-95691190D02*
X109285714Y-95691190D01*
X109285714Y-95691190D02*
X109190476Y-95738809D01*
X109190476Y-95738809D02*
X109142857Y-95786428D01*
X109142857Y-95786428D02*
X109095238Y-95881666D01*
X109095238Y-95881666D02*
X109095238Y-96072142D01*
X109095238Y-96072142D02*
X109142857Y-96167380D01*
X109142857Y-96167380D02*
X109190476Y-96215000D01*
X109190476Y-96215000D02*
X109285714Y-96262619D01*
X109285714Y-96262619D02*
X109476190Y-96262619D01*
X109476190Y-96262619D02*
X109571428Y-96215000D01*
X109571428Y-96215000D02*
X109619047Y-96167380D01*
X109619047Y-96167380D02*
X109666666Y-96072142D01*
X109666666Y-96072142D02*
X109666666Y-95881666D01*
X109666666Y-95881666D02*
X109619047Y-95786428D01*
X109619047Y-95786428D02*
X109571428Y-95738809D01*
X109571428Y-95738809D02*
X109476190Y-95691190D01*
D11*
%TO.C,R20*%
X164607142Y-95492619D02*
X164273809Y-95016428D01*
X164035714Y-95492619D02*
X164035714Y-94492619D01*
X164035714Y-94492619D02*
X164416666Y-94492619D01*
X164416666Y-94492619D02*
X164511904Y-94540238D01*
X164511904Y-94540238D02*
X164559523Y-94587857D01*
X164559523Y-94587857D02*
X164607142Y-94683095D01*
X164607142Y-94683095D02*
X164607142Y-94825952D01*
X164607142Y-94825952D02*
X164559523Y-94921190D01*
X164559523Y-94921190D02*
X164511904Y-94968809D01*
X164511904Y-94968809D02*
X164416666Y-95016428D01*
X164416666Y-95016428D02*
X164035714Y-95016428D01*
X164988095Y-94587857D02*
X165035714Y-94540238D01*
X165035714Y-94540238D02*
X165130952Y-94492619D01*
X165130952Y-94492619D02*
X165369047Y-94492619D01*
X165369047Y-94492619D02*
X165464285Y-94540238D01*
X165464285Y-94540238D02*
X165511904Y-94587857D01*
X165511904Y-94587857D02*
X165559523Y-94683095D01*
X165559523Y-94683095D02*
X165559523Y-94778333D01*
X165559523Y-94778333D02*
X165511904Y-94921190D01*
X165511904Y-94921190D02*
X164940476Y-95492619D01*
X164940476Y-95492619D02*
X165559523Y-95492619D01*
X166178571Y-94492619D02*
X166273809Y-94492619D01*
X166273809Y-94492619D02*
X166369047Y-94540238D01*
X166369047Y-94540238D02*
X166416666Y-94587857D01*
X166416666Y-94587857D02*
X166464285Y-94683095D01*
X166464285Y-94683095D02*
X166511904Y-94873571D01*
X166511904Y-94873571D02*
X166511904Y-95111666D01*
X166511904Y-95111666D02*
X166464285Y-95302142D01*
X166464285Y-95302142D02*
X166416666Y-95397380D01*
X166416666Y-95397380D02*
X166369047Y-95445000D01*
X166369047Y-95445000D02*
X166273809Y-95492619D01*
X166273809Y-95492619D02*
X166178571Y-95492619D01*
X166178571Y-95492619D02*
X166083333Y-95445000D01*
X166083333Y-95445000D02*
X166035714Y-95397380D01*
X166035714Y-95397380D02*
X165988095Y-95302142D01*
X165988095Y-95302142D02*
X165940476Y-95111666D01*
X165940476Y-95111666D02*
X165940476Y-94873571D01*
X165940476Y-94873571D02*
X165988095Y-94683095D01*
X165988095Y-94683095D02*
X166035714Y-94587857D01*
X166035714Y-94587857D02*
X166083333Y-94540238D01*
X166083333Y-94540238D02*
X166178571Y-94492619D01*
%TO.C,C17*%
X148107142Y-96867380D02*
X148059523Y-96915000D01*
X148059523Y-96915000D02*
X147916666Y-96962619D01*
X147916666Y-96962619D02*
X147821428Y-96962619D01*
X147821428Y-96962619D02*
X147678571Y-96915000D01*
X147678571Y-96915000D02*
X147583333Y-96819761D01*
X147583333Y-96819761D02*
X147535714Y-96724523D01*
X147535714Y-96724523D02*
X147488095Y-96534047D01*
X147488095Y-96534047D02*
X147488095Y-96391190D01*
X147488095Y-96391190D02*
X147535714Y-96200714D01*
X147535714Y-96200714D02*
X147583333Y-96105476D01*
X147583333Y-96105476D02*
X147678571Y-96010238D01*
X147678571Y-96010238D02*
X147821428Y-95962619D01*
X147821428Y-95962619D02*
X147916666Y-95962619D01*
X147916666Y-95962619D02*
X148059523Y-96010238D01*
X148059523Y-96010238D02*
X148107142Y-96057857D01*
X149059523Y-96962619D02*
X148488095Y-96962619D01*
X148773809Y-96962619D02*
X148773809Y-95962619D01*
X148773809Y-95962619D02*
X148678571Y-96105476D01*
X148678571Y-96105476D02*
X148583333Y-96200714D01*
X148583333Y-96200714D02*
X148488095Y-96248333D01*
X149392857Y-95962619D02*
X150059523Y-95962619D01*
X150059523Y-95962619D02*
X149630952Y-96962619D01*
%TO.C,D3*%
X128562619Y-108038094D02*
X127562619Y-108038094D01*
X127562619Y-108038094D02*
X127562619Y-107799999D01*
X127562619Y-107799999D02*
X127610238Y-107657142D01*
X127610238Y-107657142D02*
X127705476Y-107561904D01*
X127705476Y-107561904D02*
X127800714Y-107514285D01*
X127800714Y-107514285D02*
X127991190Y-107466666D01*
X127991190Y-107466666D02*
X128134047Y-107466666D01*
X128134047Y-107466666D02*
X128324523Y-107514285D01*
X128324523Y-107514285D02*
X128419761Y-107561904D01*
X128419761Y-107561904D02*
X128515000Y-107657142D01*
X128515000Y-107657142D02*
X128562619Y-107799999D01*
X128562619Y-107799999D02*
X128562619Y-108038094D01*
X127562619Y-107133332D02*
X127562619Y-106514285D01*
X127562619Y-106514285D02*
X127943571Y-106847618D01*
X127943571Y-106847618D02*
X127943571Y-106704761D01*
X127943571Y-106704761D02*
X127991190Y-106609523D01*
X127991190Y-106609523D02*
X128038809Y-106561904D01*
X128038809Y-106561904D02*
X128134047Y-106514285D01*
X128134047Y-106514285D02*
X128372142Y-106514285D01*
X128372142Y-106514285D02*
X128467380Y-106561904D01*
X128467380Y-106561904D02*
X128515000Y-106609523D01*
X128515000Y-106609523D02*
X128562619Y-106704761D01*
X128562619Y-106704761D02*
X128562619Y-106990475D01*
X128562619Y-106990475D02*
X128515000Y-107085713D01*
X128515000Y-107085713D02*
X128467380Y-107133332D01*
%TO.C,J1*%
X179082619Y-109833333D02*
X179796904Y-109833333D01*
X179796904Y-109833333D02*
X179939761Y-109880952D01*
X179939761Y-109880952D02*
X180035000Y-109976190D01*
X180035000Y-109976190D02*
X180082619Y-110119047D01*
X180082619Y-110119047D02*
X180082619Y-110214285D01*
X180082619Y-108833333D02*
X180082619Y-109404761D01*
X180082619Y-109119047D02*
X179082619Y-109119047D01*
X179082619Y-109119047D02*
X179225476Y-109214285D01*
X179225476Y-109214285D02*
X179320714Y-109309523D01*
X179320714Y-109309523D02*
X179368333Y-109404761D01*
%TO.C,R25*%
X180212619Y-90142857D02*
X179736428Y-90476190D01*
X180212619Y-90714285D02*
X179212619Y-90714285D01*
X179212619Y-90714285D02*
X179212619Y-90333333D01*
X179212619Y-90333333D02*
X179260238Y-90238095D01*
X179260238Y-90238095D02*
X179307857Y-90190476D01*
X179307857Y-90190476D02*
X179403095Y-90142857D01*
X179403095Y-90142857D02*
X179545952Y-90142857D01*
X179545952Y-90142857D02*
X179641190Y-90190476D01*
X179641190Y-90190476D02*
X179688809Y-90238095D01*
X179688809Y-90238095D02*
X179736428Y-90333333D01*
X179736428Y-90333333D02*
X179736428Y-90714285D01*
X179307857Y-89761904D02*
X179260238Y-89714285D01*
X179260238Y-89714285D02*
X179212619Y-89619047D01*
X179212619Y-89619047D02*
X179212619Y-89380952D01*
X179212619Y-89380952D02*
X179260238Y-89285714D01*
X179260238Y-89285714D02*
X179307857Y-89238095D01*
X179307857Y-89238095D02*
X179403095Y-89190476D01*
X179403095Y-89190476D02*
X179498333Y-89190476D01*
X179498333Y-89190476D02*
X179641190Y-89238095D01*
X179641190Y-89238095D02*
X180212619Y-89809523D01*
X180212619Y-89809523D02*
X180212619Y-89190476D01*
X179212619Y-88285714D02*
X179212619Y-88761904D01*
X179212619Y-88761904D02*
X179688809Y-88809523D01*
X179688809Y-88809523D02*
X179641190Y-88761904D01*
X179641190Y-88761904D02*
X179593571Y-88666666D01*
X179593571Y-88666666D02*
X179593571Y-88428571D01*
X179593571Y-88428571D02*
X179641190Y-88333333D01*
X179641190Y-88333333D02*
X179688809Y-88285714D01*
X179688809Y-88285714D02*
X179784047Y-88238095D01*
X179784047Y-88238095D02*
X180022142Y-88238095D01*
X180022142Y-88238095D02*
X180117380Y-88285714D01*
X180117380Y-88285714D02*
X180165000Y-88333333D01*
X180165000Y-88333333D02*
X180212619Y-88428571D01*
X180212619Y-88428571D02*
X180212619Y-88666666D01*
X180212619Y-88666666D02*
X180165000Y-88761904D01*
X180165000Y-88761904D02*
X180117380Y-88809523D01*
%TO.C,C16*%
X158157142Y-83367380D02*
X158109523Y-83415000D01*
X158109523Y-83415000D02*
X157966666Y-83462619D01*
X157966666Y-83462619D02*
X157871428Y-83462619D01*
X157871428Y-83462619D02*
X157728571Y-83415000D01*
X157728571Y-83415000D02*
X157633333Y-83319761D01*
X157633333Y-83319761D02*
X157585714Y-83224523D01*
X157585714Y-83224523D02*
X157538095Y-83034047D01*
X157538095Y-83034047D02*
X157538095Y-82891190D01*
X157538095Y-82891190D02*
X157585714Y-82700714D01*
X157585714Y-82700714D02*
X157633333Y-82605476D01*
X157633333Y-82605476D02*
X157728571Y-82510238D01*
X157728571Y-82510238D02*
X157871428Y-82462619D01*
X157871428Y-82462619D02*
X157966666Y-82462619D01*
X157966666Y-82462619D02*
X158109523Y-82510238D01*
X158109523Y-82510238D02*
X158157142Y-82557857D01*
X159109523Y-83462619D02*
X158538095Y-83462619D01*
X158823809Y-83462619D02*
X158823809Y-82462619D01*
X158823809Y-82462619D02*
X158728571Y-82605476D01*
X158728571Y-82605476D02*
X158633333Y-82700714D01*
X158633333Y-82700714D02*
X158538095Y-82748333D01*
X159966666Y-82462619D02*
X159776190Y-82462619D01*
X159776190Y-82462619D02*
X159680952Y-82510238D01*
X159680952Y-82510238D02*
X159633333Y-82557857D01*
X159633333Y-82557857D02*
X159538095Y-82700714D01*
X159538095Y-82700714D02*
X159490476Y-82891190D01*
X159490476Y-82891190D02*
X159490476Y-83272142D01*
X159490476Y-83272142D02*
X159538095Y-83367380D01*
X159538095Y-83367380D02*
X159585714Y-83415000D01*
X159585714Y-83415000D02*
X159680952Y-83462619D01*
X159680952Y-83462619D02*
X159871428Y-83462619D01*
X159871428Y-83462619D02*
X159966666Y-83415000D01*
X159966666Y-83415000D02*
X160014285Y-83367380D01*
X160014285Y-83367380D02*
X160061904Y-83272142D01*
X160061904Y-83272142D02*
X160061904Y-83034047D01*
X160061904Y-83034047D02*
X160014285Y-82938809D01*
X160014285Y-82938809D02*
X159966666Y-82891190D01*
X159966666Y-82891190D02*
X159871428Y-82843571D01*
X159871428Y-82843571D02*
X159680952Y-82843571D01*
X159680952Y-82843571D02*
X159585714Y-82891190D01*
X159585714Y-82891190D02*
X159538095Y-82938809D01*
X159538095Y-82938809D02*
X159490476Y-83034047D01*
%TO.C,U4*%
X135253095Y-87957619D02*
X135253095Y-88767142D01*
X135253095Y-88767142D02*
X135300714Y-88862380D01*
X135300714Y-88862380D02*
X135348333Y-88910000D01*
X135348333Y-88910000D02*
X135443571Y-88957619D01*
X135443571Y-88957619D02*
X135634047Y-88957619D01*
X135634047Y-88957619D02*
X135729285Y-88910000D01*
X135729285Y-88910000D02*
X135776904Y-88862380D01*
X135776904Y-88862380D02*
X135824523Y-88767142D01*
X135824523Y-88767142D02*
X135824523Y-87957619D01*
X136729285Y-88290952D02*
X136729285Y-88957619D01*
X136491190Y-87910000D02*
X136253095Y-88624285D01*
X136253095Y-88624285D02*
X136872142Y-88624285D01*
D16*
%TO.C,IC1*%
X165785237Y-82182526D02*
X165785237Y-80912526D01*
X167115714Y-82061573D02*
X167055238Y-82122050D01*
X167055238Y-82122050D02*
X166873809Y-82182526D01*
X166873809Y-82182526D02*
X166752857Y-82182526D01*
X166752857Y-82182526D02*
X166571428Y-82122050D01*
X166571428Y-82122050D02*
X166450476Y-82001097D01*
X166450476Y-82001097D02*
X166389999Y-81880145D01*
X166389999Y-81880145D02*
X166329523Y-81638240D01*
X166329523Y-81638240D02*
X166329523Y-81456811D01*
X166329523Y-81456811D02*
X166389999Y-81214907D01*
X166389999Y-81214907D02*
X166450476Y-81093954D01*
X166450476Y-81093954D02*
X166571428Y-80973002D01*
X166571428Y-80973002D02*
X166752857Y-80912526D01*
X166752857Y-80912526D02*
X166873809Y-80912526D01*
X166873809Y-80912526D02*
X167055238Y-80973002D01*
X167055238Y-80973002D02*
X167115714Y-81033478D01*
X168325238Y-82182526D02*
X167599523Y-82182526D01*
X167962380Y-82182526D02*
X167962380Y-80912526D01*
X167962380Y-80912526D02*
X167841428Y-81093954D01*
X167841428Y-81093954D02*
X167720476Y-81214907D01*
X167720476Y-81214907D02*
X167599523Y-81275383D01*
D11*
%TO.C,R12*%
X123462619Y-97142857D02*
X122986428Y-97476190D01*
X123462619Y-97714285D02*
X122462619Y-97714285D01*
X122462619Y-97714285D02*
X122462619Y-97333333D01*
X122462619Y-97333333D02*
X122510238Y-97238095D01*
X122510238Y-97238095D02*
X122557857Y-97190476D01*
X122557857Y-97190476D02*
X122653095Y-97142857D01*
X122653095Y-97142857D02*
X122795952Y-97142857D01*
X122795952Y-97142857D02*
X122891190Y-97190476D01*
X122891190Y-97190476D02*
X122938809Y-97238095D01*
X122938809Y-97238095D02*
X122986428Y-97333333D01*
X122986428Y-97333333D02*
X122986428Y-97714285D01*
X123462619Y-96190476D02*
X123462619Y-96761904D01*
X123462619Y-96476190D02*
X122462619Y-96476190D01*
X122462619Y-96476190D02*
X122605476Y-96571428D01*
X122605476Y-96571428D02*
X122700714Y-96666666D01*
X122700714Y-96666666D02*
X122748333Y-96761904D01*
X122557857Y-95809523D02*
X122510238Y-95761904D01*
X122510238Y-95761904D02*
X122462619Y-95666666D01*
X122462619Y-95666666D02*
X122462619Y-95428571D01*
X122462619Y-95428571D02*
X122510238Y-95333333D01*
X122510238Y-95333333D02*
X122557857Y-95285714D01*
X122557857Y-95285714D02*
X122653095Y-95238095D01*
X122653095Y-95238095D02*
X122748333Y-95238095D01*
X122748333Y-95238095D02*
X122891190Y-95285714D01*
X122891190Y-95285714D02*
X123462619Y-95857142D01*
X123462619Y-95857142D02*
X123462619Y-95238095D01*
%TO.C,R17*%
X182962619Y-90382857D02*
X182486428Y-90716190D01*
X182962619Y-90954285D02*
X181962619Y-90954285D01*
X181962619Y-90954285D02*
X181962619Y-90573333D01*
X181962619Y-90573333D02*
X182010238Y-90478095D01*
X182010238Y-90478095D02*
X182057857Y-90430476D01*
X182057857Y-90430476D02*
X182153095Y-90382857D01*
X182153095Y-90382857D02*
X182295952Y-90382857D01*
X182295952Y-90382857D02*
X182391190Y-90430476D01*
X182391190Y-90430476D02*
X182438809Y-90478095D01*
X182438809Y-90478095D02*
X182486428Y-90573333D01*
X182486428Y-90573333D02*
X182486428Y-90954285D01*
X182962619Y-89430476D02*
X182962619Y-90001904D01*
X182962619Y-89716190D02*
X181962619Y-89716190D01*
X181962619Y-89716190D02*
X182105476Y-89811428D01*
X182105476Y-89811428D02*
X182200714Y-89906666D01*
X182200714Y-89906666D02*
X182248333Y-90001904D01*
X181962619Y-89097142D02*
X181962619Y-88430476D01*
X181962619Y-88430476D02*
X182962619Y-88859047D01*
%TO.C,R11*%
X120712619Y-97152857D02*
X120236428Y-97486190D01*
X120712619Y-97724285D02*
X119712619Y-97724285D01*
X119712619Y-97724285D02*
X119712619Y-97343333D01*
X119712619Y-97343333D02*
X119760238Y-97248095D01*
X119760238Y-97248095D02*
X119807857Y-97200476D01*
X119807857Y-97200476D02*
X119903095Y-97152857D01*
X119903095Y-97152857D02*
X120045952Y-97152857D01*
X120045952Y-97152857D02*
X120141190Y-97200476D01*
X120141190Y-97200476D02*
X120188809Y-97248095D01*
X120188809Y-97248095D02*
X120236428Y-97343333D01*
X120236428Y-97343333D02*
X120236428Y-97724285D01*
X120712619Y-96200476D02*
X120712619Y-96771904D01*
X120712619Y-96486190D02*
X119712619Y-96486190D01*
X119712619Y-96486190D02*
X119855476Y-96581428D01*
X119855476Y-96581428D02*
X119950714Y-96676666D01*
X119950714Y-96676666D02*
X119998333Y-96771904D01*
X120712619Y-95248095D02*
X120712619Y-95819523D01*
X120712619Y-95533809D02*
X119712619Y-95533809D01*
X119712619Y-95533809D02*
X119855476Y-95629047D01*
X119855476Y-95629047D02*
X119950714Y-95724285D01*
X119950714Y-95724285D02*
X119998333Y-95819523D01*
%TO.C,TP17*%
X183461905Y-106362619D02*
X184033333Y-106362619D01*
X183747619Y-107362619D02*
X183747619Y-106362619D01*
X184366667Y-107362619D02*
X184366667Y-106362619D01*
X184366667Y-106362619D02*
X184747619Y-106362619D01*
X184747619Y-106362619D02*
X184842857Y-106410238D01*
X184842857Y-106410238D02*
X184890476Y-106457857D01*
X184890476Y-106457857D02*
X184938095Y-106553095D01*
X184938095Y-106553095D02*
X184938095Y-106695952D01*
X184938095Y-106695952D02*
X184890476Y-106791190D01*
X184890476Y-106791190D02*
X184842857Y-106838809D01*
X184842857Y-106838809D02*
X184747619Y-106886428D01*
X184747619Y-106886428D02*
X184366667Y-106886428D01*
X185890476Y-107362619D02*
X185319048Y-107362619D01*
X185604762Y-107362619D02*
X185604762Y-106362619D01*
X185604762Y-106362619D02*
X185509524Y-106505476D01*
X185509524Y-106505476D02*
X185414286Y-106600714D01*
X185414286Y-106600714D02*
X185319048Y-106648333D01*
X186223810Y-106362619D02*
X186890476Y-106362619D01*
X186890476Y-106362619D02*
X186461905Y-107362619D01*
%TO.C,C12*%
X172377142Y-96117380D02*
X172329523Y-96165000D01*
X172329523Y-96165000D02*
X172186666Y-96212619D01*
X172186666Y-96212619D02*
X172091428Y-96212619D01*
X172091428Y-96212619D02*
X171948571Y-96165000D01*
X171948571Y-96165000D02*
X171853333Y-96069761D01*
X171853333Y-96069761D02*
X171805714Y-95974523D01*
X171805714Y-95974523D02*
X171758095Y-95784047D01*
X171758095Y-95784047D02*
X171758095Y-95641190D01*
X171758095Y-95641190D02*
X171805714Y-95450714D01*
X171805714Y-95450714D02*
X171853333Y-95355476D01*
X171853333Y-95355476D02*
X171948571Y-95260238D01*
X171948571Y-95260238D02*
X172091428Y-95212619D01*
X172091428Y-95212619D02*
X172186666Y-95212619D01*
X172186666Y-95212619D02*
X172329523Y-95260238D01*
X172329523Y-95260238D02*
X172377142Y-95307857D01*
X173329523Y-96212619D02*
X172758095Y-96212619D01*
X173043809Y-96212619D02*
X173043809Y-95212619D01*
X173043809Y-95212619D02*
X172948571Y-95355476D01*
X172948571Y-95355476D02*
X172853333Y-95450714D01*
X172853333Y-95450714D02*
X172758095Y-95498333D01*
X173710476Y-95307857D02*
X173758095Y-95260238D01*
X173758095Y-95260238D02*
X173853333Y-95212619D01*
X173853333Y-95212619D02*
X174091428Y-95212619D01*
X174091428Y-95212619D02*
X174186666Y-95260238D01*
X174186666Y-95260238D02*
X174234285Y-95307857D01*
X174234285Y-95307857D02*
X174281904Y-95403095D01*
X174281904Y-95403095D02*
X174281904Y-95498333D01*
X174281904Y-95498333D02*
X174234285Y-95641190D01*
X174234285Y-95641190D02*
X173662857Y-96212619D01*
X173662857Y-96212619D02*
X174281904Y-96212619D01*
%TO.C,D1*%
X111562619Y-108038094D02*
X110562619Y-108038094D01*
X110562619Y-108038094D02*
X110562619Y-107799999D01*
X110562619Y-107799999D02*
X110610238Y-107657142D01*
X110610238Y-107657142D02*
X110705476Y-107561904D01*
X110705476Y-107561904D02*
X110800714Y-107514285D01*
X110800714Y-107514285D02*
X110991190Y-107466666D01*
X110991190Y-107466666D02*
X111134047Y-107466666D01*
X111134047Y-107466666D02*
X111324523Y-107514285D01*
X111324523Y-107514285D02*
X111419761Y-107561904D01*
X111419761Y-107561904D02*
X111515000Y-107657142D01*
X111515000Y-107657142D02*
X111562619Y-107799999D01*
X111562619Y-107799999D02*
X111562619Y-108038094D01*
X111562619Y-106514285D02*
X111562619Y-107085713D01*
X111562619Y-106799999D02*
X110562619Y-106799999D01*
X110562619Y-106799999D02*
X110705476Y-106895237D01*
X110705476Y-106895237D02*
X110800714Y-106990475D01*
X110800714Y-106990475D02*
X110848333Y-107085713D01*
%TO.C,C1*%
X155583333Y-96367380D02*
X155535714Y-96415000D01*
X155535714Y-96415000D02*
X155392857Y-96462619D01*
X155392857Y-96462619D02*
X155297619Y-96462619D01*
X155297619Y-96462619D02*
X155154762Y-96415000D01*
X155154762Y-96415000D02*
X155059524Y-96319761D01*
X155059524Y-96319761D02*
X155011905Y-96224523D01*
X155011905Y-96224523D02*
X154964286Y-96034047D01*
X154964286Y-96034047D02*
X154964286Y-95891190D01*
X154964286Y-95891190D02*
X155011905Y-95700714D01*
X155011905Y-95700714D02*
X155059524Y-95605476D01*
X155059524Y-95605476D02*
X155154762Y-95510238D01*
X155154762Y-95510238D02*
X155297619Y-95462619D01*
X155297619Y-95462619D02*
X155392857Y-95462619D01*
X155392857Y-95462619D02*
X155535714Y-95510238D01*
X155535714Y-95510238D02*
X155583333Y-95557857D01*
X156535714Y-96462619D02*
X155964286Y-96462619D01*
X156250000Y-96462619D02*
X156250000Y-95462619D01*
X156250000Y-95462619D02*
X156154762Y-95605476D01*
X156154762Y-95605476D02*
X156059524Y-95700714D01*
X156059524Y-95700714D02*
X155964286Y-95748333D01*
D16*
%TO.C,F2*%
X117672288Y-86933332D02*
X117672288Y-87356666D01*
X118337526Y-87356666D02*
X117067526Y-87356666D01*
X117067526Y-87356666D02*
X117067526Y-86751904D01*
X117188478Y-86328571D02*
X117128002Y-86268095D01*
X117128002Y-86268095D02*
X117067526Y-86147142D01*
X117067526Y-86147142D02*
X117067526Y-85844761D01*
X117067526Y-85844761D02*
X117128002Y-85723809D01*
X117128002Y-85723809D02*
X117188478Y-85663333D01*
X117188478Y-85663333D02*
X117309430Y-85602856D01*
X117309430Y-85602856D02*
X117430383Y-85602856D01*
X117430383Y-85602856D02*
X117611811Y-85663333D01*
X117611811Y-85663333D02*
X118337526Y-86389047D01*
X118337526Y-86389047D02*
X118337526Y-85602856D01*
D11*
%TO.C,TP25*%
X114514619Y-85998094D02*
X114514619Y-85426666D01*
X115514619Y-85712380D02*
X114514619Y-85712380D01*
X115514619Y-85093332D02*
X114514619Y-85093332D01*
X114514619Y-85093332D02*
X114514619Y-84712380D01*
X114514619Y-84712380D02*
X114562238Y-84617142D01*
X114562238Y-84617142D02*
X114609857Y-84569523D01*
X114609857Y-84569523D02*
X114705095Y-84521904D01*
X114705095Y-84521904D02*
X114847952Y-84521904D01*
X114847952Y-84521904D02*
X114943190Y-84569523D01*
X114943190Y-84569523D02*
X114990809Y-84617142D01*
X114990809Y-84617142D02*
X115038428Y-84712380D01*
X115038428Y-84712380D02*
X115038428Y-85093332D01*
X114609857Y-84140951D02*
X114562238Y-84093332D01*
X114562238Y-84093332D02*
X114514619Y-83998094D01*
X114514619Y-83998094D02*
X114514619Y-83759999D01*
X114514619Y-83759999D02*
X114562238Y-83664761D01*
X114562238Y-83664761D02*
X114609857Y-83617142D01*
X114609857Y-83617142D02*
X114705095Y-83569523D01*
X114705095Y-83569523D02*
X114800333Y-83569523D01*
X114800333Y-83569523D02*
X114943190Y-83617142D01*
X114943190Y-83617142D02*
X115514619Y-84188570D01*
X115514619Y-84188570D02*
X115514619Y-83569523D01*
X114514619Y-82664761D02*
X114514619Y-83140951D01*
X114514619Y-83140951D02*
X114990809Y-83188570D01*
X114990809Y-83188570D02*
X114943190Y-83140951D01*
X114943190Y-83140951D02*
X114895571Y-83045713D01*
X114895571Y-83045713D02*
X114895571Y-82807618D01*
X114895571Y-82807618D02*
X114943190Y-82712380D01*
X114943190Y-82712380D02*
X114990809Y-82664761D01*
X114990809Y-82664761D02*
X115086047Y-82617142D01*
X115086047Y-82617142D02*
X115324142Y-82617142D01*
X115324142Y-82617142D02*
X115419380Y-82664761D01*
X115419380Y-82664761D02*
X115467000Y-82712380D01*
X115467000Y-82712380D02*
X115514619Y-82807618D01*
X115514619Y-82807618D02*
X115514619Y-83045713D01*
X115514619Y-83045713D02*
X115467000Y-83140951D01*
X115467000Y-83140951D02*
X115419380Y-83188570D01*
%TO.C,C10*%
X120117380Y-80102857D02*
X120165000Y-80150476D01*
X120165000Y-80150476D02*
X120212619Y-80293333D01*
X120212619Y-80293333D02*
X120212619Y-80388571D01*
X120212619Y-80388571D02*
X120165000Y-80531428D01*
X120165000Y-80531428D02*
X120069761Y-80626666D01*
X120069761Y-80626666D02*
X119974523Y-80674285D01*
X119974523Y-80674285D02*
X119784047Y-80721904D01*
X119784047Y-80721904D02*
X119641190Y-80721904D01*
X119641190Y-80721904D02*
X119450714Y-80674285D01*
X119450714Y-80674285D02*
X119355476Y-80626666D01*
X119355476Y-80626666D02*
X119260238Y-80531428D01*
X119260238Y-80531428D02*
X119212619Y-80388571D01*
X119212619Y-80388571D02*
X119212619Y-80293333D01*
X119212619Y-80293333D02*
X119260238Y-80150476D01*
X119260238Y-80150476D02*
X119307857Y-80102857D01*
X120212619Y-79150476D02*
X120212619Y-79721904D01*
X120212619Y-79436190D02*
X119212619Y-79436190D01*
X119212619Y-79436190D02*
X119355476Y-79531428D01*
X119355476Y-79531428D02*
X119450714Y-79626666D01*
X119450714Y-79626666D02*
X119498333Y-79721904D01*
X119212619Y-78531428D02*
X119212619Y-78436190D01*
X119212619Y-78436190D02*
X119260238Y-78340952D01*
X119260238Y-78340952D02*
X119307857Y-78293333D01*
X119307857Y-78293333D02*
X119403095Y-78245714D01*
X119403095Y-78245714D02*
X119593571Y-78198095D01*
X119593571Y-78198095D02*
X119831666Y-78198095D01*
X119831666Y-78198095D02*
X120022142Y-78245714D01*
X120022142Y-78245714D02*
X120117380Y-78293333D01*
X120117380Y-78293333D02*
X120165000Y-78340952D01*
X120165000Y-78340952D02*
X120212619Y-78436190D01*
X120212619Y-78436190D02*
X120212619Y-78531428D01*
X120212619Y-78531428D02*
X120165000Y-78626666D01*
X120165000Y-78626666D02*
X120117380Y-78674285D01*
X120117380Y-78674285D02*
X120022142Y-78721904D01*
X120022142Y-78721904D02*
X119831666Y-78769523D01*
X119831666Y-78769523D02*
X119593571Y-78769523D01*
X119593571Y-78769523D02*
X119403095Y-78721904D01*
X119403095Y-78721904D02*
X119307857Y-78674285D01*
X119307857Y-78674285D02*
X119260238Y-78626666D01*
X119260238Y-78626666D02*
X119212619Y-78531428D01*
%TO.C,U2*%
X126588095Y-77972619D02*
X126588095Y-78782142D01*
X126588095Y-78782142D02*
X126635714Y-78877380D01*
X126635714Y-78877380D02*
X126683333Y-78925000D01*
X126683333Y-78925000D02*
X126778571Y-78972619D01*
X126778571Y-78972619D02*
X126969047Y-78972619D01*
X126969047Y-78972619D02*
X127064285Y-78925000D01*
X127064285Y-78925000D02*
X127111904Y-78877380D01*
X127111904Y-78877380D02*
X127159523Y-78782142D01*
X127159523Y-78782142D02*
X127159523Y-77972619D01*
X127588095Y-78067857D02*
X127635714Y-78020238D01*
X127635714Y-78020238D02*
X127730952Y-77972619D01*
X127730952Y-77972619D02*
X127969047Y-77972619D01*
X127969047Y-77972619D02*
X128064285Y-78020238D01*
X128064285Y-78020238D02*
X128111904Y-78067857D01*
X128111904Y-78067857D02*
X128159523Y-78163095D01*
X128159523Y-78163095D02*
X128159523Y-78258333D01*
X128159523Y-78258333D02*
X128111904Y-78401190D01*
X128111904Y-78401190D02*
X127540476Y-78972619D01*
X127540476Y-78972619D02*
X128159523Y-78972619D01*
%TO.C,C15*%
X159705380Y-101830857D02*
X159753000Y-101878476D01*
X159753000Y-101878476D02*
X159800619Y-102021333D01*
X159800619Y-102021333D02*
X159800619Y-102116571D01*
X159800619Y-102116571D02*
X159753000Y-102259428D01*
X159753000Y-102259428D02*
X159657761Y-102354666D01*
X159657761Y-102354666D02*
X159562523Y-102402285D01*
X159562523Y-102402285D02*
X159372047Y-102449904D01*
X159372047Y-102449904D02*
X159229190Y-102449904D01*
X159229190Y-102449904D02*
X159038714Y-102402285D01*
X159038714Y-102402285D02*
X158943476Y-102354666D01*
X158943476Y-102354666D02*
X158848238Y-102259428D01*
X158848238Y-102259428D02*
X158800619Y-102116571D01*
X158800619Y-102116571D02*
X158800619Y-102021333D01*
X158800619Y-102021333D02*
X158848238Y-101878476D01*
X158848238Y-101878476D02*
X158895857Y-101830857D01*
X159800619Y-100878476D02*
X159800619Y-101449904D01*
X159800619Y-101164190D02*
X158800619Y-101164190D01*
X158800619Y-101164190D02*
X158943476Y-101259428D01*
X158943476Y-101259428D02*
X159038714Y-101354666D01*
X159038714Y-101354666D02*
X159086333Y-101449904D01*
X158800619Y-99973714D02*
X158800619Y-100449904D01*
X158800619Y-100449904D02*
X159276809Y-100497523D01*
X159276809Y-100497523D02*
X159229190Y-100449904D01*
X159229190Y-100449904D02*
X159181571Y-100354666D01*
X159181571Y-100354666D02*
X159181571Y-100116571D01*
X159181571Y-100116571D02*
X159229190Y-100021333D01*
X159229190Y-100021333D02*
X159276809Y-99973714D01*
X159276809Y-99973714D02*
X159372047Y-99926095D01*
X159372047Y-99926095D02*
X159610142Y-99926095D01*
X159610142Y-99926095D02*
X159705380Y-99973714D01*
X159705380Y-99973714D02*
X159753000Y-100021333D01*
X159753000Y-100021333D02*
X159800619Y-100116571D01*
X159800619Y-100116571D02*
X159800619Y-100354666D01*
X159800619Y-100354666D02*
X159753000Y-100449904D01*
X159753000Y-100449904D02*
X159705380Y-100497523D01*
%TO.C,R8*%
X129962619Y-108176666D02*
X129486428Y-108509999D01*
X129962619Y-108748094D02*
X128962619Y-108748094D01*
X128962619Y-108748094D02*
X128962619Y-108367142D01*
X128962619Y-108367142D02*
X129010238Y-108271904D01*
X129010238Y-108271904D02*
X129057857Y-108224285D01*
X129057857Y-108224285D02*
X129153095Y-108176666D01*
X129153095Y-108176666D02*
X129295952Y-108176666D01*
X129295952Y-108176666D02*
X129391190Y-108224285D01*
X129391190Y-108224285D02*
X129438809Y-108271904D01*
X129438809Y-108271904D02*
X129486428Y-108367142D01*
X129486428Y-108367142D02*
X129486428Y-108748094D01*
X129391190Y-107605237D02*
X129343571Y-107700475D01*
X129343571Y-107700475D02*
X129295952Y-107748094D01*
X129295952Y-107748094D02*
X129200714Y-107795713D01*
X129200714Y-107795713D02*
X129153095Y-107795713D01*
X129153095Y-107795713D02*
X129057857Y-107748094D01*
X129057857Y-107748094D02*
X129010238Y-107700475D01*
X129010238Y-107700475D02*
X128962619Y-107605237D01*
X128962619Y-107605237D02*
X128962619Y-107414761D01*
X128962619Y-107414761D02*
X129010238Y-107319523D01*
X129010238Y-107319523D02*
X129057857Y-107271904D01*
X129057857Y-107271904D02*
X129153095Y-107224285D01*
X129153095Y-107224285D02*
X129200714Y-107224285D01*
X129200714Y-107224285D02*
X129295952Y-107271904D01*
X129295952Y-107271904D02*
X129343571Y-107319523D01*
X129343571Y-107319523D02*
X129391190Y-107414761D01*
X129391190Y-107414761D02*
X129391190Y-107605237D01*
X129391190Y-107605237D02*
X129438809Y-107700475D01*
X129438809Y-107700475D02*
X129486428Y-107748094D01*
X129486428Y-107748094D02*
X129581666Y-107795713D01*
X129581666Y-107795713D02*
X129772142Y-107795713D01*
X129772142Y-107795713D02*
X129867380Y-107748094D01*
X129867380Y-107748094D02*
X129915000Y-107700475D01*
X129915000Y-107700475D02*
X129962619Y-107605237D01*
X129962619Y-107605237D02*
X129962619Y-107414761D01*
X129962619Y-107414761D02*
X129915000Y-107319523D01*
X129915000Y-107319523D02*
X129867380Y-107271904D01*
X129867380Y-107271904D02*
X129772142Y-107224285D01*
X129772142Y-107224285D02*
X129581666Y-107224285D01*
X129581666Y-107224285D02*
X129486428Y-107271904D01*
X129486428Y-107271904D02*
X129438809Y-107319523D01*
X129438809Y-107319523D02*
X129391190Y-107414761D01*
%TO.C,R28*%
X157292619Y-104902857D02*
X156816428Y-105236190D01*
X157292619Y-105474285D02*
X156292619Y-105474285D01*
X156292619Y-105474285D02*
X156292619Y-105093333D01*
X156292619Y-105093333D02*
X156340238Y-104998095D01*
X156340238Y-104998095D02*
X156387857Y-104950476D01*
X156387857Y-104950476D02*
X156483095Y-104902857D01*
X156483095Y-104902857D02*
X156625952Y-104902857D01*
X156625952Y-104902857D02*
X156721190Y-104950476D01*
X156721190Y-104950476D02*
X156768809Y-104998095D01*
X156768809Y-104998095D02*
X156816428Y-105093333D01*
X156816428Y-105093333D02*
X156816428Y-105474285D01*
X156387857Y-104521904D02*
X156340238Y-104474285D01*
X156340238Y-104474285D02*
X156292619Y-104379047D01*
X156292619Y-104379047D02*
X156292619Y-104140952D01*
X156292619Y-104140952D02*
X156340238Y-104045714D01*
X156340238Y-104045714D02*
X156387857Y-103998095D01*
X156387857Y-103998095D02*
X156483095Y-103950476D01*
X156483095Y-103950476D02*
X156578333Y-103950476D01*
X156578333Y-103950476D02*
X156721190Y-103998095D01*
X156721190Y-103998095D02*
X157292619Y-104569523D01*
X157292619Y-104569523D02*
X157292619Y-103950476D01*
X156721190Y-103379047D02*
X156673571Y-103474285D01*
X156673571Y-103474285D02*
X156625952Y-103521904D01*
X156625952Y-103521904D02*
X156530714Y-103569523D01*
X156530714Y-103569523D02*
X156483095Y-103569523D01*
X156483095Y-103569523D02*
X156387857Y-103521904D01*
X156387857Y-103521904D02*
X156340238Y-103474285D01*
X156340238Y-103474285D02*
X156292619Y-103379047D01*
X156292619Y-103379047D02*
X156292619Y-103188571D01*
X156292619Y-103188571D02*
X156340238Y-103093333D01*
X156340238Y-103093333D02*
X156387857Y-103045714D01*
X156387857Y-103045714D02*
X156483095Y-102998095D01*
X156483095Y-102998095D02*
X156530714Y-102998095D01*
X156530714Y-102998095D02*
X156625952Y-103045714D01*
X156625952Y-103045714D02*
X156673571Y-103093333D01*
X156673571Y-103093333D02*
X156721190Y-103188571D01*
X156721190Y-103188571D02*
X156721190Y-103379047D01*
X156721190Y-103379047D02*
X156768809Y-103474285D01*
X156768809Y-103474285D02*
X156816428Y-103521904D01*
X156816428Y-103521904D02*
X156911666Y-103569523D01*
X156911666Y-103569523D02*
X157102142Y-103569523D01*
X157102142Y-103569523D02*
X157197380Y-103521904D01*
X157197380Y-103521904D02*
X157245000Y-103474285D01*
X157245000Y-103474285D02*
X157292619Y-103379047D01*
X157292619Y-103379047D02*
X157292619Y-103188571D01*
X157292619Y-103188571D02*
X157245000Y-103093333D01*
X157245000Y-103093333D02*
X157197380Y-103045714D01*
X157197380Y-103045714D02*
X157102142Y-102998095D01*
X157102142Y-102998095D02*
X156911666Y-102998095D01*
X156911666Y-102998095D02*
X156816428Y-103045714D01*
X156816428Y-103045714D02*
X156768809Y-103093333D01*
X156768809Y-103093333D02*
X156721190Y-103188571D01*
%TO.C,TP14*%
X182061905Y-92014619D02*
X182633333Y-92014619D01*
X182347619Y-93014619D02*
X182347619Y-92014619D01*
X182966667Y-93014619D02*
X182966667Y-92014619D01*
X182966667Y-92014619D02*
X183347619Y-92014619D01*
X183347619Y-92014619D02*
X183442857Y-92062238D01*
X183442857Y-92062238D02*
X183490476Y-92109857D01*
X183490476Y-92109857D02*
X183538095Y-92205095D01*
X183538095Y-92205095D02*
X183538095Y-92347952D01*
X183538095Y-92347952D02*
X183490476Y-92443190D01*
X183490476Y-92443190D02*
X183442857Y-92490809D01*
X183442857Y-92490809D02*
X183347619Y-92538428D01*
X183347619Y-92538428D02*
X182966667Y-92538428D01*
X184490476Y-93014619D02*
X183919048Y-93014619D01*
X184204762Y-93014619D02*
X184204762Y-92014619D01*
X184204762Y-92014619D02*
X184109524Y-92157476D01*
X184109524Y-92157476D02*
X184014286Y-92252714D01*
X184014286Y-92252714D02*
X183919048Y-92300333D01*
X185347619Y-92347952D02*
X185347619Y-93014619D01*
X185109524Y-91967000D02*
X184871429Y-92681285D01*
X184871429Y-92681285D02*
X185490476Y-92681285D01*
%TO.C,R9*%
X118562619Y-90926666D02*
X118086428Y-91259999D01*
X118562619Y-91498094D02*
X117562619Y-91498094D01*
X117562619Y-91498094D02*
X117562619Y-91117142D01*
X117562619Y-91117142D02*
X117610238Y-91021904D01*
X117610238Y-91021904D02*
X117657857Y-90974285D01*
X117657857Y-90974285D02*
X117753095Y-90926666D01*
X117753095Y-90926666D02*
X117895952Y-90926666D01*
X117895952Y-90926666D02*
X117991190Y-90974285D01*
X117991190Y-90974285D02*
X118038809Y-91021904D01*
X118038809Y-91021904D02*
X118086428Y-91117142D01*
X118086428Y-91117142D02*
X118086428Y-91498094D01*
X118562619Y-90450475D02*
X118562619Y-90259999D01*
X118562619Y-90259999D02*
X118515000Y-90164761D01*
X118515000Y-90164761D02*
X118467380Y-90117142D01*
X118467380Y-90117142D02*
X118324523Y-90021904D01*
X118324523Y-90021904D02*
X118134047Y-89974285D01*
X118134047Y-89974285D02*
X117753095Y-89974285D01*
X117753095Y-89974285D02*
X117657857Y-90021904D01*
X117657857Y-90021904D02*
X117610238Y-90069523D01*
X117610238Y-90069523D02*
X117562619Y-90164761D01*
X117562619Y-90164761D02*
X117562619Y-90355237D01*
X117562619Y-90355237D02*
X117610238Y-90450475D01*
X117610238Y-90450475D02*
X117657857Y-90498094D01*
X117657857Y-90498094D02*
X117753095Y-90545713D01*
X117753095Y-90545713D02*
X117991190Y-90545713D01*
X117991190Y-90545713D02*
X118086428Y-90498094D01*
X118086428Y-90498094D02*
X118134047Y-90450475D01*
X118134047Y-90450475D02*
X118181666Y-90355237D01*
X118181666Y-90355237D02*
X118181666Y-90164761D01*
X118181666Y-90164761D02*
X118134047Y-90069523D01*
X118134047Y-90069523D02*
X118086428Y-90021904D01*
X118086428Y-90021904D02*
X117991190Y-89974285D01*
%TO.C,Y2*%
X133416428Y-88626190D02*
X133892619Y-88626190D01*
X132892619Y-88959523D02*
X133416428Y-88626190D01*
X133416428Y-88626190D02*
X132892619Y-88292857D01*
X132987857Y-88007142D02*
X132940238Y-87959523D01*
X132940238Y-87959523D02*
X132892619Y-87864285D01*
X132892619Y-87864285D02*
X132892619Y-87626190D01*
X132892619Y-87626190D02*
X132940238Y-87530952D01*
X132940238Y-87530952D02*
X132987857Y-87483333D01*
X132987857Y-87483333D02*
X133083095Y-87435714D01*
X133083095Y-87435714D02*
X133178333Y-87435714D01*
X133178333Y-87435714D02*
X133321190Y-87483333D01*
X133321190Y-87483333D02*
X133892619Y-88054761D01*
X133892619Y-88054761D02*
X133892619Y-87435714D01*
D16*
%TO.C,H5*%
X150782380Y-112587526D02*
X150782380Y-111317526D01*
X150782380Y-111922288D02*
X151508095Y-111922288D01*
X151508095Y-112587526D02*
X151508095Y-111317526D01*
X152717618Y-111317526D02*
X152112856Y-111317526D01*
X152112856Y-111317526D02*
X152052380Y-111922288D01*
X152052380Y-111922288D02*
X152112856Y-111861811D01*
X152112856Y-111861811D02*
X152233809Y-111801335D01*
X152233809Y-111801335D02*
X152536190Y-111801335D01*
X152536190Y-111801335D02*
X152657142Y-111861811D01*
X152657142Y-111861811D02*
X152717618Y-111922288D01*
X152717618Y-111922288D02*
X152778095Y-112043240D01*
X152778095Y-112043240D02*
X152778095Y-112345621D01*
X152778095Y-112345621D02*
X152717618Y-112466573D01*
X152717618Y-112466573D02*
X152657142Y-112527050D01*
X152657142Y-112527050D02*
X152536190Y-112587526D01*
X152536190Y-112587526D02*
X152233809Y-112587526D01*
X152233809Y-112587526D02*
X152112856Y-112527050D01*
X152112856Y-112527050D02*
X152052380Y-112466573D01*
D11*
%TO.C,R24*%
X162357142Y-90062619D02*
X162023809Y-89586428D01*
X161785714Y-90062619D02*
X161785714Y-89062619D01*
X161785714Y-89062619D02*
X162166666Y-89062619D01*
X162166666Y-89062619D02*
X162261904Y-89110238D01*
X162261904Y-89110238D02*
X162309523Y-89157857D01*
X162309523Y-89157857D02*
X162357142Y-89253095D01*
X162357142Y-89253095D02*
X162357142Y-89395952D01*
X162357142Y-89395952D02*
X162309523Y-89491190D01*
X162309523Y-89491190D02*
X162261904Y-89538809D01*
X162261904Y-89538809D02*
X162166666Y-89586428D01*
X162166666Y-89586428D02*
X161785714Y-89586428D01*
X162738095Y-89157857D02*
X162785714Y-89110238D01*
X162785714Y-89110238D02*
X162880952Y-89062619D01*
X162880952Y-89062619D02*
X163119047Y-89062619D01*
X163119047Y-89062619D02*
X163214285Y-89110238D01*
X163214285Y-89110238D02*
X163261904Y-89157857D01*
X163261904Y-89157857D02*
X163309523Y-89253095D01*
X163309523Y-89253095D02*
X163309523Y-89348333D01*
X163309523Y-89348333D02*
X163261904Y-89491190D01*
X163261904Y-89491190D02*
X162690476Y-90062619D01*
X162690476Y-90062619D02*
X163309523Y-90062619D01*
X164166666Y-89395952D02*
X164166666Y-90062619D01*
X163928571Y-89015000D02*
X163690476Y-89729285D01*
X163690476Y-89729285D02*
X164309523Y-89729285D01*
%TO.C,Q2*%
X121804761Y-102457857D02*
X121709523Y-102410238D01*
X121709523Y-102410238D02*
X121614285Y-102315000D01*
X121614285Y-102315000D02*
X121471428Y-102172142D01*
X121471428Y-102172142D02*
X121376190Y-102124523D01*
X121376190Y-102124523D02*
X121280952Y-102124523D01*
X121328571Y-102362619D02*
X121233333Y-102315000D01*
X121233333Y-102315000D02*
X121138095Y-102219761D01*
X121138095Y-102219761D02*
X121090476Y-102029285D01*
X121090476Y-102029285D02*
X121090476Y-101695952D01*
X121090476Y-101695952D02*
X121138095Y-101505476D01*
X121138095Y-101505476D02*
X121233333Y-101410238D01*
X121233333Y-101410238D02*
X121328571Y-101362619D01*
X121328571Y-101362619D02*
X121519047Y-101362619D01*
X121519047Y-101362619D02*
X121614285Y-101410238D01*
X121614285Y-101410238D02*
X121709523Y-101505476D01*
X121709523Y-101505476D02*
X121757142Y-101695952D01*
X121757142Y-101695952D02*
X121757142Y-102029285D01*
X121757142Y-102029285D02*
X121709523Y-102219761D01*
X121709523Y-102219761D02*
X121614285Y-102315000D01*
X121614285Y-102315000D02*
X121519047Y-102362619D01*
X121519047Y-102362619D02*
X121328571Y-102362619D01*
X122138095Y-101457857D02*
X122185714Y-101410238D01*
X122185714Y-101410238D02*
X122280952Y-101362619D01*
X122280952Y-101362619D02*
X122519047Y-101362619D01*
X122519047Y-101362619D02*
X122614285Y-101410238D01*
X122614285Y-101410238D02*
X122661904Y-101457857D01*
X122661904Y-101457857D02*
X122709523Y-101553095D01*
X122709523Y-101553095D02*
X122709523Y-101648333D01*
X122709523Y-101648333D02*
X122661904Y-101791190D01*
X122661904Y-101791190D02*
X122090476Y-102362619D01*
X122090476Y-102362619D02*
X122709523Y-102362619D01*
%TO.C,R6*%
X145023333Y-81412619D02*
X144690000Y-80936428D01*
X144451905Y-81412619D02*
X144451905Y-80412619D01*
X144451905Y-80412619D02*
X144832857Y-80412619D01*
X144832857Y-80412619D02*
X144928095Y-80460238D01*
X144928095Y-80460238D02*
X144975714Y-80507857D01*
X144975714Y-80507857D02*
X145023333Y-80603095D01*
X145023333Y-80603095D02*
X145023333Y-80745952D01*
X145023333Y-80745952D02*
X144975714Y-80841190D01*
X144975714Y-80841190D02*
X144928095Y-80888809D01*
X144928095Y-80888809D02*
X144832857Y-80936428D01*
X144832857Y-80936428D02*
X144451905Y-80936428D01*
X145880476Y-80412619D02*
X145690000Y-80412619D01*
X145690000Y-80412619D02*
X145594762Y-80460238D01*
X145594762Y-80460238D02*
X145547143Y-80507857D01*
X145547143Y-80507857D02*
X145451905Y-80650714D01*
X145451905Y-80650714D02*
X145404286Y-80841190D01*
X145404286Y-80841190D02*
X145404286Y-81222142D01*
X145404286Y-81222142D02*
X145451905Y-81317380D01*
X145451905Y-81317380D02*
X145499524Y-81365000D01*
X145499524Y-81365000D02*
X145594762Y-81412619D01*
X145594762Y-81412619D02*
X145785238Y-81412619D01*
X145785238Y-81412619D02*
X145880476Y-81365000D01*
X145880476Y-81365000D02*
X145928095Y-81317380D01*
X145928095Y-81317380D02*
X145975714Y-81222142D01*
X145975714Y-81222142D02*
X145975714Y-80984047D01*
X145975714Y-80984047D02*
X145928095Y-80888809D01*
X145928095Y-80888809D02*
X145880476Y-80841190D01*
X145880476Y-80841190D02*
X145785238Y-80793571D01*
X145785238Y-80793571D02*
X145594762Y-80793571D01*
X145594762Y-80793571D02*
X145499524Y-80841190D01*
X145499524Y-80841190D02*
X145451905Y-80888809D01*
X145451905Y-80888809D02*
X145404286Y-80984047D01*
%TO.C,C18*%
X173367380Y-76892857D02*
X173415000Y-76940476D01*
X173415000Y-76940476D02*
X173462619Y-77083333D01*
X173462619Y-77083333D02*
X173462619Y-77178571D01*
X173462619Y-77178571D02*
X173415000Y-77321428D01*
X173415000Y-77321428D02*
X173319761Y-77416666D01*
X173319761Y-77416666D02*
X173224523Y-77464285D01*
X173224523Y-77464285D02*
X173034047Y-77511904D01*
X173034047Y-77511904D02*
X172891190Y-77511904D01*
X172891190Y-77511904D02*
X172700714Y-77464285D01*
X172700714Y-77464285D02*
X172605476Y-77416666D01*
X172605476Y-77416666D02*
X172510238Y-77321428D01*
X172510238Y-77321428D02*
X172462619Y-77178571D01*
X172462619Y-77178571D02*
X172462619Y-77083333D01*
X172462619Y-77083333D02*
X172510238Y-76940476D01*
X172510238Y-76940476D02*
X172557857Y-76892857D01*
X173462619Y-75940476D02*
X173462619Y-76511904D01*
X173462619Y-76226190D02*
X172462619Y-76226190D01*
X172462619Y-76226190D02*
X172605476Y-76321428D01*
X172605476Y-76321428D02*
X172700714Y-76416666D01*
X172700714Y-76416666D02*
X172748333Y-76511904D01*
X172891190Y-75369047D02*
X172843571Y-75464285D01*
X172843571Y-75464285D02*
X172795952Y-75511904D01*
X172795952Y-75511904D02*
X172700714Y-75559523D01*
X172700714Y-75559523D02*
X172653095Y-75559523D01*
X172653095Y-75559523D02*
X172557857Y-75511904D01*
X172557857Y-75511904D02*
X172510238Y-75464285D01*
X172510238Y-75464285D02*
X172462619Y-75369047D01*
X172462619Y-75369047D02*
X172462619Y-75178571D01*
X172462619Y-75178571D02*
X172510238Y-75083333D01*
X172510238Y-75083333D02*
X172557857Y-75035714D01*
X172557857Y-75035714D02*
X172653095Y-74988095D01*
X172653095Y-74988095D02*
X172700714Y-74988095D01*
X172700714Y-74988095D02*
X172795952Y-75035714D01*
X172795952Y-75035714D02*
X172843571Y-75083333D01*
X172843571Y-75083333D02*
X172891190Y-75178571D01*
X172891190Y-75178571D02*
X172891190Y-75369047D01*
X172891190Y-75369047D02*
X172938809Y-75464285D01*
X172938809Y-75464285D02*
X172986428Y-75511904D01*
X172986428Y-75511904D02*
X173081666Y-75559523D01*
X173081666Y-75559523D02*
X173272142Y-75559523D01*
X173272142Y-75559523D02*
X173367380Y-75511904D01*
X173367380Y-75511904D02*
X173415000Y-75464285D01*
X173415000Y-75464285D02*
X173462619Y-75369047D01*
X173462619Y-75369047D02*
X173462619Y-75178571D01*
X173462619Y-75178571D02*
X173415000Y-75083333D01*
X173415000Y-75083333D02*
X173367380Y-75035714D01*
X173367380Y-75035714D02*
X173272142Y-74988095D01*
X173272142Y-74988095D02*
X173081666Y-74988095D01*
X173081666Y-74988095D02*
X172986428Y-75035714D01*
X172986428Y-75035714D02*
X172938809Y-75083333D01*
X172938809Y-75083333D02*
X172891190Y-75178571D01*
%TO.C,R22*%
X144107142Y-90962619D02*
X143773809Y-90486428D01*
X143535714Y-90962619D02*
X143535714Y-89962619D01*
X143535714Y-89962619D02*
X143916666Y-89962619D01*
X143916666Y-89962619D02*
X144011904Y-90010238D01*
X144011904Y-90010238D02*
X144059523Y-90057857D01*
X144059523Y-90057857D02*
X144107142Y-90153095D01*
X144107142Y-90153095D02*
X144107142Y-90295952D01*
X144107142Y-90295952D02*
X144059523Y-90391190D01*
X144059523Y-90391190D02*
X144011904Y-90438809D01*
X144011904Y-90438809D02*
X143916666Y-90486428D01*
X143916666Y-90486428D02*
X143535714Y-90486428D01*
X144488095Y-90057857D02*
X144535714Y-90010238D01*
X144535714Y-90010238D02*
X144630952Y-89962619D01*
X144630952Y-89962619D02*
X144869047Y-89962619D01*
X144869047Y-89962619D02*
X144964285Y-90010238D01*
X144964285Y-90010238D02*
X145011904Y-90057857D01*
X145011904Y-90057857D02*
X145059523Y-90153095D01*
X145059523Y-90153095D02*
X145059523Y-90248333D01*
X145059523Y-90248333D02*
X145011904Y-90391190D01*
X145011904Y-90391190D02*
X144440476Y-90962619D01*
X144440476Y-90962619D02*
X145059523Y-90962619D01*
X145440476Y-90057857D02*
X145488095Y-90010238D01*
X145488095Y-90010238D02*
X145583333Y-89962619D01*
X145583333Y-89962619D02*
X145821428Y-89962619D01*
X145821428Y-89962619D02*
X145916666Y-90010238D01*
X145916666Y-90010238D02*
X145964285Y-90057857D01*
X145964285Y-90057857D02*
X146011904Y-90153095D01*
X146011904Y-90153095D02*
X146011904Y-90248333D01*
X146011904Y-90248333D02*
X145964285Y-90391190D01*
X145964285Y-90391190D02*
X145392857Y-90962619D01*
X145392857Y-90962619D02*
X146011904Y-90962619D01*
%TO.C,C14*%
X180867380Y-93142857D02*
X180915000Y-93190476D01*
X180915000Y-93190476D02*
X180962619Y-93333333D01*
X180962619Y-93333333D02*
X180962619Y-93428571D01*
X180962619Y-93428571D02*
X180915000Y-93571428D01*
X180915000Y-93571428D02*
X180819761Y-93666666D01*
X180819761Y-93666666D02*
X180724523Y-93714285D01*
X180724523Y-93714285D02*
X180534047Y-93761904D01*
X180534047Y-93761904D02*
X180391190Y-93761904D01*
X180391190Y-93761904D02*
X180200714Y-93714285D01*
X180200714Y-93714285D02*
X180105476Y-93666666D01*
X180105476Y-93666666D02*
X180010238Y-93571428D01*
X180010238Y-93571428D02*
X179962619Y-93428571D01*
X179962619Y-93428571D02*
X179962619Y-93333333D01*
X179962619Y-93333333D02*
X180010238Y-93190476D01*
X180010238Y-93190476D02*
X180057857Y-93142857D01*
X180962619Y-92190476D02*
X180962619Y-92761904D01*
X180962619Y-92476190D02*
X179962619Y-92476190D01*
X179962619Y-92476190D02*
X180105476Y-92571428D01*
X180105476Y-92571428D02*
X180200714Y-92666666D01*
X180200714Y-92666666D02*
X180248333Y-92761904D01*
X180295952Y-91333333D02*
X180962619Y-91333333D01*
X179915000Y-91571428D02*
X180629285Y-91809523D01*
X180629285Y-91809523D02*
X180629285Y-91190476D01*
%TO.C,R7*%
X122212619Y-96916666D02*
X121736428Y-97249999D01*
X122212619Y-97488094D02*
X121212619Y-97488094D01*
X121212619Y-97488094D02*
X121212619Y-97107142D01*
X121212619Y-97107142D02*
X121260238Y-97011904D01*
X121260238Y-97011904D02*
X121307857Y-96964285D01*
X121307857Y-96964285D02*
X121403095Y-96916666D01*
X121403095Y-96916666D02*
X121545952Y-96916666D01*
X121545952Y-96916666D02*
X121641190Y-96964285D01*
X121641190Y-96964285D02*
X121688809Y-97011904D01*
X121688809Y-97011904D02*
X121736428Y-97107142D01*
X121736428Y-97107142D02*
X121736428Y-97488094D01*
X121212619Y-96583332D02*
X121212619Y-95916666D01*
X121212619Y-95916666D02*
X122212619Y-96345237D01*
D12*
%TO.C,D5*%
X115451666Y-111447500D02*
X116921666Y-111447500D01*
X116921666Y-111447500D02*
X116921666Y-109162500D01*
X115451666Y-109162500D02*
X115451666Y-111447500D01*
%TO.C,C19*%
X169642164Y-87540000D02*
X169857836Y-87540000D01*
X169642164Y-88260000D02*
X169857836Y-88260000D01*
%TO.C,TP34*%
X145200000Y-95250000D02*
G75*
G03*
X145200000Y-95250000I-700000J0D01*
G01*
%TO.C,C4*%
X177240000Y-95107836D02*
X177240000Y-94892164D01*
X177960000Y-95107836D02*
X177960000Y-94892164D01*
%TO.C,D4*%
X121358332Y-111485000D02*
X122828332Y-111485000D01*
X122828332Y-111485000D02*
X122828332Y-109200000D01*
X121358332Y-109200000D02*
X121358332Y-111485000D01*
%TO.C,C7*%
X147127836Y-94610000D02*
X146912164Y-94610000D01*
X147127836Y-93890000D02*
X146912164Y-93890000D01*
D14*
%TO.C,SW2*%
X191600000Y-94200000D02*
X191600000Y-95050000D01*
X185000000Y-94200000D02*
X191600000Y-94200000D01*
X185000000Y-94200000D02*
X185000000Y-95000000D01*
X191600000Y-96550000D02*
X191600000Y-97050000D01*
X185000000Y-96550000D02*
X185000000Y-97050000D01*
X191600000Y-98550000D02*
X191600000Y-99050000D01*
X185000000Y-98550000D02*
X185000000Y-99050000D01*
X191600000Y-100550000D02*
X191600000Y-101400000D01*
X185000000Y-100550000D02*
X185000000Y-101400000D01*
X191600000Y-101400000D02*
X185000000Y-101400000D01*
D17*
X192195710Y-95800000D02*
G75*
G03*
X192195710Y-95800000I-95710J0D01*
G01*
D12*
%TO.C,C8*%
X151272164Y-96746000D02*
X151487836Y-96746000D01*
X151272164Y-97466000D02*
X151487836Y-97466000D01*
%TO.C,C11*%
X124261252Y-78745000D02*
X123738748Y-78745000D01*
X124261252Y-77275000D02*
X123738748Y-77275000D01*
%TO.C,TP1*%
X185700000Y-89750000D02*
G75*
G03*
X185700000Y-89750000I-700000J0D01*
G01*
%TO.C,R2*%
X112370000Y-110153641D02*
X112370000Y-109846359D01*
X113130000Y-110153641D02*
X113130000Y-109846359D01*
%TO.C,R10*%
X178620000Y-95153641D02*
X178620000Y-94846359D01*
X179380000Y-95153641D02*
X179380000Y-94846359D01*
%TO.C,R21*%
X146980000Y-89046359D02*
X146980000Y-89353641D01*
X146220000Y-89046359D02*
X146220000Y-89353641D01*
%TO.C,R5*%
X143322513Y-83143641D02*
X143322513Y-82836359D01*
X144082513Y-83143641D02*
X144082513Y-82836359D01*
%TO.C,R13*%
X165753641Y-88580000D02*
X165446359Y-88580000D01*
X165753641Y-87820000D02*
X165446359Y-87820000D01*
%TO.C,TP12*%
X189900000Y-107000000D02*
G75*
G03*
X189900000Y-107000000I-700000J0D01*
G01*
%TO.C,R14*%
X171420000Y-85663641D02*
X171420000Y-85356359D01*
X172180000Y-85663641D02*
X172180000Y-85356359D01*
%TO.C,Q1*%
X126060000Y-103312500D02*
X126060000Y-101637500D01*
X126060000Y-103312500D02*
X126060000Y-103962500D01*
X122940000Y-103312500D02*
X122940000Y-102662500D01*
X122940000Y-103312500D02*
X122940000Y-103962500D01*
%TO.C,TP11*%
X190200000Y-91250000D02*
G75*
G03*
X190200000Y-91250000I-700000J0D01*
G01*
%TO.C,C6*%
X175857836Y-97360000D02*
X175642164Y-97360000D01*
X175857836Y-96640000D02*
X175642164Y-96640000D01*
%TO.C,R23*%
X139895000Y-87276359D02*
X139895000Y-87583641D01*
X139135000Y-87276359D02*
X139135000Y-87583641D01*
%TO.C,Y1*%
X150650000Y-98250000D02*
X150650000Y-101550000D01*
X150650000Y-101550000D02*
X154650000Y-101550000D01*
%TO.C,J2*%
X160620000Y-74920000D02*
X160050000Y-74920000D01*
X160620000Y-74920000D02*
X160620000Y-77580000D01*
X160050000Y-74920000D02*
X160050000Y-73400000D01*
X158530000Y-74920000D02*
X154970000Y-74920000D01*
X153450000Y-74920000D02*
X149890000Y-74920000D01*
X147800000Y-74920000D02*
X147800000Y-77580000D01*
X160620000Y-77580000D02*
X157510000Y-77580000D01*
X155990000Y-77580000D02*
X152430000Y-77580000D01*
X150910000Y-77580000D02*
X147800000Y-77580000D01*
X148370000Y-77580000D02*
X147800000Y-77580000D01*
%TO.C,U3*%
X180795000Y-101725000D02*
X180795000Y-98275000D01*
X180795000Y-101725000D02*
X180795000Y-103675000D01*
X170675000Y-101725000D02*
X170675000Y-99775000D01*
X170675000Y-101725000D02*
X170675000Y-103675000D01*
%TO.C,R16*%
X172130000Y-79096359D02*
X172130000Y-79403641D01*
X171370000Y-79096359D02*
X171370000Y-79403641D01*
%TO.C,R27*%
X117620000Y-110153641D02*
X117620000Y-109846359D01*
X118380000Y-110153641D02*
X118380000Y-109846359D01*
%TO.C,R3*%
X144106359Y-79370000D02*
X144413641Y-79370000D01*
X144106359Y-80130000D02*
X144413641Y-80130000D01*
%TO.C,R1*%
X146856359Y-92620000D02*
X147163641Y-92620000D01*
X146856359Y-93380000D02*
X147163641Y-93380000D01*
%TO.C,C3*%
X161222000Y-95492164D02*
X161222000Y-95707836D01*
X160502000Y-95492164D02*
X160502000Y-95707836D01*
%TO.C,C2*%
X158174000Y-96988164D02*
X158174000Y-97203836D01*
X157454000Y-96988164D02*
X157454000Y-97203836D01*
%TO.C,C13*%
X182095000Y-104117164D02*
X182095000Y-104332836D01*
X181375000Y-104117164D02*
X181375000Y-104332836D01*
%TO.C,C20*%
X137505000Y-87360580D02*
X137505000Y-87079420D01*
X138525000Y-87360580D02*
X138525000Y-87079420D01*
%TO.C,TP15*%
X168950000Y-101000000D02*
G75*
G03*
X168950000Y-101000000I-700000J0D01*
G01*
%TO.C,R26*%
X118370000Y-99143641D02*
X118370000Y-98836359D01*
X119130000Y-99143641D02*
X119130000Y-98836359D01*
D13*
%TO.C,J6*%
X175612000Y-74950000D02*
X175612000Y-74950000D01*
X175612000Y-75150000D02*
X175612000Y-75150000D01*
D14*
X176312000Y-73350000D02*
X176312000Y-86900000D01*
X176312000Y-86900000D02*
X179012000Y-86900000D01*
X177812000Y-71400000D02*
X188612000Y-71400000D01*
X183749000Y-86900000D02*
X188012000Y-86900000D01*
X190112000Y-73350000D02*
X190112000Y-80750000D01*
X190112000Y-82950000D02*
X190112000Y-85550000D01*
D13*
X175612000Y-75150000D02*
G75*
G03*
X175612000Y-74950000I0J100000D01*
G01*
X175612000Y-74950000D02*
G75*
G03*
X175612000Y-75150000I0J-100000D01*
G01*
D12*
%TO.C,C21*%
X141525000Y-87574420D02*
X141525000Y-87855580D01*
X140505000Y-87574420D02*
X140505000Y-87855580D01*
%TO.C,TP13*%
X186200000Y-102600000D02*
G75*
G03*
X186200000Y-102600000I-700000J0D01*
G01*
%TO.C,C9*%
X153558164Y-96746000D02*
X153773836Y-96746000D01*
X153558164Y-97466000D02*
X153773836Y-97466000D01*
%TO.C,TP35*%
X112950000Y-101250000D02*
G75*
G03*
X112950000Y-101250000I-700000J0D01*
G01*
%TO.C,R19*%
X165096359Y-98630000D02*
X165403641Y-98630000D01*
X165096359Y-99390000D02*
X165403641Y-99390000D01*
%TO.C,R15*%
X171370000Y-82913641D02*
X171370000Y-82606359D01*
X172130000Y-82913641D02*
X172130000Y-82606359D01*
%TO.C,SW1*%
X140380000Y-73275000D02*
X140380000Y-74666000D01*
X141030000Y-74666000D02*
X140380000Y-74666000D01*
X141030000Y-74666000D02*
X141030000Y-79285000D01*
X135270000Y-74666000D02*
X134560000Y-74666000D01*
X134560000Y-74666000D02*
X134560000Y-79285000D01*
X141030000Y-79285000D02*
X140320000Y-79285000D01*
X135270000Y-79285000D02*
X134560000Y-79285000D01*
%TO.C,FB1*%
X158764279Y-95856000D02*
X158438721Y-95856000D01*
X158764279Y-94836000D02*
X158438721Y-94836000D01*
D14*
%TO.C,J5*%
X192920000Y-107650000D02*
X192920000Y-76840000D01*
X207330000Y-107650000D02*
X192920000Y-107650000D01*
X192480000Y-97785000D02*
X192480000Y-97785000D01*
X192580000Y-97785000D02*
X192580000Y-97785000D01*
X192920000Y-76840000D02*
X207330000Y-76840000D01*
X192580000Y-97785000D02*
G75*
G03*
X192480000Y-97785000I-50000J0D01*
G01*
X192480000Y-97785000D02*
G75*
G03*
X192580000Y-97785000I50000J0D01*
G01*
D12*
%TO.C,U1*%
X150140000Y-92860000D02*
X150440000Y-92860000D01*
X150440000Y-92860000D02*
X150440000Y-94175000D01*
X157360000Y-92860000D02*
X157060000Y-92860000D01*
X150140000Y-92560000D02*
X150140000Y-92860000D01*
X157360000Y-92560000D02*
X157360000Y-92860000D01*
X150140000Y-85940000D02*
X150140000Y-85640000D01*
X157360000Y-85940000D02*
X157360000Y-85640000D01*
X150140000Y-85640000D02*
X150440000Y-85640000D01*
X157360000Y-85640000D02*
X157060000Y-85640000D01*
%TO.C,C5*%
X179207836Y-97110000D02*
X178992164Y-97110000D01*
X179207836Y-96390000D02*
X178992164Y-96390000D01*
%TO.C,R18*%
X123620000Y-110153641D02*
X123620000Y-109846359D01*
X124380000Y-110153641D02*
X124380000Y-109846359D01*
%TO.C,TP7*%
X176600000Y-90000000D02*
G75*
G03*
X176600000Y-90000000I-700000J0D01*
G01*
%TO.C,TP16*%
X166950000Y-108250000D02*
G75*
G03*
X166950000Y-108250000I-700000J0D01*
G01*
%TO.C,R4*%
X143343641Y-84830000D02*
X143036359Y-84830000D01*
X143343641Y-84070000D02*
X143036359Y-84070000D01*
D14*
%TO.C,J8*%
X110250000Y-86900000D02*
X108000000Y-86900000D01*
X104750000Y-86900000D02*
X103750000Y-86900000D01*
X112635000Y-87500000D02*
X112635000Y-88750000D01*
X112635000Y-92750000D02*
X112635000Y-94000000D01*
X110250000Y-94600000D02*
X108000000Y-94600000D01*
X104750000Y-94600000D02*
X103750000Y-94600000D01*
D18*
X113925000Y-89150000D02*
G75*
G03*
X113925000Y-89150000I-175000J0D01*
G01*
D12*
%TO.C,R20*%
X165096359Y-95820000D02*
X165403641Y-95820000D01*
X165096359Y-96580000D02*
X165403641Y-96580000D01*
%TO.C,C17*%
X149860000Y-94142164D02*
X149860000Y-94357836D01*
X149140000Y-94142164D02*
X149140000Y-94357836D01*
%TO.C,D3*%
X128735000Y-108555000D02*
X127265000Y-108555000D01*
X127265000Y-108555000D02*
X127265000Y-110840000D01*
X128735000Y-110840000D02*
X128735000Y-108555000D01*
%TO.C,J1*%
X178620000Y-108170000D02*
X178050000Y-108170000D01*
X178620000Y-108170000D02*
X178620000Y-110830000D01*
X178050000Y-108170000D02*
X178050000Y-106650000D01*
X176530000Y-108170000D02*
X172970000Y-108170000D01*
X170880000Y-108170000D02*
X170880000Y-110830000D01*
X178620000Y-110830000D02*
X175510000Y-110830000D01*
X173990000Y-110830000D02*
X170880000Y-110830000D01*
X171450000Y-110830000D02*
X170880000Y-110830000D01*
%TO.C,R25*%
X178120000Y-89643641D02*
X178120000Y-89336359D01*
X178880000Y-89643641D02*
X178880000Y-89336359D01*
%TO.C,C16*%
X158422000Y-84681164D02*
X158422000Y-84896836D01*
X157702000Y-84681164D02*
X157702000Y-84896836D01*
%TO.C,U4*%
X138515000Y-89435000D02*
X135065000Y-89435000D01*
X138515000Y-89435000D02*
X140465000Y-89435000D01*
X138515000Y-94555000D02*
X136565000Y-94555000D01*
X138515000Y-94555000D02*
X140465000Y-94555000D01*
D13*
%TO.C,IC1*%
X170525000Y-86740000D02*
X168975000Y-86740000D01*
X168625000Y-86545000D02*
X165425000Y-86545000D01*
X168625000Y-76645000D02*
X168625000Y-86545000D01*
X165425000Y-86545000D02*
X165425000Y-76645000D01*
X165425000Y-76645000D02*
X168625000Y-76645000D01*
D12*
%TO.C,R12*%
X122620000Y-99153641D02*
X122620000Y-98846359D01*
X123380000Y-99153641D02*
X123380000Y-98846359D01*
%TO.C,R17*%
X180620000Y-89643641D02*
X180620000Y-89336359D01*
X181380000Y-89643641D02*
X181380000Y-89336359D01*
%TO.C,R11*%
X119870000Y-99143641D02*
X119870000Y-98836359D01*
X120630000Y-99143641D02*
X120630000Y-98836359D01*
%TO.C,TP17*%
X185700000Y-108500000D02*
G75*
G03*
X185700000Y-108500000I-700000J0D01*
G01*
%TO.C,C12*%
X172912164Y-96640000D02*
X173127836Y-96640000D01*
X172912164Y-97360000D02*
X173127836Y-97360000D01*
%TO.C,D1*%
X110365000Y-111485000D02*
X111835000Y-111485000D01*
X111835000Y-111485000D02*
X111835000Y-109200000D01*
X110365000Y-109200000D02*
X110365000Y-111485000D01*
%TO.C,C1*%
X154610000Y-95392164D02*
X154610000Y-95607836D01*
X153890000Y-95392164D02*
X153890000Y-95607836D01*
D13*
%TO.C,F2*%
X119175000Y-87010000D02*
X120325000Y-87010000D01*
D12*
%TO.C,TP25*%
X117200000Y-84260000D02*
G75*
G03*
X117200000Y-84260000I-700000J0D01*
G01*
%TO.C,C10*%
X119015000Y-83221252D02*
X119015000Y-82698748D01*
X120485000Y-83221252D02*
X120485000Y-82698748D01*
%TO.C,U2*%
X121550000Y-79600000D02*
X127560000Y-79600000D01*
X123800000Y-86420000D02*
X127560000Y-86420000D01*
X127560000Y-79600000D02*
X127560000Y-80860000D01*
X127560000Y-86420000D02*
X127560000Y-85160000D01*
%TO.C,C15*%
X159848000Y-97504420D02*
X159848000Y-97785580D01*
X158828000Y-97504420D02*
X158828000Y-97785580D01*
%TO.C,R8*%
X129120000Y-110163641D02*
X129120000Y-109856359D01*
X129880000Y-110163641D02*
X129880000Y-109856359D01*
%TO.C,R28*%
X157620000Y-104413641D02*
X157620000Y-104106359D01*
X158380000Y-104413641D02*
X158380000Y-104106359D01*
%TO.C,TP14*%
X184500000Y-94000000D02*
G75*
G03*
X184500000Y-94000000I-700000J0D01*
G01*
%TO.C,R9*%
X119015000Y-90987064D02*
X119015000Y-90532936D01*
X120485000Y-90987064D02*
X120485000Y-90532936D01*
%TO.C,Y2*%
X134230000Y-89450000D02*
X132630000Y-89450000D01*
X132630000Y-89450000D02*
X132630000Y-91850000D01*
X134230000Y-91850000D02*
X134230000Y-89450000D01*
D14*
%TO.C,H5*%
X134780000Y-99800000D02*
X135780000Y-99000000D01*
X135280000Y-100350000D02*
X134780000Y-99800000D01*
X135780000Y-99000000D02*
X136280000Y-99550000D01*
X144280000Y-99550000D02*
X144780000Y-99000000D01*
X144780000Y-99000000D02*
X145780000Y-99800000D01*
X145780000Y-99800000D02*
X145280000Y-100350000D01*
D12*
%TO.C,R24*%
X163246359Y-87820000D02*
X163553641Y-87820000D01*
X163246359Y-88580000D02*
X163553641Y-88580000D01*
%TO.C,Q2*%
X120360000Y-103187500D02*
X120360000Y-101512500D01*
X120360000Y-103187500D02*
X120360000Y-103837500D01*
X117240000Y-103187500D02*
X117240000Y-102537500D01*
X117240000Y-103187500D02*
X117240000Y-103837500D01*
%TO.C,R6*%
X143343641Y-81330000D02*
X143036359Y-81330000D01*
X143343641Y-80570000D02*
X143036359Y-80570000D01*
%TO.C,C18*%
X172110000Y-76392164D02*
X172110000Y-76607836D01*
X171390000Y-76392164D02*
X171390000Y-76607836D01*
%TO.C,R22*%
X146220000Y-91443641D02*
X146220000Y-91136359D01*
X146980000Y-91443641D02*
X146980000Y-91136359D01*
%TO.C,C14*%
X180860000Y-94892164D02*
X180860000Y-95107836D01*
X180140000Y-94892164D02*
X180140000Y-95107836D01*
%TO.C,R7*%
X122130000Y-98846359D02*
X122130000Y-99153641D01*
X121370000Y-98846359D02*
X121370000Y-99153641D01*
%TD*%
M02*
